<?xml version="1.0" encoding="UTF-8"?>
<svg xmlns="http://www.w3.org/2000/svg" xmlns:xlink="http://www.w3.org/1999/xlink" version="1.2" >
<font id="Arial Narrow">
<font-face  font-family="Arial" units-per-em="2048" ascent="1491" descent="-431" font-style="normal" font-weight="400" font-stretch="condensed" cap-height="1536" x-height="1024" underline-position="-217" underline-thickness="150" />
<missing-glyph  horiz-adv-x="467" d="M44 0 L44 1280 L433 1280 L433 0 L44 0 Z M91 53 L387 53 L387 1237 L91 1237 L91 53 Z " />
<glyph glyph-name="&amp;#x20;" unicode="&#x20;" horiz-adv-x="467" d="" />
<glyph glyph-name="&amp;#xa0;" unicode="&#xa0;" horiz-adv-x="467" d="" />
<glyph glyph-name="exclam" unicode="&#x21;" horiz-adv-x="467" d="M193 364 L148 1141 L148 1466 L331 1466 L331 1141 L289 364 L193 364 Z M155 0 L155 205 L324 205 L324 0 L155 0 Z " />
<glyph glyph-name="quotedbl" unicode="&#x22;" horiz-adv-x="596" d="M117 947 L76 1226 L76 1466 L244 1466 L244 1226 L207 947 L117 947 Z M388 947 L349 1226 L349 1466 L517 1466 L517 1226 L477 947 L388 947 Z " />
<glyph glyph-name="numbersign" unicode="&#x23;" horiz-adv-x="934" d="M82 -25 L153 401 L15 401 L15 550 L178 550 L239 913 L15 913 L15 1062 L263 1062 L335 1491 L458 1491 L386 1062 L645 1062 L716 1491 L840 1491 L768 1062 L911 1062 L911 913 L744 913 L683 550 L911 550 L911 401 L658 401 L587 -25 L463 -25 L534 401 L276 401 L205 -25 L82 -25 Z M301 550 L559 550 L620 913 L362 913 L301 550 Z " />
<glyph glyph-name="dollar" unicode="&#x24;" horiz-adv-x="934" d="M415 -211 L415 -31 Q295 -12 226 36.5 Q157 85 111 179 Q65 273 57 407 L206 441 Q225 279 282.5 204.5 Q340 130 415 121 L415 694 Q317 716 221 786 Q157 832 120 914.5 Q83 997 83 1107 Q83 1220 125 1312.5 Q167 1405 235 1453 Q303 1501 415 1515 L415 1601 L503 1601 L503 1515 Q596 1504 659.5 1462 Q723 1420 766 1343.5 Q809 1267 823 1154 L671 1126 Q646 1327 503 1363 L503 844 Q604 813 633 799 Q699 768 747.5 717 Q796 666 824.5 589.5 Q853 513 853 417 Q853 222 752 101 Q651 -20 503 -29 L503 -211 L415 -211 Z M415 1365 Q331 1349 280.5 1283 Q230 1217 230 1114 Q230 936 415 867 L415 1365 Z M503 121 Q586 134 643.5 209.5 Q701 285 701 408 Q701 507 658.5 566 Q616 625 503 669 L503 121 Z " />
<glyph glyph-name="percent" unicode="&#x25;" horiz-adv-x="1493" d="M94 1114 Q94 1297 167 1394 Q240 1491 346 1491 Q456 1491 532 1394 Q608 1297 608 1104 Q608 915 532 815.5 Q456 716 348 716 Q242 716 168 814.5 Q94 913 94 1114 Z M351 1367 Q296 1367 259.5 1308.5 Q223 1250 223 1103 Q223 956 259.5 898 Q296 840 354 840 Q407 840 443.5 898.5 Q480 957 480 1103 Q480 1249 443 1308 Q406 1367 351 1367 Z M351 -54 L1009 1491 L1129 1491 L474 -54 L351 -54 Z M872 344 Q872 527 945 624 Q1018 721 1123 721 Q1234 721 1310 624.5 Q1386 528 1386 335 Q1386 145 1309.5 45.5 Q1233 -54 1126 -54 Q1020 -54 946 45 Q872 144 872 344 Z M1129 597 Q1073 597 1036.5 538.5 Q1000 480 1000 333 Q1000 186 1037 128 Q1074 70 1132 70 Q1184 70 1220.5 129 Q1257 188 1257 334 Q1257 480 1220.5 538.5 Q1184 597 1129 597 Z " />
<glyph glyph-name="ampersand" unicode="&#x26;" horiz-adv-x="1120" d="M799 173 Q653 -25 455 -25 Q276 -25 174.5 109 Q73 243 73 405 Q73 676 359 842 Q280 953 252 1024.5 Q224 1096 224 1164 Q224 1303 311.5 1397 Q399 1491 522 1491 Q640 1491 721 1402.5 Q802 1314 802 1178 Q802 969 575 821 L791 486 Q826 572 848 690 L1001 650 Q962 460 895 334 Q976 202 1082 109 L983 -34 Q894 37 799 173 Z M499 937 Q591 1004 621 1055 Q651 1106 651 1173 Q651 1251 611 1297 Q571 1343 515 1343 Q458 1343 416.5 1298 Q375 1253 375 1181 Q375 1112 433 1030 L499 937 Z M706 315 L436 724 Q322 641 277 567.5 Q232 494 232 416 Q232 316 294 225 Q356 134 456 134 Q520 134 591 183 Q662 232 706 315 Z " />
<glyph glyph-name="quotesingle" unicode="&#x27;" horiz-adv-x="322" d="M109 947 L71 1221 L71 1466 L239 1466 L239 1221 L200 947 L109 947 Z " />
<glyph glyph-name="parenleft" unicode="&#x28;" horiz-adv-x="559" d="M392 -431 Q282 -259 191.5 -7 Q101 245 101 532 Q101 1018 392 1491 L498 1491 Q386 1256 343.5 1126.5 Q301 997 276.5 842 Q252 687 252 530 Q252 50 498 -431 L392 -431 Z " />
<glyph glyph-name="parenright" unicode="&#x29;" horiz-adv-x="559" d="M167 -431 L61 -431 Q306 50 306 530 Q306 687 281.5 842 Q257 997 215 1126.5 Q173 1256 61 1491 L167 1491 Q458 1018 458 532 Q458 253 371 1.5 Q284 -250 167 -431 Z " />
<glyph glyph-name="asterisk" unicode="&#x2a;" horiz-adv-x="653" d="M50 1197 L88 1339 Q218 1283 277 1242 Q262 1426 261 1491 L380 1491 Q378 1395 361 1243 Q444 1294 554 1339 L592 1197 Q487 1155 388 1141 Q438 1088 529 952 L431 867 Q385 943 318 1082 Q257 941 211 867 L115 952 Q205 1090 251 1141 Q144 1166 50 1197 Z " />
<glyph glyph-name="plus" unicode="&#x2b;" horiz-adv-x="981" d="M419 237 L419 639 L92 639 L92 807 L419 807 L419 1206 L559 1206 L559 807 L886 807 L886 639 L559 639 L559 237 L419 237 Z " />
<glyph glyph-name="comma" unicode="&#x2c;" horiz-adv-x="467" d="M152 0 L152 205 L320 205 L320 0 Q320 -119 285 -186.5 Q250 -254 183 -290 L142 -213 Q187 -189 210 -141.5 Q233 -94 235 0 L152 0 Z " />
<glyph glyph-name="&amp;#x2d;" unicode="&#x2d;" horiz-adv-x="559" d="M53 440 L53 621 L506 621 L506 440 L53 440 Z " />
<glyph glyph-name="&amp;#xad;" unicode="&#xad;" horiz-adv-x="559" d="M53 440 L53 621 L506 621 L506 440 L53 440 Z " />
<glyph glyph-name="period" unicode="&#x2e;" horiz-adv-x="467" d="M155 0 L155 205 L323 205 L323 0 L155 0 Z " />
<glyph glyph-name="slash" unicode="&#x2f;" horiz-adv-x="467" d="M0 -25 L348 1491 L467 1491 L118 -25 L0 -25 Z " />
<glyph glyph-name="zero" unicode="0" horiz-adv-x="934" d="M67 723 Q67 1092 166.5 1282 Q266 1472 460 1472 Q632 1472 731 1318 Q851 1132 851 723 Q851 356 752 165.5 Q653 -25 458 -25 Q286 -25 176.5 143 Q67 311 67 723 Z M218 723 Q218 366 286.5 244.5 Q355 123 462 123 Q563 123 631 246 Q699 369 699 723 Q699 1081 630.5 1202 Q562 1323 453 1323 Q353 1323 285.5 1200 Q218 1077 218 723 Z " />
<glyph glyph-name="one" unicode="1" horiz-adv-x="934" d="M623 0 L475 0 L475 1147 Q424 1087 338 1024.5 Q252 962 180 930 L180 1104 Q302 1174 395.5 1275 Q489 1376 527 1472 L623 1472 L623 0 Z " />
<glyph glyph-name="two" unicode="2" horiz-adv-x="934" d="M845 173 L845 0 L50 0 Q47 105 113.5 235 Q180 365 357 542 Q564 748 628 860.5 Q692 973 692 1070 Q692 1182 626.5 1252.5 Q561 1323 465 1323 Q362 1323 296 1247 Q230 1171 230 1029 L78 1048 Q94 1259 197.5 1365.5 Q301 1472 470 1472 Q654 1472 748.5 1348 Q843 1224 843 1066 Q843 926 769 797.5 Q695 669 488 455 Q356 320 317.5 271 Q279 222 255 173 L845 173 Z " />
<glyph glyph-name="three" unicode="3" horiz-adv-x="934" d="M68 387 L216 411 Q262 123 449 123 Q550 123 624 208.5 Q698 294 698 430 Q698 558 630 636 Q562 714 463 714 Q421 714 359 694 L376 852 L399 850 Q508 850 576 917 Q644 984 644 1096 Q644 1199 587 1261.5 Q530 1324 448 1324 Q363 1324 304.5 1258.5 Q246 1193 230 1060 L83 1092 Q111 1280 209 1376 Q307 1472 446 1472 Q592 1472 694 1364 Q796 1256 796 1092 Q796 992 752.5 915 Q709 838 631 794 Q703 774 750 728 Q797 682 826 605 Q855 528 855 433 Q855 231 736 102.5 Q617 -26 451 -26 Q297 -26 190 86 Q83 198 68 387 Z " />
<glyph glyph-name="four" unicode="4" horiz-adv-x="934" d="M540 0 L540 351 L19 351 L19 516 L568 1466 L688 1466 L688 516 L851 516 L851 351 L688 351 L688 0 L540 0 Z M540 516 L540 1177 L164 516 L540 516 Z " />
<glyph glyph-name="five" unicode="5" horiz-adv-x="934" d="M67 384 L222 400 Q240 260 303.5 191.5 Q367 123 451 123 Q556 123 632 219.5 Q708 316 708 483 Q708 640 634.5 726.5 Q561 813 450 813 Q383 813 324.5 775.5 Q266 738 232 671 L93 693 L210 1446 L807 1446 L807 1274 L328 1274 L263 880 Q370 972 490 972 Q641 972 752.5 843.5 Q864 715 864 497 Q864 282 752.5 128.5 Q641 -25 453 -25 Q297 -25 189.5 83.5 Q82 192 67 384 Z " />
<glyph glyph-name="six" unicode="6" horiz-adv-x="934" d="M833 1107 L686 1093 Q665 1206 624 1254 Q565 1324 482 1324 Q353 1324 275 1164 Q208 1026 207 756 Q258 852 335 901.5 Q412 951 498 951 Q641 951 747.5 821.5 Q854 692 854 475 Q854 328 800.5 208.5 Q747 89 663 32 Q579 -25 478 -25 Q296 -25 178 139 Q60 303 60 686 Q60 1111 181 1291.5 Q302 1472 491 1472 Q628 1472 720.5 1378.5 Q813 1285 833 1107 Z M230 475 Q230 316 305 219.5 Q380 123 479 123 Q566 123 634.5 214 Q703 305 703 464 Q703 620 635 706 Q567 792 469 792 Q373 792 301.5 706.5 Q230 621 230 475 Z " />
<glyph glyph-name="seven" unicode="7" horiz-adv-x="934" d="M77 1274 L77 1447 L855 1447 L855 1307 Q681 1081 549 718.5 Q417 356 397 0 L245 0 Q248 184 303.5 429 Q359 674 456 896 Q553 1118 665 1274 L77 1274 Z " />
<glyph glyph-name="eight" unicode="8" horiz-adv-x="934" d="M294 795 Q205 835 159.5 909.5 Q114 984 114 1095 Q114 1262 212.5 1367 Q311 1472 460 1472 Q610 1472 709.5 1365 Q809 1258 809 1089 Q809 983 765 909.5 Q721 836 632 795 Q741 752 799.5 656 Q858 560 858 418 Q858 222 744.5 98.5 Q631 -25 463 -25 Q293 -25 179.5 98.5 Q66 222 66 423 Q66 570 126.5 665.5 Q187 761 294 795 Z M266 1100 Q266 992 323 928 Q380 864 463 864 Q544 864 601 927 Q658 990 658 1090 Q658 1193 599.5 1258.5 Q541 1324 461 1324 Q381 1324 323.5 1260 Q266 1196 266 1100 Z M217 423 Q217 288 289.5 205.5 Q362 123 463 123 Q565 123 636 203 Q707 283 707 417 Q707 552 634 634.5 Q561 717 459 717 Q358 717 287.5 635 Q217 553 217 423 Z " />
<glyph glyph-name="nine" unicode="9" horiz-adv-x="934" d="M89 339 L231 355 Q265 123 431 123 Q505 123 565.5 173.5 Q626 224 668 353 Q710 482 710 654 L710 690 Q664 601 586 549 Q508 497 427 497 Q280 497 173.5 625.5 Q67 754 67 977 Q67 1207 177.5 1339.5 Q288 1472 446 1472 Q558 1472 655 1398 Q752 1324 805 1180 Q858 1036 858 765 Q858 463 801 296 Q744 129 646.5 52 Q549 -25 428 -25 Q291 -25 199 68.5 Q107 162 89 339 Z M694 986 Q694 1143 624 1233 Q554 1323 463 1323 Q368 1323 293.5 1227 Q219 1131 219 971 Q219 827 290 741.5 Q361 656 460 656 Q558 656 626 742 Q694 828 694 986 Z " />
<glyph glyph-name="colon" unicode="&#x3a;" horiz-adv-x="467" d="M155 857 L155 1062 L323 1062 L323 857 L155 857 Z M155 0 L155 205 L323 205 L323 0 L155 0 Z " />
<glyph glyph-name="&amp;#x3b;" unicode="&#x3b;" horiz-adv-x="467" d="M152 857 L152 1062 L320 1062 L320 857 L152 857 Z M152 0 L152 205 L320 205 L320 0 Q320 -119 285 -186.5 Q250 -254 183 -290 L142 -213 Q187 -189 210 -141.5 Q233 -94 235 0 L152 0 Z " />
<glyph glyph-name="&amp;#x37e;" unicode="&#x37e;" horiz-adv-x="467" d="M152 857 L152 1062 L320 1062 L320 857 L152 857 Z M152 0 L152 205 L320 205 L320 0 Q320 -119 285 -186.5 Q250 -254 183 -290 L142 -213 Q187 -189 210 -141.5 Q233 -94 235 0 L152 0 Z " />
<glyph glyph-name="less" unicode="&#x3c;" horiz-adv-x="981" d="M90 641 L90 809 L886 1219 L886 1040 L255 724 L886 405 L886 226 L90 641 Z " />
<glyph glyph-name="equal" unicode="&#x3d;" horiz-adv-x="981" d="M886 862 L92 862 L92 1030 L886 1030 L886 862 Z M886 417 L92 417 L92 585 L886 585 L886 417 Z " />
<glyph glyph-name="greater" unicode="&#x3e;" horiz-adv-x="981" d="M886 641 L90 226 L90 405 L721 724 L90 1040 L90 1219 L886 809 L886 641 Z " />
<glyph glyph-name="question" unicode="&#x3f;" horiz-adv-x="934" d="M385 361 L383 415 Q383 560 432 658 Q466 726 575 843 Q649 922 672 971.5 Q695 1021 695 1079 Q695 1189 625 1266 Q555 1343 464 1343 Q371 1343 306.5 1272 Q242 1201 223 1046 L71 1068 Q93 1280 196.5 1385.5 Q300 1491 463 1491 Q627 1491 736.5 1378.5 Q846 1266 846 1091 Q846 995 810 915 Q774 835 666 717 Q574 618 551.5 560.5 Q529 503 526 361 L385 361 Z M375 0 L375 205 L543 205 L543 0 L375 0 Z " />
<glyph glyph-name="at" unicode="&#x40;" horiz-adv-x="1704" d="M950 163 Q892 81 825.5 39 Q759 -3 702 -3 Q582 -3 500 106 Q401 238 401 446 Q401 614 472 773.5 Q543 933 640 1008.5 Q737 1084 830 1084 Q898 1084 963 1038 Q1028 992 1075 900 L1102 1055 L1250 1055 L1131 384 Q1107 245 1107 229 Q1107 200 1124 181.5 Q1141 163 1164 163 Q1208 163 1289 233 Q1370 303 1425 436.5 Q1480 570 1480 719 Q1480 897 1403 1041 Q1326 1185 1190.5 1266 Q1055 1347 896 1347 Q707 1347 554 1245 Q401 1143 305.5 941.5 Q210 740 210 481 Q210 237 296 66 Q382 -105 541.5 -194 Q701 -283 920 -283 Q1117 -283 1266.5 -200.5 Q1416 -118 1494 19 L1642 19 Q1593 -102 1480.5 -212.5 Q1368 -323 1232 -377 Q1096 -431 919 -431 Q660 -431 479 -327 Q298 -223 193.5 -20.5 Q89 182 89 467 Q89 770 204 1016 Q319 1262 494.5 1377.5 Q670 1493 904 1493 Q1100 1493 1256.5 1397 Q1413 1301 1507.5 1118.5 Q1602 936 1602 715 Q1602 415 1428 188 Q1281 -4 1108 -4 Q1026 -4 991.5 36.5 Q957 77 950 163 Z M553 434 Q553 296 607.5 220.5 Q662 145 730 145 Q788 145 858 203.5 Q928 262 978 386 Q1028 510 1028 647 Q1028 787 972 861 Q916 935 837 935 Q776 935 714.5 883 Q653 831 603 697 Q553 563 553 434 Z " />
<glyph glyph-name="A" unicode="A" horiz-adv-x="1120" d="M-2 0 L460 1466 L631 1466 L1123 0 L941 0 L801 444 L299 444 L167 0 L-2 0 Z M345 602 L752 602 L627 1008 Q569 1195 542 1312 Q519 1171 477 1032 L345 602 Z " />
<glyph glyph-name="B" unicode="B" horiz-adv-x="1120" d="M124 0 L124 1466 L575 1466 Q712 1466 792 1423.5 Q872 1381 923 1291 Q974 1201 974 1092 Q974 991 930 910 Q886 829 806 780 Q911 742 971.5 650.5 Q1032 559 1032 425 Q1032 292 977.5 191.5 Q923 91 832 45.5 Q741 0 582 0 L124 0 Z M283 850 L543 850 Q645 850 688 864 Q750 885 783.5 934.5 Q817 984 817 1069 Q817 1148 786.5 1200.5 Q756 1253 705.5 1273 Q655 1293 524 1293 L283 1293 L283 850 Z M283 173 L582 173 Q681 173 728 191 Q796 217 831.5 276.5 Q867 336 867 426 Q867 509 833 566.5 Q799 624 741.5 650.5 Q684 677 561 677 L283 677 L283 173 Z " />
<glyph glyph-name="C" unicode="C" horiz-adv-x="1212" d="M983 514 L1143 465 Q1090 218 957.5 96.5 Q825 -25 635 -25 Q468 -25 349.5 56.5 Q231 138 155.5 318 Q80 498 80 743 Q80 985 155.5 1152.5 Q231 1320 360 1405.5 Q489 1491 648 1491 Q822 1491 947 1382.5 Q1072 1274 1122 1064 L966 1019 Q886 1325 645 1325 Q525 1325 437 1263.5 Q349 1202 296.5 1072 Q244 942 244 743 Q244 442 350 291.5 Q456 141 632 141 Q762 141 856.5 233.5 Q951 326 983 514 Z " />
<glyph glyph-name="D" unicode="D" horiz-adv-x="1212" d="M126 0 L126 1466 L541 1466 Q695 1466 775 1439 Q880 1404 957 1311 Q1034 1218 1077 1076.5 Q1120 935 1120 741 Q1120 492 1047 318.5 Q974 145 859.5 72.5 Q745 0 560 0 L126 0 Z M285 173 L541 173 Q696 173 776 223.5 Q856 274 899 386 Q956 535 956 743 Q956 966 895.5 1093.5 Q835 1221 740 1264 Q676 1293 537 1293 L285 1293 L285 173 Z " />
<glyph glyph-name="E" unicode="E" horiz-adv-x="1120" d="M133 0 L133 1466 L1002 1466 L1002 1293 L292 1293 L292 844 L957 844 L957 672 L292 672 L292 173 L1030 173 L1030 0 L133 0 Z " />
<glyph glyph-name="F" unicode="F" horiz-adv-x="1026" d="M141 0 L141 1466 L952 1466 L952 1293 L300 1293 L300 839 L864 839 L864 666 L300 666 L300 0 L141 0 Z " />
<glyph glyph-name="G" unicode="G" horiz-adv-x="1307" d="M696 575 L696 747 L1205 748 L1205 204 Q1088 90 963 32.5 Q838 -25 706 -25 Q530 -25 392 63 Q254 151 173.5 320 Q93 489 93 726 Q93 966 174 1144 Q255 1322 386 1406.5 Q517 1491 696 1491 Q828 1491 927 1442 Q1026 1393 1090 1303 Q1154 1213 1186 1056 L1043 1008 Q1014 1132 970 1193.5 Q926 1255 854 1290 Q782 1325 692 1325 Q561 1325 466.5 1261.5 Q372 1198 314.5 1064 Q257 930 257 737 Q257 443 380 296.5 Q503 150 700 150 Q794 150 892.5 195 Q991 240 1049 302 L1049 575 L696 575 Z " />
<glyph glyph-name="H" unicode="H" horiz-adv-x="1212" d="M129 0 L129 1466 L288 1466 L288 864 L913 864 L913 1466 L1072 1466 L1072 0 L913 0 L913 691 L288 691 L288 0 L129 0 Z " />
<glyph glyph-name="I" unicode="I" horiz-adv-x="467" d="M160 0 L160 1466 L319 1466 L319 0 L160 0 Z " />
<glyph glyph-name="J" unicode="J" horiz-adv-x="840" d="M45 416 L188 440 Q194 272 240 210 Q286 148 367 148 Q424 148 467.5 179.5 Q511 211 526 259 Q547 324 547 456 L547 1466 L706 1466 L706 467 Q706 197 617.5 86 Q529 -25 368 -25 Q211 -25 134 75 Q45 189 45 416 Z " />
<glyph glyph-name="K" unicode="K" horiz-adv-x="1120" d="M124 0 L124 1466 L283 1466 L283 739 L880 1466 L1096 1466 L591 872 L1118 0 L908 0 L480 742 L283 508 L283 0 L124 0 Z " />
<glyph glyph-name="L" unicode="L" horiz-adv-x="934" d="M120 0 L120 1466 L279 1466 L279 173 L871 173 L871 0 L120 0 Z " />
<glyph glyph-name="M" unicode="M" horiz-adv-x="1399" d="M125 0 L125 1466 L364 1466 L649 428 L706 211 Q727 292 770 446 L1058 1466 L1272 1466 L1272 0 L1119 0 L1119 1227 L769 0 L626 0 L278 1248 L278 0 L125 0 Z " />
<glyph glyph-name="N" unicode="N" horiz-adv-x="1212" d="M125 0 L125 1466 L288 1466 L920 315 L920 1466 L1072 1466 L1072 0 L909 0 L278 1152 L278 0 L125 0 Z " />
<glyph glyph-name="O" unicode="O" horiz-adv-x="1307" d="M85 714 Q85 1089 250 1290.5 Q415 1492 661 1492 Q820 1492 951 1402 Q1082 1312 1158.5 1140.5 Q1235 969 1235 732 Q1235 406 1087 201 Q924 -25 660 -25 Q394 -25 232 207 Q85 417 85 714 Z M249 711 Q249 440 368.5 290.5 Q488 141 659 141 Q834 141 952.5 292 Q1071 443 1071 736 Q1071 925 1010 1074 Q963 1188 868.5 1256.5 Q774 1325 662 1325 Q482 1325 365.5 1175 Q249 1025 249 711 Z " />
<glyph glyph-name="P" unicode="P" horiz-adv-x="1120" d="M130 0 L130 1466 L583 1466 Q743 1466 819 1438 Q923 1400 985 1297 Q1047 1194 1047 1044 Q1047 846 946 721 Q845 596 597 596 L289 596 L289 0 L130 0 Z M289 769 L600 769 Q747 769 815 835.5 Q883 902 883 1036 Q883 1123 849.5 1185 Q816 1247 768.5 1270 Q721 1293 597 1293 L289 1293 L289 769 Z " />
<glyph glyph-name="Q" unicode="Q" horiz-adv-x="1307" d="M1045 157 Q1156 64 1249 21 L1202 -114 Q1070 -56 944 66 Q811 -25 650 -25 Q386 -25 223 206 Q76 414 76 732 Q76 970 155 1144.5 Q234 1319 362.5 1405.5 Q491 1492 652 1492 Q811 1492 941.5 1402.5 Q1072 1313 1149 1141.5 Q1226 970 1226 736 Q1226 553 1178.5 405 Q1131 257 1045 157 Z M694 405 Q831 359 921 265 Q1061 423 1061 736 Q1061 925 1007.5 1057 Q954 1189 859.5 1257 Q765 1325 653 1325 Q475 1325 357.5 1175.5 Q240 1026 240 732 Q240 442 359 291.5 Q478 141 653 141 Q737 141 813 180 Q739 239 655 264 L694 405 Z " />
<glyph glyph-name="R" unicode="R" horiz-adv-x="1212" d="M129 0 L129 1466 L662 1466 Q829 1466 908.5 1425 Q988 1384 1039 1288.5 Q1090 1193 1090 1067 Q1090 901 1003.5 798 Q917 695 752 667 Q819 627 854 586 Q925 502 979 399 L1189 0 L989 0 L829 305 Q736 484 688.5 546 Q641 608 596.5 629.5 Q552 651 472 651 L288 651 L288 0 L129 0 Z M288 819 L630 819 Q742 819 800 846 Q858 873 892 931 Q926 989 926 1066 Q926 1177 861 1240.5 Q796 1304 668 1304 L288 1304 L288 819 Z " />
<glyph glyph-name="S" unicode="S" horiz-adv-x="1120" d="M76 471 L226 487 Q238 366 280.5 298.5 Q323 231 402 190 Q481 149 580 149 Q722 149 800.5 218.5 Q879 288 879 399 Q879 464 850.5 512.5 Q822 561 764.5 592 Q707 623 516 679 Q346 729 274 780 Q202 831 162 909.5 Q122 988 122 1087 Q122 1265 237 1378 Q352 1491 547 1491 Q681 1491 781.5 1438 Q882 1385 937.5 1286 Q993 1187 997 1053 L844 1039 Q832 1182 758.5 1251 Q685 1320 552 1320 Q417 1320 346 1259.5 Q275 1199 275 1103 Q275 1014 327 965 Q379 916 561 866 Q739 817 811 781 Q921 725 977 633.5 Q1033 542 1033 415 Q1033 289 974 185.5 Q915 82 813.5 28 Q712 -26 569 -26 Q346 -26 213.5 108 Q81 242 76 471 Z " />
<glyph glyph-name="T" unicode="T" horiz-adv-x="1026" d="M438 0 L438 1293 L42 1293 L42 1466 L995 1466 L995 1293 L597 1293 L597 0 L438 0 Z " />
<glyph glyph-name="U" unicode="U" horiz-adv-x="1212" d="M915 1466 L1075 1466 L1075 619 Q1075 406 1033.5 269.5 Q992 133 882.5 54 Q773 -25 604 -25 Q366 -25 247.5 117 Q129 259 129 619 L129 1466 L288 1466 L288 620 Q288 421 319 332 Q350 243 420.5 196.5 Q491 150 592 150 Q762 150 838.5 246 Q915 342 915 620 L915 1466 Z " />
<glyph glyph-name="V" unicode="V" horiz-adv-x="1120" d="M474 0 L8 1466 L180 1466 L493 401 Q529 277 556 161 Q584 282 620 401 L945 1466 L1107 1466 L637 0 L474 0 Z " />
<glyph glyph-name="W" unicode="W" horiz-adv-x="1585" d="M342 0 L23 1466 L186 1466 L369 505 Q398 357 420 205 L474 476 L703 1466 L895 1466 L1067 724 Q1130 453 1161 205 Q1184 348 1220 524 L1409 1466 L1569 1466 L1239 0 L1086 0 L832 1117 L794 1289 Q777 1193 759 1117 L504 0 L342 0 Z " />
<glyph glyph-name="X" unicode="X" horiz-adv-x="1120" d="M8 0 L473 764 L63 1466 L252 1466 L471 1090 Q538 974 567 910 Q606 988 662 1077 L905 1466 L1077 1466 L655 775 L1110 0 L914 0 L611 523 Q586 567 559 621 Q518 541 501 511 L199 0 L8 0 Z " />
<glyph glyph-name="Y" unicode="Y" horiz-adv-x="1120" d="M468 0 L468 621 L5 1466 L199 1466 L435 1024 Q505 893 558 776 Q611 891 689 1035 L922 1466 L1107 1466 L627 621 L627 0 L468 0 Z " />
<glyph glyph-name="Z" unicode="Z" horiz-adv-x="1026" d="M36 0 L36 180 L652 1119 Q716 1217 777 1293 L105 1293 L105 1466 L966 1466 L966 1293 L292 276 L219 173 L986 173 L986 0 L36 0 Z " />
<glyph glyph-name="bracketleft" unicode="&#x5b;" horiz-adv-x="467" d="M117 -407 L117 1466 L443 1466 L443 1317 L264 1317 L264 -258 L443 -258 L443 -407 L117 -407 Z " />
<glyph glyph-name="backslash" unicode="&#x5c;" horiz-adv-x="467" d="M348 -25 L0 1491 L119 1491 L467 -25 L348 -25 Z " />
<glyph glyph-name="bracketright" unicode="&#x5d;" horiz-adv-x="467" d="M362 -407 L36 -407 L36 -258 L214 -258 L214 1317 L36 1317 L36 1466 L362 1466 L362 -407 Z " />
<glyph glyph-name="asciicircum" unicode="&#x5e;" horiz-adv-x="788" d="M196 690 L45 690 L335 1491 L454 1491 L744 690 L596 690 L393 1287 L196 690 Z " />
<glyph glyph-name="underscore" unicode="&#x5f;" horiz-adv-x="934" d="M-12 -154 L943 -154 L943 -256 L-12 -256 L-12 -154 Z " />
<glyph glyph-name="grave" unicode="&#x60;" horiz-adv-x="559" d="M381 1194 L262 1194 L73 1474 L271 1474 L381 1194 Z " />
<glyph glyph-name="a" unicode="a" horiz-adv-x="934" d="M676 131 Q602 54 522 15 Q442 -24 356 -24 Q220 -24 139 58 Q58 140 58 279 Q58 371 96 442 Q134 513 200 553 Q266 593 400 612 Q580 638 664 674 L665 720 Q665 829 626 873 Q571 937 457 937 Q354 937 303 894.5 Q252 852 228 735 L83 759 Q114 930 208.5 1008 Q303 1086 479 1086 Q616 1086 694 1034.5 Q772 983 792.5 907 Q813 831 813 685 L813 445 Q813 193 822.5 127.5 Q832 62 860 0 L706 0 Q683 55 676 131 Z M664 533 Q583 493 423 465 Q330 449 293 428.5 Q256 408 235.5 370.5 Q215 333 215 284 Q215 208 262 162.5 Q309 117 392 117 Q471 117 535.5 158 Q600 199 632 267.5 Q664 336 664 467 L664 533 Z " />
<glyph glyph-name="b" unicode="b" horiz-adv-x="934" d="M244 0 L107 0 L107 1466 L254 1466 L254 943 Q301 1015 360.5 1050.5 Q420 1086 493 1086 Q595 1086 678.5 1025 Q762 964 812 840 Q862 716 862 539 Q862 269 749 122.5 Q636 -24 485 -24 Q409 -24 348.5 15.5 Q288 55 244 133 L244 0 Z M242 539 Q242 374 272 292 Q302 210 357 167 Q412 124 479 124 Q570 124 640.5 226.5 Q711 329 711 533 Q711 742 643 840 Q575 938 476 938 Q385 938 313.5 835.5 Q242 733 242 539 Z " />
<glyph glyph-name="c" unicode="c" horiz-adv-x="840" d="M679 389 L824 366 Q799 176 698.5 76 Q598 -24 457 -24 Q286 -24 175.5 116.5 Q65 257 65 532 Q65 809 176.5 947.5 Q288 1086 463 1086 Q598 1086 690.5 1002 Q783 918 809 750 L666 723 Q645 831 593 884.5 Q541 938 468 938 Q359 938 287.5 841.5 Q216 745 216 535 Q216 318 284.5 221 Q353 124 460 124 Q544 124 603.5 188.5 Q663 253 679 389 Z " />
<glyph glyph-name="d" unicode="d" horiz-adv-x="934" d="M673 0 L673 134 Q633 57 570 16.5 Q507 -24 434 -24 Q280 -24 167.5 121.5 Q55 267 55 531 Q55 712 105 838 Q155 964 238.5 1025 Q322 1086 424 1086 Q497 1086 559.5 1047.5 Q622 1009 663 940 L663 1466 L811 1466 L811 0 L673 0 Z M206 530 Q206 324 277.5 224 Q349 124 444 124 Q538 124 607 220 Q676 316 676 510 Q676 733 607 835.5 Q538 938 433 938 Q340 938 273 839.5 Q206 741 206 530 Z " />
<glyph glyph-name="e" unicode="e" horiz-adv-x="934" d="M704 342 L856 319 Q818 149 718.5 62.5 Q619 -24 472 -24 Q287 -24 172.5 116.5 Q58 257 58 522 Q58 797 173.5 941.5 Q289 1086 466 1086 Q635 1086 748 944 Q861 802 861 533 L860 485 L210 485 Q219 306 293 215 Q367 124 473 124 Q639 124 704 342 Z M219 633 L705 633 Q695 771 646 839 Q575 938 465 938 Q366 938 296 855.5 Q226 773 219 633 Z " />
<glyph glyph-name="f" unicode="f" horiz-adv-x="467" d="M150 0 L150 922 L19 922 L19 1062 L150 1062 L150 1175 Q150 1300 176 1362.5 Q202 1425 255.5 1458 Q309 1491 390 1491 Q453 1491 528 1473 L506 1316 Q460 1326 419 1326 Q353 1326 324.5 1291.5 Q296 1257 296 1160 L296 1062 L466 1062 L466 922 L296 922 L296 0 L150 0 Z " />
<glyph glyph-name="g" unicode="g" horiz-adv-x="934" d="M80 -88 L224 -114 Q234 -199 284 -240.5 Q334 -282 423 -282 Q520 -282 577.5 -235.5 Q635 -189 656 -97 Q669 -41 669 139 Q621 70 561 35 Q501 0 428 0 Q272 0 169 132 Q51 284 51 539 Q51 710 103 838 Q155 966 239.5 1026 Q324 1086 429 1086 Q506 1086 569.5 1048 Q633 1010 682 934 L682 1062 L818 1062 L818 144 Q818 -101 778 -205.5 Q738 -310 647 -370.5 Q556 -431 428 -431 Q259 -431 168 -340 Q77 -249 80 -88 Z M203 550 Q203 341 272 245 Q341 149 441 149 Q541 149 611 243 Q681 337 681 542 Q681 742 609 839.5 Q537 937 434 937 Q342 937 272.5 839.5 Q203 742 203 550 Z " />
<glyph glyph-name="h" unicode="h" horiz-adv-x="934" d="M108 0 L108 1466 L255 1466 L255 940 Q307 1013 372.5 1049.5 Q438 1086 517 1086 Q656 1086 736.5 997.5 Q817 909 817 673 L817 0 L670 0 L670 673 Q670 811 621 871 Q572 931 486 931 Q390 931 322.5 854 Q255 777 255 581 L255 0 L108 0 Z " />
<glyph glyph-name="i" unicode="i" horiz-adv-x="373" d="M108 1259 L108 1466 L255 1466 L255 1259 L108 1259 Z M108 0 L108 1062 L255 1062 L255 0 L108 0 Z " />
<glyph glyph-name="j" unicode="j" horiz-adv-x="373" d="M107 1257 L107 1466 L254 1466 L254 1257 L107 1257 Z M-80 -412 L-52 -259 Q-8 -273 17 -273 Q64 -273 85.5 -236 Q107 -199 107 -54 L107 1062 L254 1062 L254 -58 Q254 -275 198.5 -353 Q143 -431 36 -431 Q-24 -431 -80 -412 Z " />
<glyph glyph-name="k" unicode="k" horiz-adv-x="840" d="M112 0 L112 1466 L259 1466 L259 630 L609 1062 L800 1062 L467 668 L833 0 L652 0 L363 543 L259 421 L259 0 L112 0 Z " />
<glyph glyph-name="l" unicode="l" horiz-adv-x="373" d="M104 0 L104 1466 L251 1466 L251 0 L104 0 Z " />
<glyph glyph-name="m" unicode="m" horiz-adv-x="1399" d="M110 0 L110 1062 L242 1062 L242 913 Q286 996 355 1041 Q424 1086 506 1086 Q598 1086 661.5 1038.5 Q725 991 752 900 Q804 993 871.5 1039.5 Q939 1086 1021 1086 Q1146 1086 1218 1001 Q1290 916 1290 729 L1290 0 L1143 0 L1143 669 Q1143 783 1126.5 830.5 Q1110 878 1073 904 Q1036 930 990 930 Q895 930 835 854.5 Q775 779 775 617 L775 0 L627 0 L627 690 Q627 822 586.5 876 Q546 930 475 930 Q374 930 315.5 848.5 Q257 767 257 551 L257 0 L110 0 Z " />
<glyph glyph-name="n" unicode="n" horiz-adv-x="934" d="M108 0 L108 1062 L241 1062 L241 911 Q289 999 358.5 1042.5 Q428 1086 518 1086 Q588 1086 647.5 1058.5 Q707 1031 743.5 986.5 Q780 942 798 871 Q816 800 816 653 L816 0 L668 0 L668 646 Q668 763 648 817 Q628 871 585.5 900.5 Q543 930 487 930 Q381 930 318 851 Q255 772 255 580 L255 0 L108 0 Z " />
<glyph glyph-name="o" unicode="o" horiz-adv-x="934" d="M53 531 Q53 806 168.5 946 Q284 1086 461 1086 Q635 1086 752 946 Q869 806 869 542 Q869 256 754 116 Q639 -24 461 -24 Q286 -24 169.5 116.5 Q53 257 53 531 Z M204 531 Q204 325 279 224.5 Q354 124 465 124 Q569 124 643.5 225.5 Q718 327 718 531 Q718 736 643 836.5 Q568 937 457 937 Q352 937 278 836 Q204 735 204 531 Z " />
<glyph glyph-name="p" unicode="p" horiz-adv-x="934" d="M108 -407 L108 1062 L243 1062 L243 924 Q293 1010 354 1048 Q415 1086 494 1086 Q597 1086 680 1025 Q763 964 813.5 839.5 Q864 715 864 540 Q864 269 750.5 122.5 Q637 -24 484 -24 Q416 -24 357 11 Q298 46 255 110 L255 -407 L108 -407 Z M241 525 Q241 319 310 221.5 Q379 124 477 124 Q571 124 642 225 Q713 326 713 537 Q713 745 644 845 Q575 945 476 945 Q387 945 314 837.5 Q241 730 241 525 Z " />
<glyph glyph-name="q" unicode="q" horiz-adv-x="934" d="M663 -407 L663 113 Q628 52 565.5 14 Q503 -24 440 -24 Q284 -24 170 124 Q56 272 56 541 Q56 775 152 930.5 Q248 1086 424 1086 Q505 1086 568 1044.5 Q631 1003 677 920 L677 1062 L810 1062 L810 -407 L663 -407 Z M207 534 Q207 327 279 225.5 Q351 124 451 124 Q540 124 609 221.5 Q678 319 678 512 Q678 731 605.5 837.5 Q533 944 433 944 Q342 944 274.5 844.5 Q207 745 207 534 Z " />
<glyph glyph-name="r" unicode="r" horiz-adv-x="559" d="M108 0 L108 1062 L241 1062 L241 901 Q292 1013 334.5 1049.5 Q377 1086 430 1086 Q504 1086 581 1028 L531 861 Q476 900 424 900 Q377 900 338 867 Q299 834 283 775 Q255 672 255 556 L255 0 L108 0 Z " />
<glyph glyph-name="s" unicode="s" horiz-adv-x="840" d="M52 317 L198 345 Q211 233 269 178.5 Q327 124 423 124 Q519 124 571.5 171.5 Q624 219 624 292 Q624 355 579 390 Q548 414 429 450 Q257 503 199 540 Q141 577 109 639 Q77 701 77 780 Q77 916 164 1001 Q251 1086 405 1086 Q502 1086 575.5 1051 Q649 1016 688 957 Q727 898 742 788 L598 764 Q578 938 409 938 Q313 938 266 899.5 Q219 861 219 801 Q219 742 264 708 Q291 688 424 644 Q607 585 661 550.5 Q715 516 745 456.5 Q775 397 775 315 Q775 163 678.5 69 Q582 -25 415 -25 Q102 -25 52 317 Z " />
<glyph glyph-name="t" unicode="t" horiz-adv-x="467" d="M437 161 L457 2 Q396 -14 347 -14 Q270 -14 223 16.5 Q176 47 158.5 100 Q141 153 141 311 L141 922 L33 922 L33 1062 L141 1062 L141 1325 L288 1433 L288 1062 L437 1062 L437 922 L288 922 L288 301 Q288 215 301 190 Q320 154 372 154 Q397 154 437 161 Z " />
<glyph glyph-name="u" unicode="u" horiz-adv-x="934" d="M679 0 L679 156 Q628 66 559 21 Q490 -24 403 -24 Q300 -24 227 31.5 Q154 87 129.5 172 Q105 257 105 404 L105 1062 L252 1062 L252 473 Q252 309 268.5 253.5 Q285 198 329.5 164.5 Q374 131 431 131 Q537 131 605 218 Q663 293 663 493 L663 1062 L811 1062 L811 0 L679 0 Z " />
<glyph glyph-name="v" unicode="v" horiz-adv-x="840" d="M352 0 L21 1062 L177 1062 L364 426 Q396 318 420 212 Q439 296 474 414 L668 1062 L820 1062 L490 0 L352 0 Z " />
<glyph glyph-name="w" unicode="w" horiz-adv-x="1212" d="M268 0 L2 1062 L155 1062 L293 449 L344 221 L390 440 L528 1062 L680 1062 L810 446 L854 243 L904 448 L1053 1062 L1197 1062 L924 0 L771 0 L632 636 L599 817 L423 0 L268 0 Z " />
<glyph glyph-name="x" unicode="x" horiz-adv-x="840" d="M12 0 L330 552 L36 1062 L220 1062 L354 813 Q391 744 415 694 Q452 762 481 811 L628 1062 L804 1062 L503 562 L827 0 L646 0 L467 330 L420 419 L191 0 L12 0 Z " />
<glyph glyph-name="y" unicode="y" horiz-adv-x="840" d="M104 -409 L88 -240 Q137 -256 172 -256 Q219 -256 249.5 -237 Q280 -218 300 -178 Q307 -164 358 -2 L27 1062 L186 1062 L368 447 Q402 332 431 201 Q456 325 491 443 L677 1062 L825 1062 L494 -18 Q429 -228 391.5 -298.5 Q354 -369 306.5 -400 Q259 -431 199 -431 Q157 -431 104 -409 Z " />
<glyph glyph-name="z" unicode="z" horiz-adv-x="840" d="M33 0 L33 146 L588 922 Q493 916 421 916 L66 916 L66 1062 L778 1062 L778 943 L306 269 L215 146 Q314 155 401 155 L804 155 L804 0 L33 0 Z " />
<glyph glyph-name="braceleft" unicode="&#x7b;" horiz-adv-x="561" d="M46 612 Q102 613 142 647.5 Q182 682 198.5 747.5 Q215 813 216 999 Q217 1181 223 1241 Q234 1338 273 1402 Q301 1449 348 1470 Q395 1491 475 1491 L521 1491 L521 1334 L495 1334 Q411 1334 382.5 1297.5 Q354 1261 354 1129 Q354 853 342 779 Q326 679 290 625.5 Q254 572 183 530 Q270 485 312 392 Q354 299 354 80 Q354 -141 361 -178 Q371 -231 398 -252.5 Q425 -274 495 -274 L521 -274 L521 -431 L475 -431 Q389 -431 346 -409.5 Q303 -388 276 -347 Q239 -291 228 -216 Q217 -141 216 61 Q215 247 198 313.5 Q181 380 142 413.5 Q103 447 46 449 L46 612 Z " />
<glyph glyph-name="bar" unicode="&#x7c;" horiz-adv-x="436" d="M156 -431 L156 1491 L285 1491 L285 -431 L156 -431 Z " />
<glyph glyph-name="braceright" unicode="&#x7d;" horiz-adv-x="561" d="M512 612 L512 449 Q455 447 415.5 413 Q376 379 359.5 312.5 Q343 246 342 61 Q341 -120 335 -179 Q324 -276 285 -341 Q257 -389 210 -410 Q163 -431 83 -431 L37 -431 L37 -274 L63 -274 Q146 -274 174.5 -237 Q203 -200 203 -68 Q203 209 216 285 Q233 384 272.5 441 Q312 498 375 530 Q281 585 242 675 Q203 765 203 980 Q203 1201 197 1239 Q187 1292 160 1313 Q133 1334 63 1334 L37 1334 L37 1491 L83 1491 Q169 1491 212 1469.5 Q255 1448 282 1407 Q319 1351 330 1276 Q341 1201 342 999 Q343 814 360 747 Q377 680 416 646.5 Q455 613 512 612 Z " />
<glyph glyph-name="asciitilde" unicode="&#x7e;" horiz-adv-x="981" d="M72 557 L72 762 Q159 882 300 882 Q346 882 400.5 865 Q455 848 557 795 Q648 748 699 748 Q748 748 794 776 Q859 817 911 885 L911 673 Q809 559 684 559 Q636 559 592 572 Q548 585 459 634 Q351 693 286 693 Q236 693 189 666 Q142 639 72 557 Z " />
<glyph glyph-name="Adieresis" unicode="&#xc4;" horiz-adv-x="1120" d="M-2 0 L460 1466 L631 1466 L1123 0 L941 0 L801 444 L299 444 L167 0 L-2 0 Z M345 602 L752 602 L627 1008 Q569 1195 542 1312 Q519 1171 477 1032 L345 602 Z M310 1642 L310 1847 L464 1847 L464 1642 L310 1642 Z M616 1642 L616 1847 L770 1847 L770 1642 L616 1642 Z " />
<glyph glyph-name="Aring" unicode="&#xc5;" horiz-adv-x="1120" d="M-2 0 L460 1466 L631 1466 L1123 0 L941 0 L801 444 L299 444 L167 0 L-2 0 Z M345 602 L752 602 L627 1008 Q569 1195 542 1312 Q519 1171 477 1032 L345 602 Z M414 1709 Q414 1784 458.5 1836 Q503 1888 562 1888 Q620 1888 664.5 1836 Q709 1784 709 1705 Q709 1625 665 1573.5 Q621 1522 562 1522 Q503 1522 458.5 1574 Q414 1626 414 1709 Z M477 1708 Q477 1659 503 1628 Q529 1597 563 1597 Q597 1597 623.5 1628 Q650 1659 650 1706 Q650 1753 624 1784 Q598 1815 564 1815 Q529 1815 503 1784 Q477 1753 477 1708 Z " />
<glyph glyph-name="Ccedilla" unicode="&#xc7;" horiz-adv-x="1212" d="M983 514 L1143 465 Q1090 218 957.5 96.5 Q825 -25 635 -25 Q468 -25 349.5 56.5 Q231 138 155.5 318 Q80 498 80 743 Q80 985 155.5 1152.5 Q231 1320 360 1405.5 Q489 1491 648 1491 Q822 1491 947 1382.5 Q1072 1274 1122 1064 L966 1019 Q886 1325 645 1325 Q525 1325 437 1263.5 Q349 1202 296.5 1072 Q244 942 244 743 Q244 442 350 291.5 Q456 141 632 141 Q762 141 856.5 233.5 Q951 326 983 514 Z M507 -154 L550 23 L660 23 L632 -84 Q700 -94 736.5 -135 Q773 -176 773 -234 Q773 -312 710.5 -366.5 Q648 -421 540 -421 Q469 -421 418 -409 L427 -292 Q480 -296 508 -296 Q575 -296 605.5 -275 Q636 -254 636 -221 Q636 -190 608.5 -172.5 Q581 -155 507 -154 Z " />
<glyph glyph-name="Eacute" unicode="&#xc9;" horiz-adv-x="1120" d="M133 0 L133 1466 L1002 1466 L1002 1293 L292 1293 L292 844 L957 844 L957 672 L292 672 L292 173 L1030 173 L1030 0 L133 0 Z M462 1566 L571 1846 L764 1846 L584 1566 L462 1566 Z " />
<glyph glyph-name="Ntilde" unicode="&#xd1;" horiz-adv-x="1212" d="M125 0 L125 1466 L288 1466 L920 315 L920 1466 L1072 1466 L1072 0 L909 0 L278 1152 L278 0 L125 0 Z M336 1568 Q335 1675 384 1736 Q432 1796 502 1796 Q554 1796 641 1742 Q689 1712 718 1712 Q745 1712 758.5 1729.5 Q772 1747 778 1799 L885 1799 Q882 1684 836.5 1627.5 Q791 1571 723 1571 Q673 1571 588 1627 Q533 1663 508 1663 Q481 1663 463 1639.5 Q445 1616 445 1568 L336 1568 Z " />
<glyph glyph-name="Odieresis" unicode="&#xd6;" horiz-adv-x="1307" d="M85 714 Q85 1089 250 1290.5 Q415 1492 661 1492 Q820 1492 951 1402 Q1082 1312 1158.5 1140.5 Q1235 969 1235 732 Q1235 406 1087 201 Q924 -25 660 -25 Q394 -25 232 207 Q85 417 85 714 Z M249 711 Q249 440 368.5 290.5 Q488 141 659 141 Q834 141 952.5 292 Q1071 443 1071 736 Q1071 925 1010 1074 Q963 1188 868.5 1256.5 Q774 1325 662 1325 Q482 1325 365.5 1175 Q249 1025 249 711 Z M412 1642 L412 1847 L566 1847 L566 1642 L412 1642 Z M718 1642 L718 1847 L872 1847 L872 1642 L718 1642 Z " />
<glyph glyph-name="Udieresis" unicode="&#xdc;" horiz-adv-x="1212" d="M915 1466 L1075 1466 L1075 619 Q1075 406 1033.5 269.5 Q992 133 882.5 54 Q773 -25 604 -25 Q366 -25 247.5 117 Q129 259 129 619 L129 1466 L288 1466 L288 620 Q288 421 319 332 Q350 243 420.5 196.5 Q491 150 592 150 Q762 150 838.5 246 Q915 342 915 620 L915 1466 Z M362 1642 L362 1847 L516 1847 L516 1642 L362 1642 Z M668 1642 L668 1847 L822 1847 L822 1642 L668 1642 Z " />
<glyph glyph-name="aacute" unicode="&#xe1;" horiz-adv-x="934" d="M676 131 Q602 54 522 15 Q442 -24 356 -24 Q220 -24 139 58 Q58 140 58 279 Q58 371 96 442 Q134 513 200 553 Q266 593 400 612 Q580 638 664 674 L665 720 Q665 829 626 873 Q571 937 457 937 Q354 937 303 894.5 Q252 852 228 735 L83 759 Q114 930 208.5 1008 Q303 1086 479 1086 Q616 1086 694 1034.5 Q772 983 792.5 907 Q813 831 813 685 L813 445 Q813 193 822.5 127.5 Q832 62 860 0 L706 0 Q683 55 676 131 Z M664 533 Q583 493 423 465 Q330 449 293 428.5 Q256 408 235.5 370.5 Q215 333 215 284 Q215 208 262 162.5 Q309 117 392 117 Q471 117 535.5 158 Q600 199 632 267.5 Q664 336 664 467 L664 533 Z M353 1194 L462 1474 L655 1474 L475 1194 L353 1194 Z " />
<glyph glyph-name="agrave" unicode="&#xe0;" horiz-adv-x="934" d="M676 131 Q602 54 522 15 Q442 -24 356 -24 Q220 -24 139 58 Q58 140 58 279 Q58 371 96 442 Q134 513 200 553 Q266 593 400 612 Q580 638 664 674 L665 720 Q665 829 626 873 Q571 937 457 937 Q354 937 303 894.5 Q252 852 228 735 L83 759 Q114 930 208.5 1008 Q303 1086 479 1086 Q616 1086 694 1034.5 Q772 983 792.5 907 Q813 831 813 685 L813 445 Q813 193 822.5 127.5 Q832 62 860 0 L706 0 Q683 55 676 131 Z M664 533 Q583 493 423 465 Q330 449 293 428.5 Q256 408 235.5 370.5 Q215 333 215 284 Q215 208 262 162.5 Q309 117 392 117 Q471 117 535.5 158 Q600 199 632 267.5 Q664 336 664 467 L664 533 Z M567 1194 L448 1194 L259 1474 L457 1474 L567 1194 Z " />
<glyph glyph-name="acircumflex" unicode="&#xe2;" horiz-adv-x="934" d="M676 131 Q602 54 522 15 Q442 -24 356 -24 Q220 -24 139 58 Q58 140 58 279 Q58 371 96 442 Q134 513 200 553 Q266 593 400 612 Q580 638 664 674 L665 720 Q665 829 626 873 Q571 937 457 937 Q354 937 303 894.5 Q252 852 228 735 L83 759 Q114 930 208.5 1008 Q303 1086 479 1086 Q616 1086 694 1034.5 Q772 983 792.5 907 Q813 831 813 685 L813 445 Q813 193 822.5 127.5 Q832 62 860 0 L706 0 Q683 55 676 131 Z M664 533 Q583 493 423 465 Q330 449 293 428.5 Q256 408 235.5 370.5 Q215 333 215 284 Q215 208 262 162.5 Q309 117 392 117 Q471 117 535.5 158 Q600 199 632 267.5 Q664 336 664 467 L664 533 Z M471 1364 L379 1194 L210 1194 L387 1474 L545 1474 L729 1194 L562 1194 L471 1364 Z " />
<glyph glyph-name="adieresis" unicode="&#xe4;" horiz-adv-x="934" d="M676 131 Q602 54 522 15 Q442 -24 356 -24 Q220 -24 139 58 Q58 140 58 279 Q58 371 96 442 Q134 513 200 553 Q266 593 400 612 Q580 638 664 674 L665 720 Q665 829 626 873 Q571 937 457 937 Q354 937 303 894.5 Q252 852 228 735 L83 759 Q114 930 208.5 1008 Q303 1086 479 1086 Q616 1086 694 1034.5 Q772 983 792.5 907 Q813 831 813 685 L813 445 Q813 193 822.5 127.5 Q832 62 860 0 L706 0 Q683 55 676 131 Z M664 533 Q583 493 423 465 Q330 449 293 428.5 Q256 408 235.5 370.5 Q215 333 215 284 Q215 208 262 162.5 Q309 117 392 117 Q471 117 535.5 158 Q600 199 632 267.5 Q664 336 664 467 L664 533 Z M224 1270 L224 1475 L378 1475 L378 1270 L224 1270 Z M530 1270 L530 1475 L684 1475 L684 1270 L530 1270 Z " />
<glyph glyph-name="atilde" unicode="&#xe3;" horiz-adv-x="934" d="M676 131 Q602 54 522 15 Q442 -24 356 -24 Q220 -24 139 58 Q58 140 58 279 Q58 371 96 442 Q134 513 200 553 Q266 593 400 612 Q580 638 664 674 L665 720 Q665 829 626 873 Q571 937 457 937 Q354 937 303 894.5 Q252 852 228 735 L83 759 Q114 930 208.5 1008 Q303 1086 479 1086 Q616 1086 694 1034.5 Q772 983 792.5 907 Q813 831 813 685 L813 445 Q813 193 822.5 127.5 Q832 62 860 0 L706 0 Q683 55 676 131 Z M664 533 Q583 493 423 465 Q330 449 293 428.5 Q256 408 235.5 370.5 Q215 333 215 284 Q215 208 262 162.5 Q309 117 392 117 Q471 117 535.5 158 Q600 199 632 267.5 Q664 336 664 467 L664 533 Z M182 1195 Q181 1302 230 1363 Q278 1423 348 1423 Q400 1423 487 1369 Q535 1339 564 1339 Q591 1339 604.5 1356.5 Q618 1374 624 1426 L731 1426 Q728 1311 682.5 1254.5 Q637 1198 569 1198 Q519 1198 434 1254 Q379 1290 354 1290 Q327 1290 309 1266.5 Q291 1243 291 1195 L182 1195 Z " />
<glyph glyph-name="aring" unicode="&#xe5;" horiz-adv-x="934" d="M676 131 Q602 54 522 15 Q442 -24 356 -24 Q220 -24 139 58 Q58 140 58 279 Q58 371 96 442 Q134 513 200 553 Q266 593 400 612 Q580 638 664 674 L665 720 Q665 829 626 873 Q571 937 457 937 Q354 937 303 894.5 Q252 852 228 735 L83 759 Q114 930 208.5 1008 Q303 1086 479 1086 Q616 1086 694 1034.5 Q772 983 792.5 907 Q813 831 813 685 L813 445 Q813 193 822.5 127.5 Q832 62 860 0 L706 0 Q683 55 676 131 Z M664 533 Q583 493 423 465 Q330 449 293 428.5 Q256 408 235.5 370.5 Q215 333 215 284 Q215 208 262 162.5 Q309 117 392 117 Q471 117 535.5 158 Q600 199 632 267.5 Q664 336 664 467 L664 533 Z M303 1382 Q303 1457 347.5 1509 Q392 1561 451 1561 Q509 1561 553.5 1509 Q598 1457 598 1378 Q598 1298 554 1246.5 Q510 1195 451 1195 Q392 1195 347.5 1247 Q303 1299 303 1382 Z M366 1381 Q366 1332 392 1301 Q418 1270 452 1270 Q486 1270 512.5 1301 Q539 1332 539 1379 Q539 1426 513 1457 Q487 1488 453 1488 Q418 1488 392 1457 Q366 1426 366 1381 Z " />
<glyph glyph-name="ccedilla" unicode="&#xe7;" horiz-adv-x="840" d="M679 389 L824 366 Q799 176 698.5 76 Q598 -24 457 -24 Q286 -24 175.5 116.5 Q65 257 65 532 Q65 809 176.5 947.5 Q288 1086 463 1086 Q598 1086 690.5 1002 Q783 918 809 750 L666 723 Q645 831 593 884.5 Q541 938 468 938 Q359 938 287.5 841.5 Q216 745 216 535 Q216 318 284.5 221 Q353 124 460 124 Q544 124 603.5 188.5 Q663 253 679 389 Z M369 -154 L412 23 L522 23 L494 -84 Q562 -94 598.5 -135 Q635 -176 635 -234 Q635 -312 572.5 -366.5 Q510 -421 402 -421 Q331 -421 280 -409 L289 -292 Q342 -296 370 -296 Q437 -296 467.5 -275 Q498 -254 498 -221 Q498 -190 470.5 -172.5 Q443 -155 369 -154 Z " />
<glyph glyph-name="eacute" unicode="&#xe9;" horiz-adv-x="934" d="M704 342 L856 319 Q818 149 718.5 62.5 Q619 -24 472 -24 Q287 -24 172.5 116.5 Q58 257 58 522 Q58 797 173.5 941.5 Q289 1086 466 1086 Q635 1086 748 944 Q861 802 861 533 L860 485 L210 485 Q219 306 293 215 Q367 124 473 124 Q639 124 704 342 Z M219 633 L705 633 Q695 771 646 839 Q575 938 465 938 Q366 938 296 855.5 Q226 773 219 633 Z M355 1194 L464 1474 L657 1474 L477 1194 L355 1194 Z " />
<glyph glyph-name="egrave" unicode="&#xe8;" horiz-adv-x="934" d="M704 342 L856 319 Q818 149 718.5 62.5 Q619 -24 472 -24 Q287 -24 172.5 116.5 Q58 257 58 522 Q58 797 173.5 941.5 Q289 1086 466 1086 Q635 1086 748 944 Q861 802 861 533 L860 485 L210 485 Q219 306 293 215 Q367 124 473 124 Q639 124 704 342 Z M219 633 L705 633 Q695 771 646 839 Q575 938 465 938 Q366 938 296 855.5 Q226 773 219 633 Z M585 1194 L466 1194 L277 1474 L475 1474 L585 1194 Z " />
<glyph glyph-name="ecircumflex" unicode="&#xea;" horiz-adv-x="934" d="M704 342 L856 319 Q818 149 718.5 62.5 Q619 -24 472 -24 Q287 -24 172.5 116.5 Q58 257 58 522 Q58 797 173.5 941.5 Q289 1086 466 1086 Q635 1086 748 944 Q861 802 861 533 L860 485 L210 485 Q219 306 293 215 Q367 124 473 124 Q639 124 704 342 Z M219 633 L705 633 Q695 771 646 839 Q575 938 465 938 Q366 938 296 855.5 Q226 773 219 633 Z M490 1364 L398 1194 L229 1194 L406 1474 L564 1474 L748 1194 L581 1194 L490 1364 Z " />
<glyph glyph-name="edieresis" unicode="&#xeb;" horiz-adv-x="934" d="M704 342 L856 319 Q818 149 718.5 62.5 Q619 -24 472 -24 Q287 -24 172.5 116.5 Q58 257 58 522 Q58 797 173.5 941.5 Q289 1086 466 1086 Q635 1086 748 944 Q861 802 861 533 L860 485 L210 485 Q219 306 293 215 Q367 124 473 124 Q639 124 704 342 Z M219 633 L705 633 Q695 771 646 839 Q575 938 465 938 Q366 938 296 855.5 Q226 773 219 633 Z M238 1270 L238 1475 L392 1475 L392 1270 L238 1270 Z M544 1270 L544 1475 L698 1475 L698 1270 L544 1270 Z " />
<glyph glyph-name="iacute" unicode="&#xed;" horiz-adv-x="467" d="M166 0 L166 1062 L313 1062 L313 0 L166 0 Z M129 1194 L238 1474 L431 1474 L251 1194 L129 1194 Z " />
<glyph glyph-name="igrave" unicode="&#xec;" horiz-adv-x="467" d="M166 0 L166 1062 L313 1062 L313 0 L166 0 Z M328 1194 L209 1194 L20 1474 L218 1474 L328 1194 Z " />
<glyph glyph-name="icircumflex" unicode="&#xee;" horiz-adv-x="467" d="M166 0 L166 1062 L313 1062 L313 0 L166 0 Z M247 1364 L155 1194 L-14 1194 L163 1474 L321 1474 L505 1194 L338 1194 L247 1364 Z " />
<glyph glyph-name="idieresis" unicode="&#xef;" horiz-adv-x="467" d="M166 0 L166 1062 L313 1062 L313 0 L166 0 Z M4 1270 L4 1475 L158 1475 L158 1270 L4 1270 Z M310 1270 L310 1475 L464 1475 L464 1270 L310 1270 Z " />
<glyph glyph-name="ntilde" unicode="&#xf1;" horiz-adv-x="934" d="M108 0 L108 1062 L241 1062 L241 911 Q289 999 358.5 1042.5 Q428 1086 518 1086 Q588 1086 647.5 1058.5 Q707 1031 743.5 986.5 Q780 942 798 871 Q816 800 816 653 L816 0 L668 0 L668 646 Q668 763 648 817 Q628 871 585.5 900.5 Q543 930 487 930 Q381 930 318 851 Q255 772 255 580 L255 0 L108 0 Z M209 1195 Q208 1302 257 1363 Q305 1423 375 1423 Q427 1423 514 1369 Q562 1339 591 1339 Q618 1339 631.5 1356.5 Q645 1374 651 1426 L758 1426 Q755 1311 709.5 1254.5 Q664 1198 596 1198 Q546 1198 461 1254 Q406 1290 381 1290 Q354 1290 336 1266.5 Q318 1243 318 1195 L209 1195 Z " />
<glyph glyph-name="oacute" unicode="&#xf3;" horiz-adv-x="934" d="M53 531 Q53 806 168.5 946 Q284 1086 461 1086 Q635 1086 752 946 Q869 806 869 542 Q869 256 754 116 Q639 -24 461 -24 Q286 -24 169.5 116.5 Q53 257 53 531 Z M204 531 Q204 325 279 224.5 Q354 124 465 124 Q569 124 643.5 225.5 Q718 327 718 531 Q718 736 643 836.5 Q568 937 457 937 Q352 937 278 836 Q204 735 204 531 Z M353 1194 L462 1474 L655 1474 L475 1194 L353 1194 Z " />
<glyph glyph-name="ograve" unicode="&#xf2;" horiz-adv-x="934" d="M53 531 Q53 806 168.5 946 Q284 1086 461 1086 Q635 1086 752 946 Q869 806 869 542 Q869 256 754 116 Q639 -24 461 -24 Q286 -24 169.5 116.5 Q53 257 53 531 Z M204 531 Q204 325 279 224.5 Q354 124 465 124 Q569 124 643.5 225.5 Q718 327 718 531 Q718 736 643 836.5 Q568 937 457 937 Q352 937 278 836 Q204 735 204 531 Z M575 1194 L456 1194 L267 1474 L465 1474 L575 1194 Z " />
<glyph glyph-name="ocircumflex" unicode="&#xf4;" horiz-adv-x="934" d="M53 531 Q53 806 168.5 946 Q284 1086 461 1086 Q635 1086 752 946 Q869 806 869 542 Q869 256 754 116 Q639 -24 461 -24 Q286 -24 169.5 116.5 Q53 257 53 531 Z M204 531 Q204 325 279 224.5 Q354 124 465 124 Q569 124 643.5 225.5 Q718 327 718 531 Q718 736 643 836.5 Q568 937 457 937 Q352 937 278 836 Q204 735 204 531 Z M461 1364 L369 1194 L200 1194 L377 1474 L535 1474 L719 1194 L552 1194 L461 1364 Z " />
<glyph glyph-name="odieresis" unicode="&#xf6;" horiz-adv-x="934" d="M53 531 Q53 806 168.5 946 Q284 1086 461 1086 Q635 1086 752 946 Q869 806 869 542 Q869 256 754 116 Q639 -24 461 -24 Q286 -24 169.5 116.5 Q53 257 53 531 Z M204 531 Q204 325 279 224.5 Q354 124 465 124 Q569 124 643.5 225.5 Q718 327 718 531 Q718 736 643 836.5 Q568 937 457 937 Q352 937 278 836 Q204 735 204 531 Z M224 1270 L224 1475 L378 1475 L378 1270 L224 1270 Z M530 1270 L530 1475 L684 1475 L684 1270 L530 1270 Z " />
<glyph glyph-name="otilde" unicode="&#xf5;" horiz-adv-x="934" d="M53 531 Q53 806 168.5 946 Q284 1086 461 1086 Q635 1086 752 946 Q869 806 869 542 Q869 256 754 116 Q639 -24 461 -24 Q286 -24 169.5 116.5 Q53 257 53 531 Z M204 531 Q204 325 279 224.5 Q354 124 465 124 Q569 124 643.5 225.5 Q718 327 718 531 Q718 736 643 836.5 Q568 937 457 937 Q352 937 278 836 Q204 735 204 531 Z M177 1195 Q176 1302 225 1363 Q273 1423 343 1423 Q395 1423 482 1369 Q530 1339 559 1339 Q586 1339 599.5 1356.5 Q613 1374 619 1426 L726 1426 Q723 1311 677.5 1254.5 Q632 1198 564 1198 Q514 1198 429 1254 Q374 1290 349 1290 Q322 1290 304 1266.5 Q286 1243 286 1195 L177 1195 Z " />
<glyph glyph-name="uacute" unicode="&#xfa;" horiz-adv-x="934" d="M679 0 L679 156 Q628 66 559 21 Q490 -24 403 -24 Q300 -24 227 31.5 Q154 87 129.5 172 Q105 257 105 404 L105 1062 L252 1062 L252 473 Q252 309 268.5 253.5 Q285 198 329.5 164.5 Q374 131 431 131 Q537 131 605 218 Q663 293 663 493 L663 1062 L811 1062 L811 0 L679 0 Z M353 1194 L462 1474 L655 1474 L475 1194 L353 1194 Z " />
<glyph glyph-name="ugrave" unicode="&#xf9;" horiz-adv-x="934" d="M679 0 L679 156 Q628 66 559 21 Q490 -24 403 -24 Q300 -24 227 31.5 Q154 87 129.5 172 Q105 257 105 404 L105 1062 L252 1062 L252 473 Q252 309 268.5 253.5 Q285 198 329.5 164.5 Q374 131 431 131 Q537 131 605 218 Q663 293 663 493 L663 1062 L811 1062 L811 0 L679 0 Z M521 1194 L402 1194 L213 1474 L411 1474 L521 1194 Z " />
<glyph glyph-name="ucircumflex" unicode="&#xfb;" horiz-adv-x="934" d="M679 0 L679 156 Q628 66 559 21 Q490 -24 403 -24 Q300 -24 227 31.5 Q154 87 129.5 172 Q105 257 105 404 L105 1062 L252 1062 L252 473 Q252 309 268.5 253.5 Q285 198 329.5 164.5 Q374 131 431 131 Q537 131 605 218 Q663 293 663 493 L663 1062 L811 1062 L811 0 L679 0 Z M467 1364 L375 1194 L206 1194 L383 1474 L541 1474 L725 1194 L558 1194 L467 1364 Z " />
<glyph glyph-name="udieresis" unicode="&#xfc;" horiz-adv-x="934" d="M679 0 L679 156 Q628 66 559 21 Q490 -24 403 -24 Q300 -24 227 31.5 Q154 87 129.5 172 Q105 257 105 404 L105 1062 L252 1062 L252 473 Q252 309 268.5 253.5 Q285 198 329.5 164.5 Q374 131 431 131 Q537 131 605 218 Q663 293 663 493 L663 1062 L811 1062 L811 0 L679 0 Z M232 1270 L232 1475 L386 1475 L386 1270 L232 1270 Z M538 1270 L538 1475 L692 1475 L692 1270 L538 1270 Z " />
<glyph glyph-name="dagger" unicode="&#x2020;" horiz-adv-x="934" d="M385 -346 L385 866 L57 866 L57 1026 L385 1026 L385 1432 L532 1432 L532 1026 L862 1026 L862 866 L532 866 L532 -346 L385 -346 Z " />
<glyph glyph-name="degree" unicode="&#xb0;" horiz-adv-x="819" d="M128 1214 Q128 1329 209.5 1410 Q291 1491 405 1491 Q521 1491 602 1410 Q683 1329 683 1214 Q683 1099 601.5 1017.5 Q520 936 405 936 Q291 936 209.5 1017 Q128 1098 128 1214 Z M237 1214 Q237 1144 286.5 1094.5 Q336 1045 406 1045 Q475 1045 524.5 1094.5 Q574 1144 574 1214 Q574 1284 524.5 1333.5 Q475 1383 406 1383 Q336 1383 286.5 1333.5 Q237 1284 237 1214 Z " />
<glyph glyph-name="cent" unicode="&#xa2;" horiz-adv-x="934" d="M608 894 L425 128 Q453 119 476 119 Q558 119 621.5 189.5 Q685 260 699 389 L846 369 Q818 179 715 75.5 Q612 -28 477 -28 Q438 -28 393 -14 L297 -409 L205 -377 L299 21 Q205 76 145 204.5 Q85 333 85 530 Q85 715 135 837 Q185 959 276.5 1022.5 Q368 1086 476 1086 Q504 1086 553 1079 L646 1466 L736 1434 L644 1047 Q795 970 829 750 L686 723 Q665 836 608 894 Z M520 940 Q495 943 480 943 Q376 943 306 845 Q236 747 236 538 Q236 269 338 177 L520 940 Z " />
<glyph glyph-name="sterling" unicode="&#xa3;" horiz-adv-x="934" d="M323 809 L581 809 L581 661 L348 661 Q364 617 364 575 Q364 486 329.5 388.5 Q295 291 218 191 Q283 213 336 213 Q404 213 489 188 Q629 147 680 147 Q740 147 837 203 L885 38 Q762 -26 688 -26 Q654 -26 618 -18 Q594 -12 511 19 Q425 51 398 57 Q361 66 327 66 Q195 66 77 -28 L20 145 Q106 202 157 302.5 Q208 403 208 537 Q208 598 195 661 L34 661 L34 809 L160 809 Q118 986 118 1073 Q118 1264 224.5 1377.5 Q331 1491 490 1491 Q634 1491 732.5 1394 Q831 1297 854 1112 L707 1085 Q694 1208 631.5 1275.5 Q569 1343 488 1343 Q400 1343 338 1274 Q276 1205 276 1098 Q276 987 323 809 Z " />
<glyph glyph-name="section" unicode="&#xa7;" horiz-adv-x="934" d="M114 -70 L263 -44 Q287 -176 338 -227.5 Q389 -279 472 -279 Q551 -279 600.5 -229 Q650 -179 650 -105 Q650 -76 640.5 -49 Q631 -22 611 2 Q552 77 342 234 Q188 349 142 414 Q64 522 64 644 Q64 744 114.5 820.5 Q165 897 248 927 Q196 989 169.5 1051 Q143 1113 143 1175 Q143 1310 229 1400.5 Q315 1491 448 1491 Q589 1491 678 1404.5 Q767 1318 785 1144 L632 1125 Q614 1249 570 1296 Q526 1343 454 1343 Q384 1343 335.5 1295.5 Q287 1248 287 1182 Q287 1154 298.5 1125.5 Q310 1097 332 1068 Q376 1010 568 868 Q733 744 782 680 Q855 584 855 464 Q855 356 800 278 Q764 227 668 178 Q734 117 766.5 47 Q799 -23 799 -103 Q799 -246 706.5 -338.5 Q614 -431 469 -431 Q323 -431 228.5 -338.5 Q134 -246 114 -70 Z M594 244 Q653 281 684 331 Q715 381 715 431 Q715 489 672.5 551 Q630 613 488 720 Q375 804 320 858 Q252 810 225 764 Q198 718 198 664 Q198 601 236 543.5 Q274 486 405 392 Q518 311 594 244 Z " />
<glyph glyph-name="bullet" unicode="&#x2022;" horiz-adv-x="588" d="M92 718 Q92 827 154.5 899 Q217 971 300 971 Q383 971 445 899 Q507 827 507 718 Q507 608 444.5 536 Q382 464 300 464 Q217 464 154.5 536.5 Q92 609 92 718 Z " />
<glyph glyph-name="paragraph" unicode="&#xb6;" horiz-adv-x="901" d="M337 -407 L337 638 Q189 647 97 755 Q5 863 5 1044 Q5 1177 53 1274 Q101 1371 185.5 1418.5 Q270 1466 393 1466 L911 1466 L911 1293 L794 1293 L794 -407 L654 -407 L654 1293 L472 1293 L472 -407 L337 -407 Z " />
<glyph glyph-name="germandbls" unicode="&#xdf;" horiz-adv-x="1026" d="M128 0 L128 999 Q128 1190 166.5 1286.5 Q205 1383 288.5 1437 Q372 1491 479 1491 Q612 1491 697 1408.5 Q782 1326 782 1206 Q782 1156 768.5 1102.5 Q755 1049 716 966 Q658 842 658 799 Q658 762 680 726 Q695 700 775 637 Q900 537 938 470 Q976 403 976 313 Q976 166 889 70.5 Q802 -25 677 -25 Q580 -25 500.5 38 Q421 101 379 216 L506 288 Q579 123 672 123 Q733 123 779 173.5 Q825 224 825 297 Q825 347 806 381 Q787 415 707 481 Q579 588 542.5 646 Q506 704 506 769 Q506 808 517 847 Q528 886 567 968 Q638 1119 638 1187 Q638 1252 591.5 1297.5 Q545 1343 475 1343 Q378 1343 326.5 1271 Q275 1199 275 991 L275 0 L128 0 Z " />
<glyph glyph-name="registered" unicode="&#xae;" horiz-adv-x="1237" d="M623 1491 Q886 1491 1064 1265 Q1242 1039 1242 736 Q1242 525 1154 348 Q1066 171 923.5 76.5 Q781 -18 623 -18 Q360 -18 182 207.5 Q4 433 4 736 Q4 948 92 1125 Q180 1302 322.5 1396.5 Q465 1491 623 1491 Z M623 1366 Q402 1366 249 1170 Q107 988 107 736 Q107 465 269 279 Q419 107 623 107 Q843 107 997 303 Q1139 484 1139 736 Q1139 1007 977 1193 Q827 1366 623 1366 Z M351 319 L351 1131 L581 1131 Q699 1131 749 1109 Q799 1087 832 1033 Q865 979 865 911 Q865 817 811.5 753.5 Q758 690 675 682 Q712 663 734 636 Q776 584 830 478 L910 319 L780 319 L720 447 Q652 594 611 634 Q580 664 523 664 L459 664 L459 319 L351 319 Z M459 776 L590 776 Q678 776 714.5 807.5 Q751 839 751 900 Q751 939 732.5 968 Q714 997 685 1009 Q656 1021 581 1021 L459 1021 L459 776 Z " />
<glyph glyph-name="copyright" unicode="&#xa9;" horiz-adv-x="1237" d="M623 1491 Q886 1491 1064 1265 Q1242 1039 1242 736 Q1242 525 1154 348 Q1066 171 923.5 76.5 Q781 -18 623 -18 Q360 -18 182 207.5 Q4 433 4 736 Q4 948 92 1125 Q180 1302 322.5 1396.5 Q465 1491 623 1491 Z M623 1366 Q402 1366 249 1170 Q107 988 107 736 Q107 465 269 279 Q419 107 623 107 Q843 107 997 303 Q1139 484 1139 736 Q1139 1007 977 1193 Q827 1366 623 1366 Z M822 614 L922 578 Q897 449 815.5 376.5 Q734 304 625 304 Q485 304 392.5 415 Q300 526 300 734 Q300 942 391.5 1051 Q483 1160 632 1160 Q735 1160 809 1098 Q883 1036 910 924 L812 895 Q787 971 738.5 1009.5 Q690 1048 628 1048 Q535 1048 473 967 Q411 886 411 727 Q411 575 470 498 Q529 421 617 421 Q689 421 746 471.5 Q803 522 822 614 Z " />
<glyph glyph-name="trademark" unicode="&#x2122;" horiz-adv-x="1679" d="M402 651 L402 1345 L185 1345 L185 1466 L731 1466 L731 1345 L513 1345 L513 651 L402 651 Z M806 651 L806 1466 L970 1466 L1139 815 L1302 1466 L1462 1466 L1462 651 L1361 651 L1361 1335 L1188 651 L1088 651 L908 1345 L908 651 L806 651 Z " />
<glyph glyph-name="acute" unicode="&#xb4;" horiz-adv-x="559" d="M182 1194 L291 1474 L484 1474 L304 1194 L182 1194 Z " />
<glyph glyph-name="dieresis" unicode="&#xa8;" horiz-adv-x="559" d="M50 1270 L50 1475 L204 1475 L204 1270 L50 1270 Z M356 1270 L356 1475 L510 1475 L510 1270 L356 1270 Z " />
<glyph glyph-name="notequal" unicode="&#x2260;" horiz-adv-x="1124" d="M495 417 L301 -28 L165 -28 L360 417 L78 417 L78 585 L434 585 L556 862 L78 862 L78 1030 L629 1030 L825 1474 L959 1474 L764 1030 L1046 1030 L1046 862 L690 862 L569 585 L1046 585 L1046 417 L495 417 Z " />
<glyph glyph-name="AE" unicode="&#xc6;" horiz-adv-x="1679" d="M1 0 L579 1466 L1566 1466 L1566 1293 L961 1293 L961 842 L1523 842 L1523 670 L961 670 L961 173 L1588 173 L1588 0 L802 0 L802 423 L337 423 L173 0 L1 0 Z M405 595 L802 595 L802 1293 L682 1293 L405 595 Z " />
<glyph glyph-name="Oslash" unicode="&#xd8;" horiz-adv-x="1307" d="M1029 1332 L1166 1520 L1248 1436 L1103 1238 Q1177 1104 1204.5 994 Q1232 884 1232 734 Q1232 494 1154 322.5 Q1076 151 944.5 63 Q813 -25 655 -25 Q553 -25 469.5 8.5 Q386 42 291 129 L153 -59 L72 25 L216 222 Q135 375 108.5 479 Q82 583 82 727 Q82 970 160.5 1144 Q239 1318 368 1404.5 Q497 1491 660 1491 Q763 1491 847.5 1456.5 Q932 1422 1029 1332 Z M930 1197 Q853 1273 794.5 1299 Q736 1325 660 1325 Q481 1325 363.5 1175.5 Q246 1026 246 730 Q246 619 261 541.5 Q276 464 319 362 L930 1197 Z M998 1094 L388 262 Q453 196 516.5 168.5 Q580 141 655 141 Q830 141 948.5 292 Q1067 443 1067 729 Q1067 935 998 1094 Z " />
<glyph glyph-name="infinity" unicode="&#x221e;" horiz-adv-x="1460" d="M689 812 Q794 944 853 986 Q933 1044 1022 1044 Q1127 1044 1218.5 968 Q1310 892 1310 723 Q1310 605 1276 537.5 Q1242 470 1170 429 Q1098 388 1022 388 Q933 388 853 445 Q794 488 689 620 Q553 449 400 449 Q299 449 226.5 525.5 Q154 602 154 716 Q154 829 226.5 906 Q299 983 400 983 Q553 983 689 812 Z M758 717 Q845 582 917 532 Q963 499 1020 499 Q1096 499 1147.5 555 Q1199 611 1199 713 Q1199 819 1146.5 875 Q1094 931 1016 931 Q967 931 924 903 Q866 864 758 717 Z M620 716 Q540 816 492 844.5 Q444 873 400 873 Q342 873 303.5 832 Q265 791 265 719 Q265 648 305 605.5 Q345 563 402 563 Q503 563 620 716 Z " />
<glyph glyph-name="plusminus" unicode="&#xb1;" horiz-adv-x="1124" d="M477 260 L477 663 L78 663 L78 830 L477 830 L477 1229 L647 1229 L647 830 L1046 830 L1046 663 L647 663 L647 260 L477 260 Z M1046 0 L78 0 L78 168 L1046 168 L1046 0 Z " />
<glyph glyph-name="lessequal" unicode="&#x2264;" horiz-adv-x="1124" d="M77 762 L77 930 L1048 1340 L1048 1160 L278 845 L1048 526 L1048 347 L77 762 Z M1046 106 L78 106 L78 273 L1046 273 L1046 106 Z " />
<glyph glyph-name="greaterequal" unicode="&#x2265;" horiz-adv-x="1124" d="M1048 762 L77 347 L77 526 L846 845 L77 1160 L77 1340 L1048 930 L1048 762 Z M1046 106 L78 106 L78 273 L1046 273 L1046 106 Z " />
<glyph glyph-name="yen" unicode="&#xa5;" horiz-adv-x="934" d="M389 0 L389 325 L48 325 L48 464 L389 464 L389 607 L48 607 L48 755 L328 755 L-5 1466 L159 1466 L397 950 Q438 860 459 796 Q477 848 527 959 L751 1466 L926 1466 L594 755 L874 755 L874 607 L536 607 L536 464 L874 464 L874 325 L536 325 L536 0 L389 0 Z " />
<glyph glyph-name="mu1" unicode="&#xb5;" horiz-adv-x="1180" d="M1018 1062 L1018 0 L857 0 L857 126 Q805 46 754 16 Q684 -25 591 -25 Q508 -25 444 8 Q396 33 338 107 L338 -407 L160 -407 L160 1062 L338 1062 L338 612 Q338 367 364 294.5 Q390 222 448.5 180 Q507 138 583 138 Q663 138 726 182 Q789 226 815 295.5 Q841 365 841 609 L841 1062 L1018 1062 Z " />
<glyph glyph-name="partialdiff" unicode="&#x2202;" horiz-adv-x="1012" d="M426 1138 L291 1198 Q361 1355 459 1423 Q557 1491 651 1491 Q727 1491 788.5 1451.5 Q850 1412 881 1361 Q928 1282 950.5 1174 Q973 1066 973 926 Q973 638 886.5 413.5 Q800 189 653 82 Q506 -25 364 -25 Q227 -25 141.5 66 Q56 157 56 322 Q56 548 209 709 Q406 916 858 924 Q854 1092 834 1180 Q814 1268 766 1315.5 Q718 1363 653 1363 Q591 1363 532 1313.5 Q473 1264 426 1138 Z M854 796 Q610 782 496.5 728 Q383 674 309.5 551.5 Q236 429 236 303 Q236 220 287 166 Q338 112 406 112 Q481 112 566 167 Q683 243 756.5 401.5 Q830 560 854 796 Z " />
<glyph glyph-name="summation" unicode="&#x2211;" horiz-adv-x="1460" d="M139 1491 L1376 1491 L1376 1327 L388 1327 L995 552 L346 -270 L1386 -270 L1386 -431 L122 -431 L122 -244 L742 544 L139 1316 L139 1491 Z " />
<glyph glyph-name="product" unicode="&#x220f;" horiz-adv-x="1686" d="M161 1491 L1523 1491 L1523 -431 L1332 -431 L1332 1317 L354 1317 L354 -431 L161 -431 L161 1491 Z " />
<glyph glyph-name="integral" unicode="&#x222b;" horiz-adv-x="561" d="M201 948 L218 1479 Q227 1632 268 1733 Q295 1798 342.5 1830.5 Q390 1863 435 1863 Q485 1863 522.5 1829.5 Q560 1796 560 1756 Q560 1709 533.5 1680.5 Q507 1652 468 1652 Q433 1652 392 1688 Q369 1708 352 1708 Q335 1708 323.5 1693.5 Q312 1679 312 1644 Q312 1602 321 1499 Q358 1089 358 834 Q358 767 342 246 Q334 -49 252 -153 Q198 -220 118 -220 Q66 -220 33 -186 Q0 -152 0 -99 Q0 -54 25.5 -27 Q51 0 90 0 Q130 0 159 -32 Q188 -64 208 -64 Q225 -64 236 -50 Q247 -36 247 -3 Q247 39 238 117 Q201 432 201 948 Z " />
<glyph glyph-name="ordfeminine" unicode="&#xaa;" horiz-adv-x="621" d="M453 853 Q353 746 243 746 Q156 746 99 805 Q42 864 42 964 Q42 1048 81 1098 Q120 1148 190 1167 L363 1201 Q423 1215 442 1221 Q441 1306 420 1332 Q386 1374 314 1374 Q192 1374 177 1249 L64 1283 Q75 1378 140 1434.5 Q205 1491 316 1491 Q443 1491 502 1433 Q560 1374 560 1249 L560 1009 L559 950 Q559 815 592 764 L471 764 Q455 804 453 853 Z M440 1104 Q397 1090 283 1068 Q212 1055 191 1034 Q164 1006 164 964 Q164 921 193.5 893.5 Q223 866 269 866 Q326 866 371 902 Q416 938 433 997 Q440 1020 440 1104 Z " />
<glyph glyph-name="ordmasculine" unicode="&#xba;" horiz-adv-x="612" d="M306 1491 Q421 1491 492 1401 Q575 1295 575 1115 Q575 936 492 829 Q422 740 306 740 Q191 740 114 836 Q37 932 37 1111 Q37 1295 120 1401 Q190 1491 306 1491 Z M306 1358 Q240 1358 199.5 1301 Q159 1244 159 1114 Q159 988 200.5 930 Q242 872 307 872 Q371 872 412.5 930 Q454 988 454 1116 Q454 1242 412 1300 Q370 1358 306 1358 Z " />
<glyph glyph-name="Ohm" unicode="&#x2126;" horiz-adv-x="1573" d="M496 160 Q388 227 331 290 Q244 386 197 515.5 Q150 645 150 802 Q150 998 229.5 1162.5 Q309 1327 460.5 1415 Q612 1503 808 1503 Q1144 1503 1324 1249 Q1455 1063 1455 801 Q1455 633 1401 503.5 Q1347 374 1260 281 Q1207 223 1111 160 L1475 166 L1475 0 L900 0 L900 177 Q980 217 1024 255 Q1096 316 1146 400 Q1196 484 1221.5 579 Q1247 674 1247 777 Q1247 915 1197.5 1054.5 Q1148 1194 1047.5 1267 Q947 1340 804 1340 Q613 1340 508 1220 Q362 1051 362 780 Q362 563 453 407.5 Q544 252 704 180 L704 0 L127 0 L127 168 L496 160 Z " />
<glyph glyph-name="ae" unicode="&#xe6;" horiz-adv-x="1493" d="M1419 325 Q1377 152 1277.5 64 Q1178 -24 1035 -24 Q934 -24 855 23 Q776 70 711 174 Q547 -24 349 -24 Q216 -24 134.5 61 Q53 146 53 279 Q53 369 94 442.5 Q135 516 204.5 555 Q274 594 438 620 Q561 640 645 669 L646 710 Q646 839 601.5 888 Q557 937 453 937 Q344 937 293.5 895 Q243 853 220 733 L77 754 Q111 932 202.5 1009 Q294 1086 457 1086 Q578 1086 649 1050 Q720 1014 755 943 Q863 1086 1034 1086 Q1146 1086 1230 1027 Q1314 968 1368 839 Q1422 710 1422 545 L1421 485 L792 485 Q793 337 821.5 272 Q850 207 911.5 165.5 Q973 124 1044 124 Q1124 124 1183.5 182 Q1243 240 1265 349 L1419 325 Z M792 633 L1271 633 Q1259 793 1195 865 Q1131 937 1036 937 Q934 937 867 859 Q800 781 792 633 Z M647 533 Q582 498 384 460 Q294 443 259 410 Q209 362 209 286 Q209 211 254.5 164.5 Q300 118 378 118 Q473 118 544 175 Q615 232 636 321 Q648 371 647 533 Z " />
<glyph glyph-name="oslash" unicode="&#xf8;" horiz-adv-x="1026" d="M761 999 L842 1127 L921 1057 L833 919 Q886 830 905 756 Q929 659 929 531 Q929 254 813 115 Q697 -24 514 -24 Q389 -24 289 56 L203 -79 L126 -8 L215 133 Q162 207 143 281 Q113 392 113 516 Q113 802 228 944 Q343 1086 518 1086 Q581 1086 637 1066.5 Q693 1047 761 999 Z M678 867 Q603 937 521 937 Q415 937 339.5 836 Q264 735 264 535 Q264 382 307 280 L678 867 Z M739 770 L372 187 Q435 124 516 124 Q628 124 703 224.5 Q778 325 778 534 Q778 607 770 656 Q762 705 739 770 Z " />
<glyph glyph-name="questiondown" unicode="&#xbf;" horiz-adv-x="1026" d="M604 1062 L604 857 L436 857 L436 1062 L604 1062 Z M595 701 L596 650 Q596 505 549 408 Q515 337 405 219 Q330 139 307 90 Q284 41 284 -17 Q284 -128 354 -204.5 Q424 -281 516 -281 Q608 -281 672.5 -210 Q737 -139 757 15 L908 -6 Q887 -217 783 -323 Q679 -429 517 -429 Q353 -429 243 -317 Q133 -205 133 -30 Q133 67 169 147 Q205 227 314 344 Q405 443 428 501 Q451 559 453 701 L595 701 Z " />
<glyph glyph-name="exclamdown" unicode="&#xa1;" horiz-adv-x="559" d="M364 1062 L364 857 L195 857 L195 1062 L364 1062 Z M326 697 L371 -79 L371 -404 L188 -404 L188 -79 L230 697 L326 697 Z " />
<glyph glyph-name="logicalnot" unicode="&#xac;" horiz-adv-x="981" d="M886 424 L746 424 L746 862 L92 862 L92 1030 L886 1030 L886 424 Z " />
<glyph glyph-name="radical" unicode="&#x221a;" horiz-adv-x="1124" d="M1050 1869 L1124 1869 L812 -78 L316 943 L118 852 L84 916 L385 1067 L790 244 L1050 1869 Z " />
<glyph glyph-name="florin" unicode="&#x192;" horiz-adv-x="934" d="M35 -405 L63 -250 Q146 -272 188 -272 Q232 -272 256 -244 Q280 -216 293 -120 L438 922 L274 922 L293 1062 L458 1062 L478 1195 Q498 1330 525.5 1383.5 Q553 1437 599.5 1464.5 Q646 1492 711 1492 Q776 1492 887 1454 L858 1301 Q774 1325 733 1325 Q686 1325 663 1297 Q640 1269 625 1165 L609 1062 L776 1062 L756 922 L588 922 L432 -170 Q410 -320 359.5 -375.5 Q309 -431 219 -431 Q141 -431 35 -405 Z " />
<glyph glyph-name="approxequal" unicode="&#x2248;" horiz-adv-x="1124" d="M51 738 L51 943 Q157 1063 329 1063 Q389 1063 454.5 1046 Q520 1029 643 976 Q712 946 746.5 937.5 Q781 929 816 929 Q881 929 950.5 968 Q1020 1007 1074 1066 L1074 854 Q1010 794 944.5 767 Q879 740 797 740 Q737 740 683 753.5 Q629 767 510 820 Q391 874 312 874 Q248 874 191.5 846.5 Q135 819 51 738 Z M51 376 L51 581 Q157 701 329 701 Q389 701 454.5 684 Q520 667 643 614 Q712 585 746.5 576 Q781 567 816 567 Q881 567 950.5 606 Q1020 645 1074 704 L1074 492 Q1010 432 944.5 405 Q879 378 797 378 Q737 378 683 392 Q629 406 510 459 Q391 512 312 512 Q248 512 191.5 484.5 Q135 457 51 376 Z " />
<glyph glyph-name="increment" unicode="&#x2206;" horiz-adv-x="1253" d="M1226 0 L26 0 L654 1387 L1226 0 Z M990 82 L591 1049 L151 82 L990 82 Z " />
<glyph glyph-name="guillemotleft" unicode="&#xab;" horiz-adv-x="934" d="M276 528 L489 72 L368 72 L107 528 L368 984 L490 984 L276 528 Z M593 528 L809 72 L685 72 L428 528 L685 984 L809 984 L593 528 Z " />
<glyph glyph-name="guillemotright" unicode="&#xbb;" horiz-adv-x="934" d="M646 528 L432 984 L553 984 L814 528 L553 72 L433 72 L646 528 Z M328 528 L112 984 L236 984 L493 528 L236 72 L112 72 L328 528 Z " />
<glyph glyph-name="ellipsis" unicode="&#x2026;" horiz-adv-x="1679" d="M196 0 L196 205 L364 205 L364 0 L196 0 Z M756 0 L756 205 L924 205 L924 0 L756 0 Z M1316 0 L1316 205 L1484 205 L1484 0 L1316 0 Z " />
<glyph glyph-name="Agrave" unicode="&#xc0;" horiz-adv-x="1120" d="M-2 0 L460 1466 L631 1466 L1123 0 L941 0 L801 444 L299 444 L167 0 L-2 0 Z M345 602 L752 602 L627 1008 Q569 1195 542 1312 Q519 1171 477 1032 L345 602 Z M654 1566 L535 1566 L346 1846 L544 1846 L654 1566 Z " />
<glyph glyph-name="Atilde" unicode="&#xc3;" horiz-adv-x="1120" d="M-2 0 L460 1466 L631 1466 L1123 0 L941 0 L801 444 L299 444 L167 0 L-2 0 Z M345 602 L752 602 L627 1008 Q569 1195 542 1312 Q519 1171 477 1032 L345 602 Z M260 1568 Q259 1675 308 1736 Q356 1796 426 1796 Q478 1796 565 1742 Q613 1712 642 1712 Q669 1712 682.5 1729.5 Q696 1747 702 1799 L809 1799 Q806 1684 760.5 1627.5 Q715 1571 647 1571 Q597 1571 512 1627 Q457 1663 432 1663 Q405 1663 387 1639.5 Q369 1616 369 1568 L260 1568 Z " />
<glyph glyph-name="Otilde" unicode="&#xd5;" horiz-adv-x="1307" d="M85 714 Q85 1089 250 1290.5 Q415 1492 661 1492 Q820 1492 951 1402 Q1082 1312 1158.5 1140.5 Q1235 969 1235 732 Q1235 406 1087 201 Q924 -25 660 -25 Q394 -25 232 207 Q85 417 85 714 Z M249 711 Q249 440 368.5 290.5 Q488 141 659 141 Q834 141 952.5 292 Q1071 443 1071 736 Q1071 925 1010 1074 Q963 1188 868.5 1256.5 Q774 1325 662 1325 Q482 1325 365.5 1175 Q249 1025 249 711 Z M380 1568 Q379 1675 428 1736 Q476 1796 546 1796 Q598 1796 685 1742 Q733 1712 762 1712 Q789 1712 802.5 1729.5 Q816 1747 822 1799 L929 1799 Q926 1684 880.5 1627.5 Q835 1571 767 1571 Q717 1571 632 1627 Q577 1663 552 1663 Q525 1663 507 1639.5 Q489 1616 489 1568 L380 1568 Z " />
<glyph glyph-name="OE" unicode="&#x152;" horiz-adv-x="1679" d="M1626 173 L1626 0 L919 0 L919 212 Q864 94 782.5 34.5 Q701 -25 593 -25 Q382 -25 256 147 Q106 353 106 736 Q106 992 173 1166 Q240 1340 344 1415.5 Q448 1491 593 1491 Q701 1491 782.5 1435.5 Q864 1380 919 1268 L919 1466 L1601 1466 L1601 1293 L1068 1293 L1068 845 L1559 845 L1559 673 L1068 673 L1068 173 L1626 173 Z M590 1334 Q459 1334 364.5 1192.5 Q270 1051 270 733 Q270 416 365 273.5 Q460 131 594 131 Q722 131 816 273.5 Q910 416 910 733 Q910 1049 815.5 1191.5 Q721 1334 590 1334 Z " />
<glyph glyph-name="oe" unicode="&#x153;" horiz-adv-x="1585" d="M805 175 Q743 76 661.5 26 Q580 -24 479 -24 Q301 -24 185.5 116 Q70 256 70 520 Q70 708 123 834.5 Q176 961 269 1023.5 Q362 1086 483 1086 Q590 1086 676 1031 Q762 976 805 883 Q860 981 943 1033.5 Q1026 1086 1123 1086 Q1300 1086 1414 937.5 Q1528 789 1525 483 L883 483 Q886 312 961 218 Q1036 124 1142 124 Q1221 124 1281 179 Q1341 234 1367 346 L1514 320 Q1477 149 1378.5 62.5 Q1280 -24 1138 -24 Q1031 -24 943.5 28 Q856 80 805 175 Z M221 533 Q221 340 286 240 Q361 124 481 124 Q581 124 657 229.5 Q733 335 733 536 Q733 735 657 836.5 Q581 938 473 938 Q358 938 289.5 825 Q221 712 221 533 Z M888 631 L1370 631 Q1360 785 1294 861.5 Q1228 938 1133 938 Q1037 938 967 858 Q897 778 888 631 Z " />
<glyph glyph-name="endash" unicode="&#x2013;" horiz-adv-x="934" d="M-6 458 L-6 603 L928 603 L928 458 L-6 458 Z " />
<glyph glyph-name="emdash" unicode="&#x2014;" horiz-adv-x="1679" d="M0 458 L0 603 L1679 603 L1679 458 L0 458 Z " />
<glyph glyph-name="quotedblleft" unicode="&#x201c;" horiz-adv-x="559" d="M481 1195 L481 986 L322 986 L322 1151 Q322 1292 356 1360 Q390 1428 457 1466 L494 1395 Q452 1374 429 1330 Q406 1286 403 1195 L481 1195 Z M226 1195 L226 986 L68 986 L68 1151 Q68 1292 101.5 1360 Q135 1428 203 1466 L240 1395 Q198 1374 175 1330.5 Q152 1287 149 1195 L226 1195 Z " />
<glyph glyph-name="quotedblright" unicode="&#x201d;" horiz-adv-x="559" d="M71 1256 L71 1466 L230 1466 L230 1301 Q230 1159 196 1091 Q162 1023 94 986 L58 1056 Q144 1100 148 1256 L71 1256 Z M325 1256 L325 1466 L484 1466 L484 1301 Q484 1159 450.5 1091 Q417 1023 349 986 L312 1056 Q353 1077 376.5 1122 Q400 1167 403 1256 L325 1256 Z " />
<glyph glyph-name="quoteleft" unicode="&#x2018;" horiz-adv-x="373" d="M260 1195 L260 986 L102 986 L102 1151 Q102 1292 135.5 1360 Q169 1428 237 1466 L274 1395 Q232 1374 209 1330.5 Q186 1287 183 1195 L260 1195 Z " />
<glyph glyph-name="quoteright" unicode="&#x2019;" horiz-adv-x="373" d="M98 1256 L98 1466 L257 1466 L257 1301 Q257 1159 223 1091 Q189 1023 121 986 L85 1056 Q171 1100 175 1256 L98 1256 Z " />
<glyph glyph-name="divide" unicode="&#xf7;" horiz-adv-x="1124" d="M459 922 L459 1127 L664 1127 L664 922 L459 922 Z M1046 639 L78 639 L78 807 L1046 807 L1046 639 Z M459 319 L459 524 L664 524 L664 319 L459 319 Z " />
<glyph glyph-name="lozenge" unicode="&#x25ca;" horiz-adv-x="1012" d="M549 1422 L967 709 L549 0 L438 0 L47 709 L438 1422 L549 1422 Z M495 1325 L155 709 L495 94 L854 709 L495 1325 Z " />
<glyph glyph-name="ydieresis" unicode="&#xff;" horiz-adv-x="840" d="M104 -409 L88 -240 Q137 -256 172 -256 Q219 -256 249.5 -237 Q280 -218 300 -178 Q307 -164 358 -2 L27 1062 L186 1062 L368 447 Q402 332 431 201 Q456 325 491 443 L677 1062 L825 1062 L494 -18 Q429 -228 391.5 -298.5 Q354 -369 306.5 -400 Q259 -431 199 -431 Q157 -431 104 -409 Z M186 1270 L186 1475 L340 1475 L340 1270 L186 1270 Z M492 1270 L492 1475 L646 1475 L646 1270 L492 1270 Z " />
<glyph glyph-name="Ydieresis" unicode="&#x178;" horiz-adv-x="1120" d="M468 0 L468 621 L5 1466 L199 1466 L435 1024 Q505 893 558 776 Q611 891 689 1035 L922 1466 L1107 1466 L627 621 L627 0 L468 0 Z M319 1642 L319 1847 L473 1847 L473 1642 L319 1642 Z M625 1642 L625 1847 L779 1847 L779 1642 L625 1642 Z " />
<glyph glyph-name="&amp;#x2044;" unicode="&#x2044;" horiz-adv-x="281" d="M-373 -57 L530 1491 L658 1491 L-244 -57 L-373 -57 Z " />
<glyph glyph-name="&amp;#x2215;" unicode="&#x2215;" horiz-adv-x="281" d="M-373 -57 L530 1491 L658 1491 L-244 -57 L-373 -57 Z " />
<glyph glyph-name="Euro" unicode="&#x20ac;" horiz-adv-x="934" d="M874 1225 Q772 1325 641 1325 Q498 1325 392 1220.5 Q286 1116 262 936 L821 936 L799 801 L248 801 L248 670 L776 670 L754 535 L266 535 Q294 345 393.5 243 Q493 141 641 141 Q784 141 874 240 L874 33 Q774 -25 643 -25 Q198 -25 102 535 L-23 535 L0 670 L86 670 Q84 694 84 731 L84 801 L-23 801 L0 936 L96 936 Q136 1199 286.5 1345 Q437 1491 653 1491 Q797 1491 909 1409 L874 1225 Z " />
<glyph glyph-name="guilsinglleft" unicode="&#x2039;" horiz-adv-x="559" d="M238 527 L455 72 L333 72 L75 527 L333 984 L455 984 L238 527 Z " />
<glyph glyph-name="guilsinglright" unicode="&#x203a;" horiz-adv-x="559" d="M320 530 L103 984 L225 984 L483 530 L225 72 L103 72 L320 530 Z " />
<glyph glyph-name="fi" unicode="&#xfb01;" horiz-adv-x="840" d="M150 0 L150 923 L19 923 L19 1062 L150 1062 L150 1165 Q150 1338 212 1414.5 Q274 1491 383 1491 Q464 1491 533 1468 L509 1316 Q466 1325 430 1325 Q354 1325 326 1288.5 Q298 1252 298 1131 L298 1062 L467 1062 L467 923 L298 923 L298 0 L150 0 Z M578 1259 L578 1466 L725 1466 L725 1259 L578 1259 Z M578 0 L578 1062 L725 1062 L725 0 L578 0 Z " />
<glyph glyph-name="fl" unicode="&#xfb02;" horiz-adv-x="840" d="M149 0 L149 923 L18 923 L18 1062 L149 1062 L149 1165 Q149 1338 211 1414.5 Q273 1491 382 1491 Q463 1491 532 1468 L508 1316 Q465 1325 429 1325 Q353 1325 325 1288.5 Q297 1252 297 1131 L297 1062 L466 1062 L466 923 L297 923 L297 0 L149 0 Z M576 0 L576 1466 L723 1466 L723 0 L576 0 Z " />
<glyph glyph-name="daggerdbl" unicode="&#x2021;" horiz-adv-x="934" d="M387 -346 L387 24 L57 24 L57 185 L387 185 L387 910 L57 910 L57 1071 L387 1071 L387 1446 L534 1446 L534 1071 L865 1071 L865 910 L534 910 L534 185 L865 185 L865 24 L534 24 L534 -346 L387 -346 Z " />
<glyph glyph-name="periodcentered" unicode="&#x2219;" horiz-adv-x="467" d="M155 619 L155 824 L323 824 L323 619 L155 619 Z " />
<glyph glyph-name="quotesinglbase" unicode="&#x201a;" horiz-adv-x="373" d="M98 0 L98 209 L257 209 L257 44 Q257 -97 223 -165 Q189 -233 121 -271 L85 -200 Q171 -156 175 0 L98 0 Z " />
<glyph glyph-name="quotedblbase" unicode="&#x201e;" horiz-adv-x="559" d="M71 0 L71 209 L230 209 L230 44 Q230 -97 196 -165 Q162 -233 94 -271 L58 -200 Q144 -156 148 0 L71 0 Z M325 0 L325 209 L484 209 L484 44 Q484 -97 450.5 -165 Q417 -233 349 -271 L312 -200 Q353 -179 376.5 -134 Q400 -89 403 0 L325 0 Z " />
<glyph glyph-name="perthousand" unicode="&#x2030;" horiz-adv-x="1679" d="M262 -54 L755 1491 L863 1491 L370 -54 L262 -54 Z M30 1099 Q30 1298 95.5 1388.5 Q161 1479 263 1479 Q368 1479 434.5 1388 Q501 1297 501 1091 Q501 887 436 797.5 Q371 708 267 708 Q164 708 97 800.5 Q30 893 30 1099 Z M152 1091 Q152 941 184 887 Q216 833 272 833 Q319 833 346 880 Q380 942 380 1093 Q380 1244 348 1299.5 Q316 1355 264 1355 Q214 1355 187 1306 Q152 1243 152 1091 Z M625 336 Q625 536 690.5 626 Q756 716 858 716 Q963 716 1029.5 625 Q1096 534 1096 328 Q1096 124 1031 35 Q966 -54 862 -54 Q759 -54 692 38.5 Q625 131 625 336 Z M747 328 Q747 178 778.5 124 Q810 70 867 70 Q914 70 944.5 124.5 Q975 179 975 331 Q975 482 943 537 Q911 592 858 592 Q809 592 782 544 Q747 480 747 328 Z M1178 336 Q1178 536 1243.5 626 Q1309 716 1411 716 Q1516 716 1582.5 625 Q1649 534 1649 328 Q1649 124 1584 35 Q1519 -54 1415 -54 Q1312 -54 1245 38.5 Q1178 131 1178 336 Z M1300 328 Q1300 178 1332 124 Q1364 70 1420 70 Q1467 70 1497.5 124.5 Q1528 179 1528 331 Q1528 482 1496 537 Q1464 592 1412 592 Q1362 592 1335 544 Q1300 480 1300 328 Z " />
<glyph glyph-name="Acircumflex" unicode="&#xc2;" horiz-adv-x="1120" d="M-2 0 L460 1466 L631 1466 L1123 0 L941 0 L801 444 L299 444 L167 0 L-2 0 Z M345 602 L752 602 L627 1008 Q569 1195 542 1312 Q519 1171 477 1032 L345 602 Z M546 1737 L454 1567 L285 1567 L462 1847 L620 1847 L804 1567 L637 1567 L546 1737 Z " />
<glyph glyph-name="Ecircumflex" unicode="&#xca;" horiz-adv-x="1120" d="M133 0 L133 1466 L1002 1466 L1002 1293 L292 1293 L292 844 L957 844 L957 672 L292 672 L292 173 L1030 173 L1030 0 L133 0 Z M573 1737 L481 1567 L312 1567 L489 1847 L647 1847 L831 1567 L664 1567 L573 1737 Z " />
<glyph glyph-name="Aacute" unicode="&#xc1;" horiz-adv-x="1120" d="M-2 0 L460 1466 L631 1466 L1123 0 L941 0 L801 444 L299 444 L167 0 L-2 0 Z M345 602 L752 602 L627 1008 Q569 1195 542 1312 Q519 1171 477 1032 L345 602 Z M391 1566 L500 1846 L693 1846 L513 1566 L391 1566 Z " />
<glyph glyph-name="Edieresis" unicode="&#xcb;" horiz-adv-x="1120" d="M133 0 L133 1466 L1002 1466 L1002 1293 L292 1293 L292 844 L957 844 L957 672 L292 672 L292 173 L1030 173 L1030 0 L133 0 Z M334 1642 L334 1847 L488 1847 L488 1642 L334 1642 Z M640 1642 L640 1847 L794 1847 L794 1642 L640 1642 Z " />
<glyph glyph-name="Egrave" unicode="&#xc8;" horiz-adv-x="1120" d="M133 0 L133 1466 L1002 1466 L1002 1293 L292 1293 L292 844 L957 844 L957 672 L292 672 L292 173 L1030 173 L1030 0 L133 0 Z M653 1566 L534 1566 L345 1846 L543 1846 L653 1566 Z " />
<glyph glyph-name="Iacute" unicode="&#xcd;" horiz-adv-x="467" d="M160 0 L160 1466 L319 1466 L319 0 L160 0 Z M150 1566 L259 1846 L452 1846 L272 1566 L150 1566 Z " />
<glyph glyph-name="Icircumflex" unicode="&#xce;" horiz-adv-x="467" d="M160 0 L160 1466 L319 1466 L319 0 L160 0 Z M237 1737 L145 1567 L-24 1567 L153 1847 L311 1847 L495 1567 L328 1567 L237 1737 Z " />
<glyph glyph-name="Idieresis" unicode="&#xcf;" horiz-adv-x="467" d="M160 0 L160 1466 L319 1466 L319 0 L160 0 Z M10 1642 L10 1847 L164 1847 L164 1642 L10 1642 Z M316 1642 L316 1847 L470 1847 L470 1642 L316 1642 Z " />
<glyph glyph-name="Igrave" unicode="&#xcc;" horiz-adv-x="467" d="M160 0 L160 1466 L319 1466 L319 0 L160 0 Z M357 1566 L238 1566 L49 1846 L247 1846 L357 1566 Z " />
<glyph glyph-name="Oacute" unicode="&#xd3;" horiz-adv-x="1307" d="M85 714 Q85 1089 250 1290.5 Q415 1492 661 1492 Q820 1492 951 1402 Q1082 1312 1158.5 1140.5 Q1235 969 1235 732 Q1235 406 1087 201 Q924 -25 660 -25 Q394 -25 232 207 Q85 417 85 714 Z M249 711 Q249 440 368.5 290.5 Q488 141 659 141 Q834 141 952.5 292 Q1071 443 1071 736 Q1071 925 1010 1074 Q963 1188 868.5 1256.5 Q774 1325 662 1325 Q482 1325 365.5 1175 Q249 1025 249 711 Z M521 1566 L630 1846 L823 1846 L643 1566 L521 1566 Z " />
<glyph glyph-name="Ocircumflex" unicode="&#xd4;" horiz-adv-x="1307" d="M85 714 Q85 1089 250 1290.5 Q415 1492 661 1492 Q820 1492 951 1402 Q1082 1312 1158.5 1140.5 Q1235 969 1235 732 Q1235 406 1087 201 Q924 -25 660 -25 Q394 -25 232 207 Q85 417 85 714 Z M249 711 Q249 440 368.5 290.5 Q488 141 659 141 Q834 141 952.5 292 Q1071 443 1071 736 Q1071 925 1010 1074 Q963 1188 868.5 1256.5 Q774 1325 662 1325 Q482 1325 365.5 1175 Q249 1025 249 711 Z M660 1737 L568 1567 L399 1567 L576 1847 L734 1847 L918 1567 L751 1567 L660 1737 Z " />
<glyph glyph-name="Ograve" unicode="&#xd2;" horiz-adv-x="1307" d="M85 714 Q85 1089 250 1290.5 Q415 1492 661 1492 Q820 1492 951 1402 Q1082 1312 1158.5 1140.5 Q1235 969 1235 732 Q1235 406 1087 201 Q924 -25 660 -25 Q394 -25 232 207 Q85 417 85 714 Z M249 711 Q249 440 368.5 290.5 Q488 141 659 141 Q834 141 952.5 292 Q1071 443 1071 736 Q1071 925 1010 1074 Q963 1188 868.5 1256.5 Q774 1325 662 1325 Q482 1325 365.5 1175 Q249 1025 249 711 Z M768 1566 L649 1566 L460 1846 L658 1846 L768 1566 Z " />
<glyph glyph-name="Uacute" unicode="&#xda;" horiz-adv-x="1212" d="M915 1466 L1075 1466 L1075 619 Q1075 406 1033.5 269.5 Q992 133 882.5 54 Q773 -25 604 -25 Q366 -25 247.5 117 Q129 259 129 619 L129 1466 L288 1466 L288 620 Q288 421 319 332 Q350 243 420.5 196.5 Q491 150 592 150 Q762 150 838.5 246 Q915 342 915 620 L915 1466 Z M475 1566 L584 1846 L777 1846 L597 1566 L475 1566 Z " />
<glyph glyph-name="Ucircumflex" unicode="&#xdb;" horiz-adv-x="1212" d="M915 1466 L1075 1466 L1075 619 Q1075 406 1033.5 269.5 Q992 133 882.5 54 Q773 -25 604 -25 Q366 -25 247.5 117 Q129 259 129 619 L129 1466 L288 1466 L288 620 Q288 421 319 332 Q350 243 420.5 196.5 Q491 150 592 150 Q762 150 838.5 246 Q915 342 915 620 L915 1466 Z M605 1737 L513 1567 L344 1567 L521 1847 L679 1847 L863 1567 L696 1567 L605 1737 Z " />
<glyph glyph-name="Ugrave" unicode="&#xd9;" horiz-adv-x="1212" d="M915 1466 L1075 1466 L1075 619 Q1075 406 1033.5 269.5 Q992 133 882.5 54 Q773 -25 604 -25 Q366 -25 247.5 117 Q129 259 129 619 L129 1466 L288 1466 L288 620 Q288 421 319 332 Q350 243 420.5 196.5 Q491 150 592 150 Q762 150 838.5 246 Q915 342 915 620 L915 1466 Z M703 1566 L584 1566 L395 1846 L593 1846 L703 1566 Z " />
<glyph glyph-name="dotlessi" unicode="&#x131;" horiz-adv-x="467" d="M166 0 L166 1062 L313 1062 L313 0 L166 0 Z " />
<glyph glyph-name="circumflex" unicode="&#x2c6;" horiz-adv-x="559" d="M281 1364 L189 1194 L20 1194 L197 1474 L355 1474 L539 1194 L372 1194 L281 1364 Z " />
<glyph glyph-name="tilde" unicode="&#x2dc;" horiz-adv-x="559" d="M6 1219 Q5 1326 54 1387 Q102 1447 172 1447 Q224 1447 311 1393 Q359 1363 388 1363 Q415 1363 428.5 1380.5 Q442 1398 448 1450 L555 1450 Q552 1335 506.5 1278.5 Q461 1222 393 1222 Q343 1222 258 1278 Q203 1314 178 1314 Q151 1314 133 1290.5 Q115 1267 115 1219 L6 1219 Z " />
<glyph glyph-name="macron" unicode="&#x2c9;" horiz-adv-x="559" d="M24 1227 L24 1375 L536 1375 L536 1227 L24 1227 Z " />
<glyph glyph-name="breve" unicode="&#x2d8;" horiz-adv-x="559" d="M421 1464 L522 1464 Q509 1335 444 1270 Q379 1205 279 1205 Q179 1205 114.5 1270 Q50 1335 37 1464 L138 1464 Q161 1329 275 1329 Q339 1329 374 1361 Q409 1393 421 1464 Z " />
<glyph glyph-name="dotaccent" unicode="&#x2d9;" horiz-adv-x="559" d="M188 1194 L188 1418 L371 1418 L371 1194 L188 1194 Z " />
<glyph glyph-name="ring" unicode="&#x2da;" horiz-adv-x="559" d="M133 1338 Q133 1413 177.5 1465 Q222 1517 281 1517 Q339 1517 383.5 1465 Q428 1413 428 1334 Q428 1254 384 1202.5 Q340 1151 281 1151 Q222 1151 177.5 1203 Q133 1255 133 1338 Z M196 1337 Q196 1288 222 1257 Q248 1226 282 1226 Q316 1226 342.5 1257 Q369 1288 369 1335 Q369 1382 343 1413 Q317 1444 283 1444 Q248 1444 222 1413 Q196 1382 196 1337 Z " />
<glyph glyph-name="cedilla" unicode="&#xb8;" horiz-adv-x="559" d="M177 -154 L220 23 L330 23 L302 -84 Q370 -94 406.5 -135 Q443 -176 443 -234 Q443 -312 380.5 -366.5 Q318 -421 210 -421 Q139 -421 88 -409 L97 -292 Q150 -296 178 -296 Q245 -296 275.5 -275 Q306 -254 306 -221 Q306 -190 278.5 -172.5 Q251 -155 177 -154 Z " />
<glyph glyph-name="hungarumlaut" unicode="&#x2dd;" horiz-adv-x="559" d="M48 1194 L147 1474 L339 1474 L166 1194 L48 1194 Z M332 1194 L436 1474 L626 1474 L456 1194 L332 1194 Z " />
<glyph glyph-name="ogonek" unicode="&#x2db;" horiz-adv-x="559" d="M184 24 L285 24 Q254 -65 254 -141 Q254 -210 288 -251 Q322 -292 372 -292 Q434 -292 509 -246 L509 -365 Q413 -425 330 -425 Q251 -425 200.5 -367 Q150 -309 150 -202 Q150 -117 184 24 Z " />
<glyph glyph-name="caron" unicode="&#x2c7;" horiz-adv-x="559" d="M294 1304 L385 1474 L552 1474 L368 1194 L210 1194 L33 1474 L202 1474 L294 1304 Z " />
<glyph glyph-name="Lslash" unicode="&#x141;" horiz-adv-x="934" d="M116 565 L-3 442 L-3 609 L116 733 L116 1466 L275 1466 L275 898 L438 1064 L438 897 L275 731 L275 173 L872 173 L872 0 L116 0 L116 565 Z " />
<glyph glyph-name="lslash" unicode="&#x142;" horiz-adv-x="373" d="M105 574 L-1 464 L-1 622 L105 732 L105 1466 L253 1466 L253 884 L363 999 L363 842 L253 727 L253 0 L105 0 L105 574 Z " />
<glyph glyph-name="Scaron" unicode="&#x160;" horiz-adv-x="1120" d="M76 471 L226 487 Q238 366 280.5 298.5 Q323 231 402 190 Q481 149 580 149 Q722 149 800.5 218.5 Q879 288 879 399 Q879 464 850.5 512.5 Q822 561 764.5 592 Q707 623 516 679 Q346 729 274 780 Q202 831 162 909.5 Q122 988 122 1087 Q122 1265 237 1378 Q352 1491 547 1491 Q681 1491 781.5 1438 Q882 1385 937.5 1286 Q993 1187 997 1053 L844 1039 Q832 1182 758.5 1251 Q685 1320 552 1320 Q417 1320 346 1259.5 Q275 1199 275 1103 Q275 1014 327 965 Q379 916 561 866 Q739 817 811 781 Q921 725 977 633.5 Q1033 542 1033 415 Q1033 289 974 185.5 Q915 82 813.5 28 Q712 -26 569 -26 Q346 -26 213.5 108 Q81 242 76 471 Z M542 1677 L633 1847 L800 1847 L616 1567 L458 1567 L281 1847 L450 1847 L542 1677 Z " />
<glyph glyph-name="scaron" unicode="&#x161;" horiz-adv-x="840" d="M52 317 L198 345 Q211 233 269 178.5 Q327 124 423 124 Q519 124 571.5 171.5 Q624 219 624 292 Q624 355 579 390 Q548 414 429 450 Q257 503 199 540 Q141 577 109 639 Q77 701 77 780 Q77 916 164 1001 Q251 1086 405 1086 Q502 1086 575.5 1051 Q649 1016 688 957 Q727 898 742 788 L598 764 Q578 938 409 938 Q313 938 266 899.5 Q219 861 219 801 Q219 742 264 708 Q291 688 424 644 Q607 585 661 550.5 Q715 516 745 456.5 Q775 397 775 315 Q775 163 678.5 69 Q582 -25 415 -25 Q102 -25 52 317 Z M407 1304 L498 1474 L665 1474 L481 1194 L323 1194 L146 1474 L315 1474 L407 1304 Z " />
<glyph glyph-name="Zcaron" unicode="&#x17d;" horiz-adv-x="1026" d="M36 0 L36 180 L652 1119 Q716 1217 777 1293 L105 1293 L105 1466 L966 1466 L966 1293 L292 276 L219 173 L986 173 L986 0 L36 0 Z M540 1677 L631 1847 L798 1847 L614 1567 L456 1567 L279 1847 L448 1847 L540 1677 Z " />
<glyph glyph-name="zcaron" unicode="&#x17e;" horiz-adv-x="840" d="M33 0 L33 146 L588 922 Q493 916 421 916 L66 916 L66 1062 L778 1062 L778 943 L306 269 L215 146 Q314 155 401 155 L804 155 L804 0 L33 0 Z M411 1304 L502 1474 L669 1474 L485 1194 L327 1194 L150 1474 L319 1474 L411 1304 Z " />
<glyph glyph-name="brokenbar" unicode="&#xa6;" horiz-adv-x="436" d="M285 1491 L285 701 L156 701 L156 1491 L285 1491 Z M285 360 L285 -431 L156 -431 L156 360 L285 360 Z " />
<glyph glyph-name="Eth" unicode="&#xd0;" horiz-adv-x="1212" d="M126 0 L126 667 L-6 667 L-6 799 L126 799 L126 1466 L541 1466 Q696 1466 775 1439 Q880 1404 957 1311 Q1034 1218 1077 1076.5 Q1120 935 1120 740 Q1120 529 1066.5 371 Q1013 213 934.5 133.5 Q856 54 745 19 Q683 0 560 0 L126 0 Z M285 173 L541 173 Q696 173 776 223.5 Q856 274 898 385 Q956 535 956 741 Q956 968 895 1095 Q834 1222 739 1265 Q675 1293 537 1293 L285 1293 L285 799 L617 799 L617 667 L285 667 L285 173 Z " />
<glyph glyph-name="eth" unicode="&#xf0;" horiz-adv-x="934" d="M250 1466 L427 1466 Q487 1412 530 1364 L705 1466 L743 1364 L601 1281 Q863 913 863 523 Q863 262 747.5 118.5 Q632 -25 460 -25 Q345 -25 253.5 37 Q162 99 109.5 214 Q57 329 57 516 Q57 783 164.5 922.5 Q272 1062 427 1062 Q474 1062 510.5 1050 Q547 1038 601 1003 Q554 1119 485 1216 L259 1089 L223 1192 L420 1301 Q340 1391 250 1466 Z M711 529 Q711 721 636.5 822.5 Q562 924 454 924 Q348 924 278 823.5 Q208 723 208 512 Q208 315 280.5 218.5 Q353 122 459 122 Q564 122 637.5 225 Q711 328 711 529 Z " />
<glyph glyph-name="Yacute" unicode="&#xdd;" horiz-adv-x="1120" d="M468 0 L468 621 L5 1466 L199 1466 L435 1024 Q505 893 558 776 Q611 891 689 1035 L922 1466 L1107 1466 L627 621 L627 0 L468 0 Z M414 1566 L523 1846 L716 1846 L536 1566 L414 1566 Z " />
<glyph glyph-name="yacute" unicode="&#xfd;" horiz-adv-x="840" d="M104 -409 L88 -240 Q137 -256 172 -256 Q219 -256 249.5 -237 Q280 -218 300 -178 Q307 -164 358 -2 L27 1062 L186 1062 L368 447 Q402 332 431 201 Q456 325 491 443 L677 1062 L825 1062 L494 -18 Q429 -228 391.5 -298.5 Q354 -369 306.5 -400 Q259 -431 199 -431 Q157 -431 104 -409 Z M311 1194 L420 1474 L613 1474 L433 1194 L311 1194 Z " />
<glyph glyph-name="Thorn" unicode="&#xde;" horiz-adv-x="1120" d="M130 0 L130 1466 L289 1466 L289 1168 L583 1168 Q744 1168 820 1139 Q924 1101 986 998 Q1048 895 1048 746 Q1048 549 947 423.5 Q846 298 597 298 L289 298 L289 0 L130 0 Z M289 471 L600 471 Q747 471 815 537.5 Q883 604 883 738 Q883 825 849.5 886.5 Q816 948 768.5 971.5 Q721 995 597 995 L289 995 L289 471 Z " />
<glyph glyph-name="thorn" unicode="&#xfe;" horiz-adv-x="934" d="M108 -407 L108 1466 L255 1466 L255 950 Q317 1029 370.5 1057.5 Q424 1086 494 1086 Q597 1086 680 1025 Q763 964 813.5 839.5 Q864 715 864 540 Q864 270 750.5 123 Q637 -24 485 -24 Q420 -24 368 4 Q316 32 255 110 L255 -407 L108 -407 Z M241 525 Q241 319 310 221.5 Q379 124 477 124 Q571 124 642 225 Q713 326 713 537 Q713 745 644 845 Q575 945 477 945 Q387 945 314 837.5 Q241 730 241 525 Z " />
<glyph glyph-name="minus" unicode="&#x2212;" horiz-adv-x="981" d="M886 639 L92 639 L92 807 L886 807 L886 639 Z " />
<glyph glyph-name="multiply" unicode="&#xd7;" horiz-adv-x="981" d="M130 409 L389 724 L131 1038 L231 1160 L489 846 L745 1159 L844 1038 L587 725 L845 411 L745 289 L487 603 L229 288 L130 409 Z " />
<glyph glyph-name="onesuperior" unicode="&#xb9;" horiz-adv-x="559" d="M270 733 L270 1287 Q186 1206 86 1174 L86 1297 Q137 1317 199.5 1370.5 Q262 1424 300 1484 L389 1484 L389 733 L270 733 Z " />
<glyph glyph-name="twosuperior" unicode="&#xb2;" horiz-adv-x="559" d="M20 733 Q32 864 232 1041 Q352 1147 375.5 1182 Q399 1217 399 1255 Q399 1307 369 1336.5 Q339 1366 286 1366 Q233 1366 206 1343 Q179 1320 161 1252 L37 1268 Q62 1383 122 1433.5 Q182 1484 287 1484 Q405 1484 466 1428.5 Q527 1373 527 1279 Q527 1195 477 1120 Q440 1065 311 951 Q243 890 214 854 L531 854 L531 733 L20 733 Z " />
<glyph glyph-name="threesuperior" unicode="&#xb3;" horiz-adv-x="559" d="M26 929 L146 944 Q163 882 194 857 Q225 832 272 832 Q327 832 363.5 869.5 Q400 907 400 965 Q400 1018 369 1046.5 Q338 1075 271 1075 L244 1073 L226 1072 L244 1182 Q305 1181 338.5 1209 Q372 1237 372 1284 Q372 1324 345.5 1348.5 Q319 1373 274 1373 Q229 1373 202.5 1351.5 Q176 1330 157 1271 L40 1294 Q75 1403 126.5 1443.5 Q178 1484 276 1484 Q386 1484 443 1433.5 Q500 1383 500 1298 Q500 1239 470 1197 Q440 1155 387 1137 Q529 1094 529 946 Q529 847 461 781 Q393 715 282 715 Q62 715 26 929 Z " />
<glyph glyph-name="onehalf" unicode="&#xbd;" horiz-adv-x="1401" d="M270 733 L270 1287 Q186 1206 86 1174 L86 1297 Q137 1317 199.5 1370.5 Q262 1424 300 1484 L389 1484 L389 733 L270 733 Z M183 -57 L1086 1491 L1214 1491 L312 -57 L183 -57 Z M860 -31 Q872 100 1072 277 Q1192 383 1215.5 418 Q1239 453 1239 491 Q1239 543 1209 572.5 Q1179 602 1126 602 Q1073 602 1046 579 Q1019 556 1001 488 L877 504 Q902 619 962 669.5 Q1022 720 1127 720 Q1245 720 1306 664.5 Q1367 609 1367 515 Q1367 431 1317 356 Q1280 301 1151 187 Q1083 126 1054 90 L1371 90 L1371 -31 L860 -31 Z " />
<glyph glyph-name="onequarter" unicode="&#xbc;" horiz-adv-x="1401" d="M270 733 L270 1287 Q186 1206 86 1174 L86 1297 Q137 1317 199.5 1370.5 Q262 1424 300 1484 L389 1484 L389 733 L270 733 Z M203 -57 L1106 1491 L1234 1491 L332 -57 L203 -57 Z M1172 -31 L1172 123 L859 123 L859 246 L1191 720 L1291 720 L1291 231 L1376 231 L1376 123 L1291 123 L1291 -31 L1172 -31 Z M1172 231 L1172 494 L984 231 L1172 231 Z " />
<glyph glyph-name="threequarters" unicode="&#xbe;" horiz-adv-x="1401" d="M26 929 L146 944 Q163 882 194 857 Q225 832 272 832 Q327 832 363.5 869.5 Q400 907 400 965 Q400 1018 369 1046.5 Q338 1075 271 1075 L244 1073 L226 1072 L244 1182 Q305 1181 338.5 1209 Q372 1237 372 1284 Q372 1324 345.5 1348.5 Q319 1373 274 1373 Q229 1373 202.5 1351.5 Q176 1330 157 1271 L40 1294 Q75 1403 126.5 1443.5 Q178 1484 276 1484 Q386 1484 443 1433.5 Q500 1383 500 1298 Q500 1239 470 1197 Q440 1155 387 1137 Q529 1094 529 946 Q529 847 461 781 Q393 715 282 715 Q62 715 26 929 Z M203 -57 L1106 1491 L1234 1491 L332 -57 L203 -57 Z M1168 -31 L1168 123 L855 123 L855 246 L1187 720 L1287 720 L1287 231 L1372 231 L1372 123 L1287 123 L1287 -31 L1168 -31 Z M1168 231 L1168 494 L980 231 L1168 231 Z " />
<glyph glyph-name="franc" unicode="&#x20a3;" horiz-adv-x="1032" d="M138 268 L0 268 L0 399 L138 399 L138 1466 L949 1466 L949 1293 L297 1293 L297 839 L861 839 L861 666 L297 666 L297 399 L588 399 L588 268 L297 268 L297 0 L138 0 L138 268 Z " />
<glyph glyph-name="Gbreve" unicode="&#x11e;" horiz-adv-x="1307" d="M696 575 L696 747 L1205 748 L1205 204 Q1088 90 963 32.5 Q838 -25 706 -25 Q530 -25 392 63 Q254 151 173.5 320 Q93 489 93 726 Q93 966 174 1144 Q255 1322 386 1406.5 Q517 1491 696 1491 Q828 1491 927 1442 Q1026 1393 1090 1303 Q1154 1213 1186 1056 L1043 1008 Q1014 1132 970 1193.5 Q926 1255 854 1290 Q782 1325 692 1325 Q561 1325 466.5 1261.5 Q372 1198 314.5 1064 Q257 930 257 737 Q257 443 380 296.5 Q503 150 700 150 Q794 150 892.5 195 Q991 240 1049 302 L1049 575 L696 575 Z M800 1826 L901 1826 Q888 1697 823 1632 Q758 1567 658 1567 Q558 1567 493.5 1632 Q429 1697 416 1826 L517 1826 Q540 1691 654 1691 Q718 1691 753 1723 Q788 1755 800 1826 Z " />
<glyph glyph-name="gbreve" unicode="&#x11f;" horiz-adv-x="934" d="M80 -88 L224 -114 Q234 -199 284 -240.5 Q334 -282 423 -282 Q520 -282 577.5 -235.5 Q635 -189 656 -97 Q669 -41 669 139 Q621 70 561 35 Q501 0 428 0 Q272 0 169 132 Q51 284 51 539 Q51 710 103 838 Q155 966 239.5 1026 Q324 1086 429 1086 Q506 1086 569.5 1048 Q633 1010 682 934 L682 1062 L818 1062 L818 144 Q818 -101 778 -205.5 Q738 -310 647 -370.5 Q556 -431 428 -431 Q259 -431 168 -340 Q77 -249 80 -88 Z M203 550 Q203 341 272 245 Q341 149 441 149 Q541 149 611 243 Q681 337 681 542 Q681 742 609 839.5 Q537 937 434 937 Q342 937 272.5 839.5 Q203 742 203 550 Z M576 1464 L677 1464 Q664 1335 599 1270 Q534 1205 434 1205 Q334 1205 269.5 1270 Q205 1335 192 1464 L293 1464 Q316 1329 430 1329 Q494 1329 529 1361 Q564 1393 576 1464 Z " />
<glyph glyph-name="Idot" unicode="&#x130;" horiz-adv-x="467" d="M160 0 L160 1466 L319 1466 L319 0 L160 0 Z M149 1567 L149 1791 L332 1791 L332 1567 L149 1567 Z " />
<glyph glyph-name="Scedilla" unicode="&#x15e;" horiz-adv-x="1120" d="M76 471 L226 487 Q238 366 280.5 298.5 Q323 231 402 190 Q481 149 580 149 Q722 149 800.5 218.5 Q879 288 879 399 Q879 464 850.5 512.5 Q822 561 764.5 592 Q707 623 516 679 Q346 729 274 780 Q202 831 162 909.5 Q122 988 122 1087 Q122 1265 237 1378 Q352 1491 547 1491 Q681 1491 781.5 1438 Q882 1385 937.5 1286 Q993 1187 997 1053 L844 1039 Q832 1182 758.5 1251 Q685 1320 552 1320 Q417 1320 346 1259.5 Q275 1199 275 1103 Q275 1014 327 965 Q379 916 561 866 Q739 817 811 781 Q921 725 977 633.5 Q1033 542 1033 415 Q1033 289 974 185.5 Q915 82 813.5 28 Q712 -26 569 -26 Q346 -26 213.5 108 Q81 242 76 471 Z M440 -154 L483 23 L593 23 L565 -84 Q633 -94 669.5 -135 Q706 -176 706 -234 Q706 -312 643.5 -366.5 Q581 -421 473 -421 Q402 -421 351 -409 L360 -292 Q413 -296 441 -296 Q508 -296 538.5 -275 Q569 -254 569 -221 Q569 -190 541.5 -172.5 Q514 -155 440 -154 Z " />
<glyph glyph-name="scedilla" unicode="&#x15f;" horiz-adv-x="840" d="M52 317 L198 345 Q211 233 269 178.5 Q327 124 423 124 Q519 124 571.5 171.5 Q624 219 624 292 Q624 355 579 390 Q548 414 429 450 Q257 503 199 540 Q141 577 109 639 Q77 701 77 780 Q77 916 164 1001 Q251 1086 405 1086 Q502 1086 575.5 1051 Q649 1016 688 957 Q727 898 742 788 L598 764 Q578 938 409 938 Q313 938 266 899.5 Q219 861 219 801 Q219 742 264 708 Q291 688 424 644 Q607 585 661 550.5 Q715 516 745 456.5 Q775 397 775 315 Q775 163 678.5 69 Q582 -25 415 -25 Q102 -25 52 317 Z M289 -154 L332 23 L442 23 L414 -84 Q482 -94 518.5 -135 Q555 -176 555 -234 Q555 -312 492.5 -366.5 Q430 -421 322 -421 Q251 -421 200 -409 L209 -292 Q262 -296 290 -296 Q357 -296 387.5 -275 Q418 -254 418 -221 Q418 -190 390.5 -172.5 Q363 -155 289 -154 Z " />
<glyph glyph-name="Cacute" unicode="&#x106;" horiz-adv-x="1212" d="M983 514 L1143 465 Q1090 218 957.5 96.5 Q825 -25 635 -25 Q468 -25 349.5 56.5 Q231 138 155.5 318 Q80 498 80 743 Q80 985 155.5 1152.5 Q231 1320 360 1405.5 Q489 1491 648 1491 Q822 1491 947 1382.5 Q1072 1274 1122 1064 L966 1019 Q886 1325 645 1325 Q525 1325 437 1263.5 Q349 1202 296.5 1072 Q244 942 244 743 Q244 442 350 291.5 Q456 141 632 141 Q762 141 856.5 233.5 Q951 326 983 514 Z M485 1566 L594 1846 L787 1846 L607 1566 L485 1566 Z " />
<glyph glyph-name="cacute" unicode="&#x107;" horiz-adv-x="840" d="M679 389 L824 366 Q799 176 698.5 76 Q598 -24 457 -24 Q286 -24 175.5 116.5 Q65 257 65 532 Q65 809 176.5 947.5 Q288 1086 463 1086 Q598 1086 690.5 1002 Q783 918 809 750 L666 723 Q645 831 593 884.5 Q541 938 468 938 Q359 938 287.5 841.5 Q216 745 216 535 Q216 318 284.5 221 Q353 124 460 124 Q544 124 603.5 188.5 Q663 253 679 389 Z M323 1194 L432 1474 L625 1474 L445 1194 L323 1194 Z " />
<glyph glyph-name="Ccaron" unicode="&#x10c;" horiz-adv-x="1212" d="M983 514 L1143 465 Q1090 218 957.5 96.5 Q825 -25 635 -25 Q468 -25 349.5 56.5 Q231 138 155.5 318 Q80 498 80 743 Q80 985 155.5 1152.5 Q231 1320 360 1405.5 Q489 1491 648 1491 Q822 1491 947 1382.5 Q1072 1274 1122 1064 L966 1019 Q886 1325 645 1325 Q525 1325 437 1263.5 Q349 1202 296.5 1072 Q244 942 244 743 Q244 442 350 291.5 Q456 141 632 141 Q762 141 856.5 233.5 Q951 326 983 514 Z M625 1677 L716 1847 L883 1847 L699 1567 L541 1567 L364 1847 L533 1847 L625 1677 Z " />
<glyph glyph-name="ccaron" unicode="&#x10d;" horiz-adv-x="840" d="M679 389 L824 366 Q799 176 698.5 76 Q598 -24 457 -24 Q286 -24 175.5 116.5 Q65 257 65 532 Q65 809 176.5 947.5 Q288 1086 463 1086 Q598 1086 690.5 1002 Q783 918 809 750 L666 723 Q645 831 593 884.5 Q541 938 468 938 Q359 938 287.5 841.5 Q216 745 216 535 Q216 318 284.5 221 Q353 124 460 124 Q544 124 603.5 188.5 Q663 253 679 389 Z M471 1304 L562 1474 L729 1474 L545 1194 L387 1194 L210 1474 L379 1474 L471 1304 Z " />
<glyph glyph-name="dmacron" unicode="&#x111;" horiz-adv-x="928" d="M666 1224 L383 1224 L383 1328 L666 1328 L666 1466 L814 1466 L814 1328 L932 1328 L932 1224 L814 1224 L814 0 L676 0 L676 134 Q636 57 573 16.5 Q510 -24 437 -24 Q283 -24 170.5 121.5 Q58 267 58 531 Q58 712 108 838 Q158 964 241.5 1025 Q325 1086 427 1086 Q500 1086 562.5 1047.5 Q625 1009 666 940 L666 1224 Z M209 530 Q209 324 280.5 224 Q352 124 447 124 Q541 124 610 220 Q679 316 679 510 Q679 733 610 835.5 Q541 938 436 938 Q343 938 276 839.5 Q209 741 209 530 Z " />
<glyph glyph-name="overscore" unicode="&#xaf;" horiz-adv-x="1024" d="M-12 1722 L1036 1722 L1036 1619 L-12 1619 L-12 1722 Z " />
<glyph glyph-name="middot" unicode="&#xb7;" horiz-adv-x="557" d="M196 637 L196 842 L364 842 L364 637 L196 637 Z " />
<glyph glyph-name="Abreve" unicode="&#x102;" horiz-adv-x="1120" d="M-2 0 L460 1466 L631 1466 L1123 0 L941 0 L801 444 L299 444 L167 0 L-2 0 Z M345 602 L752 602 L627 1008 Q569 1195 542 1312 Q519 1171 477 1032 L345 602 Z M686 1827 L787 1827 Q774 1698 709 1633 Q644 1568 544 1568 Q444 1568 379.5 1633 Q315 1698 302 1827 L403 1827 Q426 1692 540 1692 Q604 1692 639 1724 Q674 1756 686 1827 Z " />
<glyph glyph-name="abreve" unicode="&#x103;" horiz-adv-x="934" d="M676 131 Q602 54 522 15 Q442 -24 356 -24 Q220 -24 139 58 Q58 140 58 279 Q58 371 96 442 Q134 513 200 553 Q266 593 400 612 Q580 638 664 674 L665 720 Q665 829 626 873 Q571 937 457 937 Q354 937 303 894.5 Q252 852 228 735 L83 759 Q114 930 208.5 1008 Q303 1086 479 1086 Q616 1086 694 1034.5 Q772 983 792.5 907 Q813 831 813 685 L813 445 Q813 193 822.5 127.5 Q832 62 860 0 L706 0 Q683 55 676 131 Z M664 533 Q583 493 423 465 Q330 449 293 428.5 Q256 408 235.5 370.5 Q215 333 215 284 Q215 208 262 162.5 Q309 117 392 117 Q471 117 535.5 158 Q600 199 632 267.5 Q664 336 664 467 L664 533 Z M594 1464 L695 1464 Q682 1335 617 1270 Q552 1205 452 1205 Q352 1205 287.5 1270 Q223 1335 210 1464 L311 1464 Q334 1329 448 1329 Q512 1329 547 1361 Q582 1393 594 1464 Z " />
<glyph glyph-name="Aogonek" unicode="&#x104;" horiz-adv-x="1120" d="M-2 0 L460 1466 L631 1466 L1123 0 L941 0 L801 444 L299 444 L167 0 L-2 0 Z M345 602 L752 602 L627 1008 Q569 1195 542 1312 Q519 1171 477 1032 L345 602 Z M975 24 L1076 24 Q1045 -65 1045 -141 Q1045 -210 1079 -251 Q1113 -292 1163 -292 Q1225 -292 1300 -246 L1300 -365 Q1204 -425 1121 -425 Q1042 -425 991.5 -367 Q941 -309 941 -202 Q941 -117 975 24 Z " />
<glyph glyph-name="aogonek" unicode="&#x105;" horiz-adv-x="934" d="M676 131 Q602 54 522 15 Q442 -24 356 -24 Q220 -24 139 58 Q58 140 58 279 Q58 371 96 442 Q134 513 200 553 Q266 593 400 612 Q580 638 664 674 L665 720 Q665 829 626 873 Q571 937 457 937 Q354 937 303 894.5 Q252 852 228 735 L83 759 Q114 930 208.5 1008 Q303 1086 479 1086 Q616 1086 694 1034.5 Q772 983 792.5 907 Q813 831 813 685 L813 445 Q813 193 822.5 127.5 Q832 62 860 0 L706 0 Q683 55 676 131 Z M664 533 Q583 493 423 465 Q330 449 293 428.5 Q256 408 235.5 370.5 Q215 333 215 284 Q215 208 262 162.5 Q309 117 392 117 Q471 117 535.5 158 Q600 199 632 267.5 Q664 336 664 467 L664 533 Z M737 24 L838 24 Q807 -65 807 -141 Q807 -210 841 -251 Q875 -292 925 -292 Q987 -292 1062 -246 L1062 -365 Q966 -425 883 -425 Q804 -425 753.5 -367 Q703 -309 703 -202 Q703 -117 737 24 Z " />
<glyph glyph-name="Dcaron" unicode="&#x10e;" horiz-adv-x="1212" d="M126 0 L126 1466 L541 1466 Q695 1466 775 1439 Q880 1404 957 1311 Q1034 1218 1077 1076.5 Q1120 935 1120 741 Q1120 492 1047 318.5 Q974 145 859.5 72.5 Q745 0 560 0 L126 0 Z M285 173 L541 173 Q696 173 776 223.5 Q856 274 899 386 Q956 535 956 743 Q956 966 895.5 1093.5 Q835 1221 740 1264 Q676 1293 537 1293 L285 1293 L285 173 Z M582 1677 L673 1847 L840 1847 L656 1567 L498 1567 L321 1847 L490 1847 L582 1677 Z " />
<glyph glyph-name="dcaron" unicode="&#x10f;" horiz-adv-x="1032" d="M673 0 L673 134 Q633 57 570 16.5 Q507 -24 434 -24 Q280 -24 167.5 121.5 Q55 267 55 531 Q55 712 105 838 Q155 964 238.5 1025 Q322 1086 424 1086 Q497 1086 559.5 1047.5 Q622 1009 663 940 L663 1466 L811 1466 L811 0 L673 0 Z M206 530 Q206 324 277.5 224 Q349 124 444 124 Q538 124 607 220 Q676 316 676 510 Q676 733 607 835.5 Q538 938 433 938 Q340 938 273 839.5 Q206 741 206 530 Z M885 1283 L885 1467 L1036 1467 L1036 1283 Q1036 1122 913 1056 L876 1125 Q954 1168 960 1283 L885 1283 Z " />
<glyph glyph-name="Dslash" unicode="&#x110;" horiz-adv-x="1212" d="M126 0 L126 667 L-6 667 L-6 799 L126 799 L126 1466 L541 1466 Q696 1466 775 1439 Q880 1404 957 1311 Q1034 1218 1077 1076.5 Q1120 935 1120 740 Q1120 529 1066.5 371 Q1013 213 934.5 133.5 Q856 54 745 19 Q683 0 560 0 L126 0 Z M285 173 L541 173 Q696 173 776 223.5 Q856 274 898 385 Q956 535 956 741 Q956 968 895 1095 Q834 1222 739 1265 Q675 1293 537 1293 L285 1293 L285 799 L617 799 L617 667 L285 667 L285 173 Z " />
<glyph glyph-name="Eogonek" unicode="&#x118;" horiz-adv-x="1120" d="M133 0 L133 1466 L1002 1466 L1002 1293 L292 1293 L292 844 L957 844 L957 672 L292 672 L292 173 L1030 173 L1030 0 L133 0 Z M621 24 L722 24 Q691 -65 691 -141 Q691 -210 725 -251 Q759 -292 809 -292 Q871 -292 946 -246 L946 -365 Q850 -425 767 -425 Q688 -425 637.5 -367 Q587 -309 587 -202 Q587 -117 621 24 Z " />
<glyph glyph-name="eogonek" unicode="&#x119;" horiz-adv-x="934" d="M704 342 L856 319 Q818 149 718.5 62.5 Q619 -24 472 -24 Q287 -24 172.5 116.5 Q58 257 58 522 Q58 797 173.5 941.5 Q289 1086 466 1086 Q635 1086 748 944 Q861 802 861 533 L860 485 L210 485 Q219 306 293 215 Q367 124 473 124 Q639 124 704 342 Z M219 633 L705 633 Q695 771 646 839 Q575 938 465 938 Q366 938 296 855.5 Q226 773 219 633 Z M412 24 L513 24 Q482 -65 482 -141 Q482 -210 516 -251 Q550 -292 600 -292 Q662 -292 737 -246 L737 -365 Q641 -425 558 -425 Q479 -425 428.5 -367 Q378 -309 378 -202 Q378 -117 412 24 Z " />
<glyph glyph-name="Ecaron" unicode="&#x11a;" horiz-adv-x="1120" d="M133 0 L133 1466 L1002 1466 L1002 1293 L292 1293 L292 844 L957 844 L957 672 L292 672 L292 173 L1030 173 L1030 0 L133 0 Z M588 1677 L679 1847 L846 1847 L662 1567 L504 1567 L327 1847 L496 1847 L588 1677 Z " />
<glyph glyph-name="ecaron" unicode="&#x11b;" horiz-adv-x="934" d="M704 342 L856 319 Q818 149 718.5 62.5 Q619 -24 472 -24 Q287 -24 172.5 116.5 Q58 257 58 522 Q58 797 173.5 941.5 Q289 1086 466 1086 Q635 1086 748 944 Q861 802 861 533 L860 485 L210 485 Q219 306 293 215 Q367 124 473 124 Q639 124 704 342 Z M219 633 L705 633 Q695 771 646 839 Q575 938 465 938 Q366 938 296 855.5 Q226 773 219 633 Z M460 1304 L551 1474 L718 1474 L534 1194 L376 1194 L199 1474 L368 1474 L460 1304 Z " />
<glyph glyph-name="Lacute" unicode="&#x139;" horiz-adv-x="934" d="M120 0 L120 1466 L279 1466 L279 173 L871 173 L871 0 L120 0 Z M418 1566 L527 1846 L720 1846 L540 1566 L418 1566 Z " />
<glyph glyph-name="lacute" unicode="&#x13a;" horiz-adv-x="373" d="M104 0 L104 1466 L251 1466 L251 0 L104 0 Z M106 1566 L215 1846 L408 1846 L228 1566 L106 1566 Z " />
<glyph glyph-name="Lcaron" unicode="&#x13d;" horiz-adv-x="934" d="M120 0 L120 1466 L279 1466 L279 173 L871 173 L871 0 L120 0 Z M577 1295 L577 1479 L728 1479 L728 1295 Q728 1134 605 1068 L568 1137 Q646 1180 652 1295 L577 1295 Z " />
<glyph glyph-name="lcaron" unicode="&#x13e;" horiz-adv-x="489" d="M104 0 L104 1466 L251 1466 L251 0 L104 0 Z M337 1295 L337 1479 L488 1479 L488 1295 Q488 1134 365 1068 L328 1137 Q406 1180 412 1295 L337 1295 Z " />
<glyph glyph-name="Ldot" unicode="&#x13f;" horiz-adv-x="934" d="M120 0 L120 1466 L279 1466 L279 173 L871 173 L871 0 L120 0 Z M436 637 L436 842 L604 842 L604 637 L436 637 Z " />
<glyph glyph-name="ldot" unicode="&#x140;" horiz-adv-x="661" d="M104 0 L104 1466 L251 1466 L251 0 L104 0 Z M336 637 L336 842 L504 842 L504 637 L336 637 Z " />
<glyph glyph-name="Nacute" unicode="&#x143;" horiz-adv-x="1212" d="M125 0 L125 1466 L288 1466 L920 315 L920 1466 L1072 1466 L1072 0 L909 0 L278 1152 L278 0 L125 0 Z M492 1566 L601 1846 L794 1846 L614 1566 L492 1566 Z " />
<glyph glyph-name="nacute" unicode="&#x144;" horiz-adv-x="934" d="M108 0 L108 1062 L241 1062 L241 911 Q289 999 358.5 1042.5 Q428 1086 518 1086 Q588 1086 647.5 1058.5 Q707 1031 743.5 986.5 Q780 942 798 871 Q816 800 816 653 L816 0 L668 0 L668 646 Q668 763 648 817 Q628 871 585.5 900.5 Q543 930 487 930 Q381 930 318 851 Q255 772 255 580 L255 0 L108 0 Z M377 1194 L486 1474 L679 1474 L499 1194 L377 1194 Z " />
<glyph glyph-name="Ncaron" unicode="&#x147;" horiz-adv-x="1212" d="M125 0 L125 1466 L288 1466 L920 315 L920 1466 L1072 1466 L1072 0 L909 0 L278 1152 L278 0 L125 0 Z M599 1677 L690 1847 L857 1847 L673 1567 L515 1567 L338 1847 L507 1847 L599 1677 Z " />
<glyph glyph-name="ncaron" unicode="&#x148;" horiz-adv-x="934" d="M108 0 L108 1062 L241 1062 L241 911 Q289 999 358.5 1042.5 Q428 1086 518 1086 Q588 1086 647.5 1058.5 Q707 1031 743.5 986.5 Q780 942 798 871 Q816 800 816 653 L816 0 L668 0 L668 646 Q668 763 648 817 Q628 871 585.5 900.5 Q543 930 487 930 Q381 930 318 851 Q255 772 255 580 L255 0 L108 0 Z M473 1304 L564 1474 L731 1474 L547 1194 L389 1194 L212 1474 L381 1474 L473 1304 Z " />
<glyph glyph-name="Odblacute" unicode="&#x150;" horiz-adv-x="1307" d="M85 714 Q85 1089 250 1290.5 Q415 1492 661 1492 Q820 1492 951 1402 Q1082 1312 1158.5 1140.5 Q1235 969 1235 732 Q1235 406 1087 201 Q924 -25 660 -25 Q394 -25 232 207 Q85 417 85 714 Z M249 711 Q249 440 368.5 290.5 Q488 141 659 141 Q834 141 952.5 292 Q1071 443 1071 736 Q1071 925 1010 1074 Q963 1188 868.5 1256.5 Q774 1325 662 1325 Q482 1325 365.5 1175 Q249 1025 249 711 Z M420 1566 L519 1846 L711 1846 L538 1566 L420 1566 Z M704 1566 L808 1846 L998 1846 L828 1566 L704 1566 Z " />
<glyph glyph-name="odblacute" unicode="&#x151;" horiz-adv-x="934" d="M53 531 Q53 806 168.5 946 Q284 1086 461 1086 Q635 1086 752 946 Q869 806 869 542 Q869 256 754 116 Q639 -24 461 -24 Q286 -24 169.5 116.5 Q53 257 53 531 Z M204 531 Q204 325 279 224.5 Q354 124 465 124 Q569 124 643.5 225.5 Q718 327 718 531 Q718 736 643 836.5 Q568 937 457 937 Q352 937 278 836 Q204 735 204 531 Z M220 1194 L319 1474 L511 1474 L338 1194 L220 1194 Z M504 1194 L608 1474 L798 1474 L628 1194 L504 1194 Z " />
<glyph glyph-name="Racute" unicode="&#x154;" horiz-adv-x="1212" d="M129 0 L129 1466 L662 1466 Q829 1466 908.5 1425 Q988 1384 1039 1288.5 Q1090 1193 1090 1067 Q1090 901 1003.5 798 Q917 695 752 667 Q819 627 854 586 Q925 502 979 399 L1189 0 L989 0 L829 305 Q736 484 688.5 546 Q641 608 596.5 629.5 Q552 651 472 651 L288 651 L288 0 L129 0 Z M288 819 L630 819 Q742 819 800 846 Q858 873 892 931 Q926 989 926 1066 Q926 1177 861 1240.5 Q796 1304 668 1304 L288 1304 L288 819 Z M465 1566 L574 1846 L767 1846 L587 1566 L465 1566 Z " />
<glyph glyph-name="racute" unicode="&#x155;" horiz-adv-x="559" d="M108 0 L108 1062 L241 1062 L241 901 Q292 1013 334.5 1049.5 Q377 1086 430 1086 Q504 1086 581 1028 L531 861 Q476 900 424 900 Q377 900 338 867 Q299 834 283 775 Q255 672 255 556 L255 0 L108 0 Z M250 1194 L359 1474 L552 1474 L372 1194 L250 1194 Z " />
<glyph glyph-name="Rcaron" unicode="&#x158;" horiz-adv-x="1212" d="M129 0 L129 1466 L662 1466 Q829 1466 908.5 1425 Q988 1384 1039 1288.5 Q1090 1193 1090 1067 Q1090 901 1003.5 798 Q917 695 752 667 Q819 627 854 586 Q925 502 979 399 L1189 0 L989 0 L829 305 Q736 484 688.5 546 Q641 608 596.5 629.5 Q552 651 472 651 L288 651 L288 0 L129 0 Z M288 819 L630 819 Q742 819 800 846 Q858 873 892 931 Q926 989 926 1066 Q926 1177 861 1240.5 Q796 1304 668 1304 L288 1304 L288 819 Z M573 1677 L664 1847 L831 1847 L647 1567 L489 1567 L312 1847 L481 1847 L573 1677 Z " />
<glyph glyph-name="rcaron" unicode="&#x159;" horiz-adv-x="559" d="M108 0 L108 1062 L241 1062 L241 901 Q292 1013 334.5 1049.5 Q377 1086 430 1086 Q504 1086 581 1028 L531 861 Q476 900 424 900 Q377 900 338 867 Q299 834 283 775 Q255 672 255 556 L255 0 L108 0 Z M346 1304 L437 1474 L604 1474 L420 1194 L262 1194 L85 1474 L254 1474 L346 1304 Z " />
<glyph glyph-name="Sacute" unicode="&#x15a;" horiz-adv-x="1120" d="M76 471 L226 487 Q238 366 280.5 298.5 Q323 231 402 190 Q481 149 580 149 Q722 149 800.5 218.5 Q879 288 879 399 Q879 464 850.5 512.5 Q822 561 764.5 592 Q707 623 516 679 Q346 729 274 780 Q202 831 162 909.5 Q122 988 122 1087 Q122 1265 237 1378 Q352 1491 547 1491 Q681 1491 781.5 1438 Q882 1385 937.5 1286 Q993 1187 997 1053 L844 1039 Q832 1182 758.5 1251 Q685 1320 552 1320 Q417 1320 346 1259.5 Q275 1199 275 1103 Q275 1014 327 965 Q379 916 561 866 Q739 817 811 781 Q921 725 977 633.5 Q1033 542 1033 415 Q1033 289 974 185.5 Q915 82 813.5 28 Q712 -26 569 -26 Q346 -26 213.5 108 Q81 242 76 471 Z M421 1566 L530 1846 L723 1846 L543 1566 L421 1566 Z " />
<glyph glyph-name="sacute" unicode="&#x15b;" horiz-adv-x="840" d="M52 317 L198 345 Q211 233 269 178.5 Q327 124 423 124 Q519 124 571.5 171.5 Q624 219 624 292 Q624 355 579 390 Q548 414 429 450 Q257 503 199 540 Q141 577 109 639 Q77 701 77 780 Q77 916 164 1001 Q251 1086 405 1086 Q502 1086 575.5 1051 Q649 1016 688 957 Q727 898 742 788 L598 764 Q578 938 409 938 Q313 938 266 899.5 Q219 861 219 801 Q219 742 264 708 Q291 688 424 644 Q607 585 661 550.5 Q715 516 745 456.5 Q775 397 775 315 Q775 163 678.5 69 Q582 -25 415 -25 Q102 -25 52 317 Z M293 1194 L402 1474 L595 1474 L415 1194 L293 1194 Z " />
<glyph glyph-name="Tcedilla" unicode="&#x162;" horiz-adv-x="1026" d="M438 0 L438 1293 L42 1293 L42 1466 L995 1466 L995 1293 L597 1293 L597 0 L438 0 Z M427 -154 L470 23 L580 23 L552 -84 Q620 -94 656.5 -135 Q693 -176 693 -234 Q693 -312 630.5 -366.5 Q568 -421 460 -421 Q389 -421 338 -409 L347 -292 Q400 -296 428 -296 Q495 -296 525.5 -275 Q556 -254 556 -221 Q556 -190 528.5 -172.5 Q501 -155 427 -154 Z " />
<glyph glyph-name="tcedilla" unicode="&#x163;" horiz-adv-x="467" d="M437 161 L457 2 Q396 -14 347 -14 Q270 -14 223 16.5 Q176 47 158.5 100 Q141 153 141 311 L141 922 L33 922 L33 1062 L141 1062 L141 1325 L288 1433 L288 1062 L437 1062 L437 922 L288 922 L288 301 Q288 215 301 190 Q320 154 372 154 Q397 154 437 161 Z M237 -154 L280 23 L390 23 L362 -84 Q430 -94 466.5 -135 Q503 -176 503 -234 Q503 -312 440.5 -366.5 Q378 -421 270 -421 Q199 -421 148 -409 L157 -292 Q210 -296 238 -296 Q305 -296 335.5 -275 Q366 -254 366 -221 Q366 -190 338.5 -172.5 Q311 -155 237 -154 Z " />
<glyph glyph-name="Tcaron" unicode="&#x164;" horiz-adv-x="1026" d="M438 0 L438 1293 L42 1293 L42 1466 L995 1466 L995 1293 L597 1293 L597 0 L438 0 Z M523 1677 L614 1847 L781 1847 L597 1567 L439 1567 L262 1847 L431 1847 L523 1677 Z " />
<glyph glyph-name="tcaron" unicode="&#x165;" horiz-adv-x="629" d="M437 161 L457 2 Q396 -14 347 -14 Q270 -14 223 16.5 Q176 47 158.5 100 Q141 153 141 311 L141 922 L33 922 L33 1062 L141 1062 L141 1325 L288 1433 L288 1062 L437 1062 L437 922 L288 922 L288 301 Q288 215 301 190 Q320 154 372 154 Q397 154 437 161 Z M477 1295 L477 1479 L628 1479 L628 1295 Q628 1134 505 1068 L468 1137 Q546 1180 552 1295 L477 1295 Z " />
<glyph glyph-name="Uring" unicode="&#x16e;" horiz-adv-x="1212" d="M915 1466 L1075 1466 L1075 619 Q1075 406 1033.5 269.5 Q992 133 882.5 54 Q773 -25 604 -25 Q366 -25 247.5 117 Q129 259 129 619 L129 1466 L288 1466 L288 620 Q288 421 319 332 Q350 243 420.5 196.5 Q491 150 592 150 Q762 150 838.5 246 Q915 342 915 620 L915 1466 Z M453 1754 Q453 1829 497.5 1881 Q542 1933 601 1933 Q659 1933 703.5 1881 Q748 1829 748 1750 Q748 1670 704 1618.5 Q660 1567 601 1567 Q542 1567 497.5 1619 Q453 1671 453 1754 Z M516 1753 Q516 1704 542 1673 Q568 1642 602 1642 Q636 1642 662.5 1673 Q689 1704 689 1751 Q689 1798 663 1829 Q637 1860 603 1860 Q568 1860 542 1829 Q516 1798 516 1753 Z " />
<glyph glyph-name="uring" unicode="&#x16f;" horiz-adv-x="934" d="M679 0 L679 156 Q628 66 559 21 Q490 -24 403 -24 Q300 -24 227 31.5 Q154 87 129.5 172 Q105 257 105 404 L105 1062 L252 1062 L252 473 Q252 309 268.5 253.5 Q285 198 329.5 164.5 Q374 131 431 131 Q537 131 605 218 Q663 293 663 493 L663 1062 L811 1062 L811 0 L679 0 Z M311 1342 Q311 1417 355.5 1469 Q400 1521 459 1521 Q517 1521 561.5 1469 Q606 1417 606 1338 Q606 1258 562 1206.5 Q518 1155 459 1155 Q400 1155 355.5 1207 Q311 1259 311 1342 Z M374 1341 Q374 1292 400 1261 Q426 1230 460 1230 Q494 1230 520.5 1261 Q547 1292 547 1339 Q547 1386 521 1417 Q495 1448 461 1448 Q426 1448 400 1417 Q374 1386 374 1341 Z " />
<glyph glyph-name="Udblacute" unicode="&#x170;" horiz-adv-x="1212" d="M915 1466 L1075 1466 L1075 619 Q1075 406 1033.5 269.5 Q992 133 882.5 54 Q773 -25 604 -25 Q366 -25 247.5 117 Q129 259 129 619 L129 1466 L288 1466 L288 620 Q288 421 319 332 Q350 243 420.5 196.5 Q491 150 592 150 Q762 150 838.5 246 Q915 342 915 620 L915 1466 Z M380 1566 L479 1846 L671 1846 L498 1566 L380 1566 Z M664 1566 L768 1846 L958 1846 L788 1566 L664 1566 Z " />
<glyph glyph-name="udblacute" unicode="&#x171;" horiz-adv-x="934" d="M679 0 L679 156 Q628 66 559 21 Q490 -24 403 -24 Q300 -24 227 31.5 Q154 87 129.5 172 Q105 257 105 404 L105 1062 L252 1062 L252 473 Q252 309 268.5 253.5 Q285 198 329.5 164.5 Q374 131 431 131 Q537 131 605 218 Q663 293 663 493 L663 1062 L811 1062 L811 0 L679 0 Z M223 1194 L322 1474 L514 1474 L341 1194 L223 1194 Z M507 1194 L611 1474 L801 1474 L631 1194 L507 1194 Z " />
<glyph glyph-name="Zacute" unicode="&#x179;" horiz-adv-x="1026" d="M36 0 L36 180 L652 1119 Q716 1217 777 1293 L105 1293 L105 1466 L966 1466 L966 1293 L292 276 L219 173 L986 173 L986 0 L36 0 Z M438 1566 L547 1846 L740 1846 L560 1566 L438 1566 Z " />
<glyph glyph-name="zacute" unicode="&#x17a;" horiz-adv-x="840" d="M33 0 L33 146 L588 922 Q493 916 421 916 L66 916 L66 1062 L778 1062 L778 943 L306 269 L215 146 Q314 155 401 155 L804 155 L804 0 L33 0 Z M282 1194 L391 1474 L584 1474 L404 1194 L282 1194 Z " />
<glyph glyph-name="Zdot" unicode="&#x17b;" horiz-adv-x="1026" d="M36 0 L36 180 L652 1119 Q716 1217 777 1293 L105 1293 L105 1466 L966 1466 L966 1293 L292 276 L219 173 L986 173 L986 0 L36 0 Z M447 1565 L447 1789 L630 1789 L630 1565 L447 1565 Z " />
<glyph glyph-name="zdot" unicode="&#x17c;" horiz-adv-x="840" d="M33 0 L33 146 L588 922 Q493 916 421 916 L66 916 L66 1062 L778 1062 L778 943 L306 269 L215 146 Q314 155 401 155 L804 155 L804 0 L33 0 Z M315 1194 L315 1418 L498 1418 L498 1194 L315 1194 Z " />
<glyph glyph-name="Gamma" unicode="&#x393;" horiz-adv-x="897" d="M132 1467 L861 1467 L861 1293 L291 1293 L291 0 L132 0 L132 1467 Z " />
<glyph glyph-name="Theta" unicode="&#x398;" horiz-adv-x="1229" d="M622 1503 Q769 1503 883 1425 Q997 1347 1072.5 1176 Q1148 1005 1148 731 Q1148 526 1094 346.5 Q1040 167 917.5 63.5 Q795 -40 618 -40 Q359 -40 220.5 170.5 Q82 381 82 734 Q82 1071 215.5 1287 Q349 1503 622 1503 Z M622 1345 Q441 1345 346 1188.5 Q251 1032 251 737 Q251 432 345.5 275 Q440 118 612 118 Q980 118 980 745 Q980 1028 885 1186.5 Q790 1345 622 1345 Z M391 829 L840 829 L840 662 L391 662 L391 829 Z " />
<glyph glyph-name="Phi" unicode="&#x3a6;" horiz-adv-x="1357" d="M601 1503 L760 1503 L760 1309 Q1287 1286 1287 724 Q1287 159 760 137 L760 -175 L601 -175 L601 137 Q71 160 71 724 Q71 1287 601 1309 L601 1503 Z M601 1155 Q243 1151 243 723 Q243 314 601 289 L601 1155 Z M760 1155 L760 289 Q943 293 1029.5 406.5 Q1116 520 1116 724 Q1116 1147 760 1155 Z " />
<glyph glyph-name="alpha" unicode="&#x3b1;" horiz-adv-x="1013" d="M751 192 Q639 -28 446 -28 Q322 -28 230.5 47 Q139 122 97.5 248 Q56 374 56 510 Q56 770 162.5 925 Q269 1080 451 1080 Q652 1080 747 883 L783 1063 L943 1063 Q885 805 885 549 Q885 248 954 0 L789 0 Q763 112 751 192 Z M479 942 Q353 942 290.5 828.5 Q228 715 228 531 Q228 334 293.5 222 Q359 110 479 110 Q731 110 731 532 Q731 735 663.5 838.5 Q596 942 479 942 Z " />
<glyph glyph-name="delta" unicode="&#x3b4;" horiz-adv-x="934" d="M143 1337 L143 1466 L801 1466 L801 1321 L340 1321 Q416 1229 550 1112.5 Q684 996 742.5 930.5 Q801 865 839 767.5 Q877 670 877 528 Q877 271 766.5 124 Q656 -23 473 -23 Q281 -23 170 123.5 Q59 270 59 516 Q59 751 158 895.5 Q257 1040 424 1049 Q328 1134 143 1337 Z M467 909 Q355 909 283 800.5 Q211 692 211 514 Q211 340 285.5 232.5 Q360 125 471 125 Q584 125 654.5 229.5 Q725 334 725 516 Q725 699 653.5 804 Q582 909 467 909 Z " />
<glyph glyph-name="epsilon" unicode="&#x3b5;" horiz-adv-x="729" d="M420 618 L451 618 L451 473 L424 473 Q203 473 203 297 Q203 222 248.5 173.5 Q294 125 360 125 Q471 125 573 256 L680 145 Q608 56 533 16.5 Q458 -23 346 -23 Q212 -23 131.5 66 Q51 155 51 289 Q51 475 195 549 Q74 629 74 784 Q74 912 151.5 998.5 Q229 1085 362 1085 Q530 1085 649 942 L543 838 Q441 930 354 930 Q290 930 252.5 887.5 Q215 845 215 784 Q215 618 420 618 Z " />
<glyph glyph-name="sigma" unicode="&#x3c3;" horiz-adv-x="1117" d="M806 912 Q923 776 923 529 Q923 275 809 123.5 Q695 -28 492 -28 Q283 -28 169.5 125 Q56 278 56 528 Q56 788 173 934 Q290 1080 468 1080 Q503 1080 597 1072 Q633 1068 705 1064 L1085 1064 L1085 912 L806 912 Z M496 955 Q225 955 225 513 Q225 326 293.5 217 Q362 108 487 108 Q620 108 686.5 219 Q753 330 753 537 Q753 728 687.5 841.5 Q622 955 496 955 Z " />
<glyph glyph-name="tau" unicode="&#x3c4;" horiz-adv-x="641" d="M614 915 L403 915 L403 0 L256 0 L256 915 L27 915 L27 1061 L614 1061 L614 915 Z " />
<glyph glyph-name="phi" unicode="&#x3c6;" horiz-adv-x="1090" d="M477 -408 L477 -25 Q290 -5 174.5 160 Q59 325 59 557 Q59 785 161.5 935.5 Q264 1086 410 1083 L381 928 Q211 858 211 565 Q211 400 280 284.5 Q349 169 477 133 L477 793 Q477 977 524.5 1031 Q572 1085 674 1085 Q852 1085 941 925 Q1030 765 1030 584 Q1030 359 925 195 Q820 31 625 -25 L625 -408 L477 -408 Z M625 764 L625 139 Q740 166 809.5 290.5 Q879 415 879 594 Q879 754 828.5 846 Q778 938 709 938 Q666 938 645.5 901 Q625 864 625 764 Z " />
<glyph glyph-name="underscoredbl" unicode="&#x2017;" horiz-adv-x="1024" d="M1042 -284 L-17 -284 L-17 -200 L1042 -200 L1042 -284 Z M1042 -442 L-17 -442 L-17 -358 L1042 -358 L1042 -442 Z " />
<glyph glyph-name="exclamdbl" unicode="&#x203c;" horiz-adv-x="934" d="M197 364 L152 1141 L152 1466 L335 1466 L335 1141 L293 364 L197 364 Z M159 0 L159 205 L328 205 L328 0 L159 0 Z M633 364 L588 1141 L588 1466 L771 1466 L771 1141 L729 364 L633 364 Z M595 0 L595 205 L764 205 L764 0 L595 0 Z " />
<glyph glyph-name="nsuperior" unicode="&#x207f;" horiz-adv-x="612" d="M67 805 L67 1470 L173 1470 L173 1401 Q241 1484 344 1484 Q418 1484 467 1446.5 Q516 1409 531.5 1355.5 Q547 1302 547 1210 L547 805 L431 805 L431 1206 Q431 1289 406.5 1326 Q382 1363 322 1363 Q183 1363 183 1167 L183 805 L67 805 Z " />
<glyph glyph-name="peseta" unicode="&#x20a7;" horiz-adv-x="1952" d="M130 1466 L509 1466 Q681 1466 780.5 1362 Q880 1258 889 1064 L965 1064 L965 1374 L1114 1373 L1114 1064 L1376 1064 Q1442 1092 1519 1092 Q1613 1092 1686 1055 Q1759 1018 1806.5 947.5 Q1854 877 1855 763 L1701 764 Q1691 934 1527 934 Q1455 934 1408 899 Q1361 864 1361 808 Q1361 751 1409 715.5 Q1457 680 1581 644 Q1752 594 1820 518.5 Q1888 443 1888 313 Q1888 157 1780 65.5 Q1672 -26 1530 -26 Q1345 -26 1246 131 L1245 0 Q1200 -16 1169 -16 Q1102 -16 1055 9.5 Q1008 35 986.5 76.5 Q965 118 965 208 L965 919 L881 919 Q857 808 801 732.5 Q745 657 664.5 627.5 Q584 598 420 598 L289 598 L289 0 L130 0 L130 1466 Z M289 1295 L289 767 L397 767 Q530 767 595 793.5 Q660 820 693.5 882.5 Q727 945 727 1031 Q727 1118 693 1182.5 Q659 1247 605 1271 Q551 1295 457 1295 L289 1295 Z M1114 919 L1114 264 Q1113 234 1113 233 Q1113 151 1187 151 Q1207 151 1230 161 Q1197 244 1195 338 L1344 337 Q1349 231 1408.5 179 Q1468 127 1545 127 Q1622 127 1681 176.5 Q1740 226 1740 294 Q1740 341 1707 377.5 Q1674 414 1539 458 Q1401 503 1343.5 539 Q1286 575 1250.5 636 Q1215 697 1215 779 Q1215 861 1241 918 L1114 919 Z " />
<glyph glyph-name="arrowleft" unicode="&#x2190;" horiz-adv-x="2048" d="M492 876 L568 876 Q509 758 479.5 710.5 Q450 663 373 567 L1968 567 L1968 466 L373 466 Q477 358 571 157 L493 157 Q364 301 271 375.5 Q178 450 79 498 L79 543 Q166 580 263 656 Q360 732 492 876 Z " />
<glyph glyph-name="arrowup" unicode="&#x2191;" horiz-adv-x="1024" d="M153 926 Q298 1059 373.5 1156 Q449 1253 486 1339 L532 1339 Q579 1240 653.5 1147 Q728 1054 872 925 L872 848 Q671 942 563 1045 L563 -429 L462 -429 L462 1045 Q366 969 318.5 939 Q271 909 153 850 L153 926 Z " />
<glyph glyph-name="arrowright" unicode="&#x2192;" horiz-adv-x="2048" d="M1555 876 Q1688 731 1785 655.5 Q1882 580 1968 543 L1968 498 Q1869 450 1776 375.5 Q1683 301 1554 157 L1477 157 Q1571 358 1674 466 L79 466 L79 567 L1674 567 Q1598 664 1568 711 Q1538 758 1479 876 L1555 876 Z " />
<glyph glyph-name="arrowdown" unicode="&#x2193;" horiz-adv-x="1024" d="M153 -16 L153 60 Q272 1 319 -29 Q366 -59 462 -135 L462 1339 L563 1339 L563 -135 Q671 -32 872 62 L872 -15 Q728 -144 653.5 -237 Q579 -330 532 -429 L486 -429 Q449 -343 373.5 -246 Q298 -149 153 -16 Z " />
<glyph glyph-name="arrowboth" unicode="&#x2194;" horiz-adv-x="2048" d="M1968 540 L1968 495 Q1874 452 1783 379 Q1692 306 1562 158 L1482 158 Q1551 330 1676 469 L371 469 Q496 330 565 158 L485 158 Q355 306 264 379 Q173 452 79 495 L79 540 Q173 584 264 656.5 Q355 729 485 878 L565 878 Q496 706 371 567 L1676 567 Q1551 706 1482 878 L1562 878 Q1692 729 1783 656.5 Q1874 584 1968 540 Z " />
<glyph glyph-name="arrowupdn" unicode="&#x2195;" horiz-adv-x="1024" d="M489 1463 L534 1463 Q578 1369 650.5 1277.5 Q723 1186 871 1056 L871 976 Q700 1045 560 1171 L560 -135 Q700 -9 871 59 L871 -20 Q723 -150 650.5 -241.5 Q578 -333 534 -427 L489 -427 Q446 -333 373 -241.5 Q300 -150 152 -20 L152 59 Q323 -9 463 -135 L463 1171 Q323 1045 152 976 L152 1056 Q300 1186 373 1277.5 Q446 1369 489 1463 Z " />
<glyph glyph-name="arrowupdnbse" unicode="&#x21a8;" horiz-adv-x="1024" d="M489 1463 L534 1463 Q578 1369 650.5 1277.5 Q723 1186 871 1056 L871 976 Q700 1045 560 1171 L560 -135 Q700 -9 871 59 L871 -20 Q723 -150 650.5 -241.5 Q578 -333 534 -427 L489 -427 Q446 -333 373 -241.5 Q300 -150 152 -20 L152 59 Q323 -9 463 -135 L463 1171 Q323 1045 152 976 L152 1056 Q300 1186 373 1277.5 Q446 1369 489 1463 Z M154 -522 L871 -522 L871 -620 L154 -620 L154 -522 Z " />
<glyph glyph-name="orthogonal" unicode="&#x221f;" horiz-adv-x="2005" d="M362 1279 L462 1279 L462 100 L1643 100 L1643 0 L362 0 L362 1279 Z " />
<glyph glyph-name="intersection" unicode="&#x2229;" horiz-adv-x="1479" d="M302 0 L192 0 L192 560 Q192 808 198 874 Q210 993 242 1069 Q274 1145 344 1218.5 Q414 1292 517.5 1338 Q621 1384 737 1384 Q849 1384 951 1340 Q1053 1296 1128 1220.5 Q1203 1145 1235 1060 Q1267 975 1277 848 Q1281 798 1281 560 L1281 0 L1172 0 L1172 566 Q1172 784 1166 847 Q1155 958 1129.5 1023.5 Q1104 1089 1049.5 1146.5 Q995 1204 910.5 1241 Q826 1278 736 1278 Q662 1278 592.5 1252.5 Q523 1227 473.5 1189.5 Q424 1152 393.5 1112.5 Q363 1073 349 1038 Q324 978 313 891.5 Q302 805 302 566 L302 0 Z " />
<glyph glyph-name="equivalence" unicode="&#x2261;" horiz-adv-x="979" d="M887 1085 L93 1085 L93 1252 L887 1252 L887 1085 Z M887 639 L93 639 L93 807 L887 807 L887 639 Z M887 194 L93 194 L93 362 L887 362 L887 194 Z " />
<glyph glyph-name="house" unicode="&#x2302;" horiz-adv-x="1229" d="M153 0 L153 634 L614 1153 L1076 634 L1076 0 L153 0 Z M234 81 L995 81 L995 600 L614 1027 L234 600 L234 81 Z " />
<glyph glyph-name="revlogicalnot" unicode="&#x2310;" horiz-adv-x="981" d="M92 424 L92 1030 L886 1030 L886 862 L232 862 L232 424 L92 424 Z " />
<glyph glyph-name="integraltp" unicode="&#x2320;" horiz-adv-x="1237" d="M691 -515 L546 -515 L546 1296 Q546 1515 635.5 1626 Q725 1737 838 1737 Q905 1737 940.5 1704.5 Q976 1672 976 1628 Q976 1588 950.5 1562 Q925 1536 888 1536 Q858 1536 831 1551 Q813 1561 789.5 1597.5 Q766 1634 743 1634 Q726 1634 712 1622 Q702 1614 698 1595 Q691 1562 691 1456 L691 -515 Z " />
<glyph glyph-name="integralbt" unicode="&#x2321;" horiz-adv-x="1237" d="M546 1737 L691 1737 L691 -74 Q691 -293 601.5 -404 Q512 -515 399 -515 Q332 -515 296.5 -482.5 Q261 -450 261 -406 Q261 -366 286.5 -340 Q312 -314 348 -314 Q379 -314 407 -330 Q425 -340 448 -376 Q471 -412 494 -412 Q511 -412 525 -401 Q535 -393 539 -372 Q546 -340 546 -234 L546 1737 Z " />
<glyph glyph-name="SF100000" unicode="&#x2500;" horiz-adv-x="1451" d="M1473 534 L-23 534 L-23 709 L1473 709 L1473 534 Z " />
<glyph glyph-name="SF110000" unicode="&#x2502;" horiz-adv-x="1261" d="M448 -621 L448 1864 L623 1864 L623 -621 L448 -621 Z " />
<glyph glyph-name="SF010000" unicode="&#x250c;" horiz-adv-x="1451" d="M1474 709 L1474 534 L813 534 L813 -621 L638 -621 L638 709 L1474 709 Z " />
<glyph glyph-name="SF030000" unicode="&#x2510;" horiz-adv-x="1451" d="M637 534 L-23 534 L-23 709 L812 709 L812 -621 L637 -621 L637 534 Z " />
<glyph glyph-name="SF020000" unicode="&#x2514;" horiz-adv-x="1451" d="M638 534 L638 1864 L813 1864 L813 709 L1474 709 L1474 534 L638 534 Z " />
<glyph glyph-name="SF040000" unicode="&#x2518;" horiz-adv-x="1451" d="M812 534 L-23 534 L-23 709 L637 709 L637 1864 L812 1864 L812 534 Z " />
<glyph glyph-name="SF080000" unicode="&#x251c;" horiz-adv-x="1451" d="M638 -621 L638 1864 L813 1864 L813 709 L1474 709 L1474 534 L813 534 L813 -621 L638 -621 Z " />
<glyph glyph-name="SF090000" unicode="&#x2524;" horiz-adv-x="1451" d="M637 -621 L637 534 L-23 534 L-23 709 L637 709 L637 1864 L812 1864 L812 -621 L637 -621 Z " />
<glyph glyph-name="SF060000" unicode="&#x252c;" horiz-adv-x="1451" d="M637 534 L-23 534 L-23 709 L1473 709 L1473 534 L812 534 L812 -621 L637 -621 L637 534 Z " />
<glyph glyph-name="SF070000" unicode="&#x2534;" horiz-adv-x="1451" d="M1473 534 L-23 534 L-23 709 L637 709 L637 1864 L812 1864 L812 709 L1473 709 L1473 534 Z " />
<glyph glyph-name="SF050000" unicode="&#x253c;" horiz-adv-x="1451" d="M637 534 L-23 534 L-23 709 L637 709 L637 1864 L812 1864 L812 709 L1473 709 L1473 534 L812 534 L812 -621 L637 -621 L637 534 Z " />
<glyph glyph-name="SF430000" unicode="&#x2550;" horiz-adv-x="1451" d="M1496 724 L0 724 L0 899 L1496 899 L1496 724 Z M1496 344 L0 344 L0 519 L1496 519 L1496 344 Z " />
<glyph glyph-name="SF240000" unicode="&#x2551;" horiz-adv-x="1451" d="M380 -621 L380 1864 L555 1864 L555 -621 L380 -621 Z M0 -621 L0 1864 L175 1864 L175 -621 L0 -621 Z " />
<glyph glyph-name="SF510000" unicode="&#x2552;" horiz-adv-x="1451" d="M0 -621 L0 899 L836 899 L836 724 L175 724 L175 519 L836 519 L836 344 L175 344 L175 -621 L0 -621 Z " />
<glyph glyph-name="SF520000" unicode="&#x2553;" horiz-adv-x="1451" d="M0 -621 L0 709 L1026 709 L1026 534 L555 534 L555 -621 L380 -621 L380 519 L175 519 L175 -621 L0 -621 Z " />
<glyph glyph-name="SF390000" unicode="&#x2554;" horiz-adv-x="1451" d="M175 -621 L0 -621 L0 899 L1025 899 L1025 724 L175 724 L175 -621 Z M555 344 L555 -621 L380 -621 L380 519 L1025 519 L1025 344 L555 344 Z " />
<glyph glyph-name="SF220000" unicode="&#x2555;" horiz-adv-x="1451" d="M660 344 L0 344 L0 519 L660 519 L660 724 L0 724 L0 899 L835 899 L835 -621 L660 -621 L660 344 Z " />
<glyph glyph-name="SF210000" unicode="&#x2556;" horiz-adv-x="1451" d="M470 -621 L471 534 L0 534 L0 709 L1025 709 L1025 -621 L850 -621 L850 534 L645 534 L645 -621 L470 -621 Z " />
<glyph glyph-name="SF250000" unicode="&#x2557;" horiz-adv-x="1451" d="M850 -621 L850 724 L0 724 L0 899 L1025 899 L1025 -621 L850 -621 Z M470 344 L0 344 L0 519 L645 519 L645 -621 L470 -621 L470 344 Z " />
<glyph glyph-name="SF500000" unicode="&#x2558;" horiz-adv-x="1451" d="M0 344 L0 1864 L175 1864 L175 899 L836 899 L836 724 L175 724 L175 519 L836 519 L836 344 L0 344 Z " />
<glyph glyph-name="SF490000" unicode="&#x2559;" horiz-adv-x="1451" d="M1026 534 L0 534 L0 1864 L175 1864 L175 709 L380 709 L380 1864 L555 1864 L555 709 L1026 709 L1026 534 Z " />
<glyph glyph-name="SF380000" unicode="&#x255a;" horiz-adv-x="1451" d="M175 1864 L175 519 L1025 519 L1025 344 L0 344 L0 1864 L175 1864 Z M555 899 L1025 899 L1025 724 L380 724 L380 1864 L555 1864 L555 899 Z " />
<glyph glyph-name="SF280000" unicode="&#x255b;" horiz-adv-x="1451" d="M835 344 L0 344 L0 519 L660 519 L660 724 L0 724 L0 899 L660 899 L660 1864 L835 1864 L835 344 Z " />
<glyph glyph-name="SF270000" unicode="&#x255c;" horiz-adv-x="1451" d="M1025 534 L0 534 L0 709 L470 709 L470 1864 L645 1864 L645 709 L850 709 L850 1864 L1025 1864 L1025 534 Z " />
<glyph glyph-name="SF260000" unicode="&#x255d;" horiz-adv-x="1451" d="M850 1864 L1025 1864 L1025 344 L0 344 L0 519 L850 519 L850 1864 Z M470 899 L470 1864 L645 1864 L645 724 L0 724 L0 899 L470 899 Z " />
<glyph glyph-name="SF360000" unicode="&#x255e;" horiz-adv-x="1451" d="M0 -621 L0 1864 L175 1864 L175 899 L836 899 L836 724 L175 724 L175 519 L836 519 L836 344 L175 344 L175 -621 L0 -621 Z " />
<glyph glyph-name="SF370000" unicode="&#x255f;" horiz-adv-x="1451" d="M380 -621 L380 1864 L555 1864 L555 709 L1026 709 L1026 534 L555 534 L555 -621 L380 -621 Z M0 -621 L0 1864 L175 1864 L175 -621 L0 -621 Z " />
<glyph glyph-name="SF420000" unicode="&#x2560;" horiz-adv-x="1451" d="M0 -621 L0 1864 L175 1864 L175 -621 L0 -621 Z M380 724 L380 1864 L555 1864 L555 899 L1026 899 L1026 724 L380 724 Z M380 -621 L380 519 L1026 519 L1026 344 L555 344 L555 -621 L380 -621 Z " />
<glyph glyph-name="SF190000" unicode="&#x2561;" horiz-adv-x="1451" d="M660 344 L0 344 L0 519 L661 519 L660 724 L0 724 L0 899 L660 899 L660 1864 L835 1864 L835 -621 L660 -621 L660 344 Z " />
<glyph glyph-name="SF200000" unicode="&#x2562;" horiz-adv-x="1451" d="M470 -621 L471 534 L0 534 L0 709 L470 709 L470 1864 L645 1864 L645 -621 L470 -621 Z M850 -621 L850 1864 L1025 1864 L1025 -621 L850 -621 Z " />
<glyph glyph-name="SF230000" unicode="&#x2563;" horiz-adv-x="1451" d="M850 -621 L850 1864 L1025 1864 L1025 -621 L850 -621 Z M645 1864 L645 724 L0 724 L0 899 L470 899 L470 1864 L645 1864 Z M470 344 L0 344 L0 519 L645 519 L645 -621 L470 -621 L470 344 Z " />
<glyph glyph-name="SF470000" unicode="&#x2564;" horiz-adv-x="1451" d="M1496 724 L0 724 L0 899 L1496 899 L1496 724 Z M660 344 L0 344 L0 519 L1496 519 L1496 344 L835 344 L835 -621 L660 -621 L660 344 Z " />
<glyph glyph-name="SF480000" unicode="&#x2565;" horiz-adv-x="1451" d="M470 -621 L471 534 L0 534 L0 709 L1496 709 L1496 534 L1025 534 L1025 -621 L850 -621 L850 519 L645 519 L645 -621 L470 -621 Z " />
<glyph glyph-name="SF410000" unicode="&#x2566;" horiz-adv-x="1451" d="M1496 724 L0 724 L0 899 L1496 899 L1496 724 Z M470 344 L0 344 L0 519 L645 519 L645 -621 L470 -621 L470 344 Z M850 -621 L850 519 L1496 519 L1496 344 L1025 344 L1025 -621 L850 -621 Z " />
<glyph glyph-name="SF450000" unicode="&#x2567;" horiz-adv-x="1451" d="M1496 724 L0 724 L0 899 L660 899 L660 1864 L835 1864 L835 899 L1496 899 L1496 724 Z M1496 344 L0 344 L0 519 L1496 519 L1496 344 Z " />
<glyph glyph-name="SF460000" unicode="&#x2568;" horiz-adv-x="1451" d="M1496 534 L0 534 L0 709 L470 709 L470 1864 L645 1864 L645 709 L850 709 L850 1864 L1025 1864 L1025 709 L1496 709 L1496 534 Z " />
<glyph glyph-name="SF400000" unicode="&#x2569;" horiz-adv-x="1451" d="M645 724 L0 724 L0 899 L470 899 L470 1864 L645 1864 L645 724 Z M1496 724 L850 724 L850 1864 L1025 1864 L1025 899 L1496 899 L1496 724 Z M1496 344 L0 344 L0 519 L1496 519 L1496 344 Z " />
<glyph glyph-name="SF540000" unicode="&#x256a;" horiz-adv-x="1451" d="M660 344 L0 344 L0 519 L660 519 L660 724 L0 724 L0 899 L660 899 L660 1864 L835 1864 L835 899 L1496 899 L1496 724 L835 724 L835 519 L1496 519 L1496 344 L835 344 L835 -621 L660 -621 L660 344 Z " />
<glyph glyph-name="SF530000" unicode="&#x256b;" horiz-adv-x="1451" d="M470 -621 L471 534 L0 534 L0 709 L470 709 L470 1864 L645 1864 L645 709 L850 709 L850 1864 L1025 1864 L1025 709 L1496 709 L1496 534 L1025 534 L1025 -621 L850 -621 L850 534 L645 534 L645 -621 L470 -621 Z " />
<glyph glyph-name="SF440000" unicode="&#x256c;" horiz-adv-x="1451" d="M1026 899 L1496 899 L1496 724 L851 724 L851 1864 L1026 1864 L1026 899 Z M470 899 L470 1864 L645 1864 L645 724 L0 724 L0 899 L470 899 Z M470 344 L0 344 L0 519 L645 519 L645 -621 L470 -621 L470 344 Z M1026 344 L1026 -621 L851 -621 L851 519 L1496 519 L1496 344 L1026 344 Z " />
<glyph glyph-name="upblock" unicode="&#x2580;" horiz-adv-x="1451" d="M1496 621 L0 621 L0 1864 L1496 1864 L1496 621 Z " />
<glyph glyph-name="dnblock" unicode="&#x2584;" horiz-adv-x="1451" d="M1496 -621 L0 -621 L0 621 L1496 621 L1496 -621 Z " />
<glyph glyph-name="block" unicode="&#x2588;" horiz-adv-x="1451" d="M0 -621 L0 1864 L1496 1864 L1496 -621 L0 -621 Z " />
<glyph glyph-name="lfblock" unicode="&#x258c;" horiz-adv-x="1451" d="M0 -621 L0 1864 L748 1864 L748 -621 L0 -621 Z " />
<glyph glyph-name="rtblock" unicode="&#x2590;" horiz-adv-x="1451" d="M0 -621 L0 1864 L748 1864 L748 -621 L0 -621 Z " />
<glyph glyph-name="ltshade" unicode="&#x2591;" horiz-adv-x="1451" d="M102 1864 L227 1864 L227 1739 L102 1739 L102 1864 Z M600 1864 L725 1864 L725 1739 L600 1739 L600 1864 Z M1099 1864 L1224 1864 L1224 1739 L1099 1739 L1099 1864 Z M351 1615 L476 1615 L476 1490 L351 1490 L351 1615 Z M850 1615 L974 1615 L974 1490 L850 1490 L850 1615 Z M1348 1615 L1473 1615 L1473 1490 L1348 1490 L1348 1615 Z M1099 1366 L1224 1366 L1224 1241 L1099 1241 L1099 1366 Z M600 1366 L725 1366 L725 1241 L600 1241 L600 1366 Z M102 1366 L227 1366 L227 1241 L102 1241 L102 1366 Z M1348 1116 L1473 1116 L1473 992 L1348 992 L1348 1116 Z M850 1116 L974 1116 L974 992 L850 992 L850 1116 Z M351 1116 L476 1116 L476 992 L351 992 L351 1116 Z M102 867 L227 867 L227 742 L102 742 L102 867 Z M600 867 L725 867 L725 742 L600 742 L600 867 Z M1099 867 L1224 867 L1224 742 L1099 742 L1099 867 Z M1348 618 L1473 618 L1473 493 L1348 493 L1348 618 Z M850 618 L974 618 L974 493 L850 493 L850 618 Z M351 618 L476 618 L476 493 L351 493 L351 618 Z M102 369 L227 369 L227 244 L102 244 L102 369 Z M600 369 L725 369 L725 244 L600 244 L600 369 Z M1099 369 L1224 369 L1224 244 L1099 244 L1099 369 Z M351 119 L476 119 L476 -5 L351 -5 L351 119 Z M850 119 L974 119 L974 -5 L850 -5 L850 119 Z M1348 119 L1473 119 L1473 -5 L1348 -5 L1348 119 Z M1099 -130 L1224 -130 L1224 -255 L1099 -255 L1099 -130 Z M600 -130 L725 -130 L725 -255 L600 -255 L600 -130 Z M102 -130 L227 -130 L227 -255 L102 -255 L102 -130 Z M351 -379 L476 -379 L476 -504 L351 -504 L351 -379 Z M850 -379 L974 -379 L974 -504 L850 -504 L850 -379 Z M1348 -379 L1473 -379 L1473 -504 L1348 -504 L1348 -379 Z " />
<glyph glyph-name="shade" unicode="&#x2592;" horiz-adv-x="1451" d="M103 1864 L227 1864 L227 1739 L103 1739 L103 1864 Z M352 1864 L476 1864 L476 1739 L352 1739 L352 1864 Z M601 1864 L726 1864 L726 1739 L601 1739 L601 1864 Z M850 1864 L975 1864 L975 1739 L850 1739 L850 1864 Z M1100 1864 L1224 1864 L1224 1739 L1100 1739 L1100 1864 Z M1349 1864 L1473 1864 L1473 1739 L1349 1739 L1349 1864 Z M-22 1615 L103 1615 L103 1490 L-22 1490 L-22 1615 Z M227 1615 L352 1615 L352 1490 L227 1490 L227 1615 Z M476 1615 L601 1615 L601 1490 L476 1490 L476 1615 Z M726 1615 L850 1615 L850 1490 L726 1490 L726 1615 Z M975 1615 L1100 1615 L1100 1490 L975 1490 L975 1615 Z M1224 1615 L1349 1615 L1349 1490 L1224 1490 L1224 1615 Z M103 1366 L227 1366 L227 1241 L103 1241 L103 1366 Z M352 1366 L476 1366 L476 1241 L352 1241 L352 1366 Z M601 1366 L726 1366 L726 1241 L601 1241 L601 1366 Z M850 1366 L975 1366 L975 1241 L850 1241 L850 1366 Z M1100 1366 L1224 1366 L1224 1241 L1100 1241 L1100 1366 Z M1349 1366 L1473 1366 L1473 1241 L1349 1241 L1349 1366 Z M227 1116 L352 1116 L352 992 L227 992 L227 1116 Z M476 1116 L601 1116 L601 992 L476 992 L476 1116 Z M726 1116 L850 1116 L850 992 L726 992 L726 1116 Z M975 1116 L1100 1116 L1100 992 L975 992 L975 1116 Z M1224 1116 L1349 1116 L1349 992 L1224 992 L1224 1116 Z M-22 1116 L103 1116 L103 992 L-22 992 L-22 1116 Z M103 867 L227 867 L227 742 L103 742 L103 867 Z M352 867 L476 867 L476 742 L352 742 L352 867 Z M601 867 L726 867 L726 742 L601 742 L601 867 Z M850 867 L975 867 L975 742 L850 742 L850 867 Z M1100 867 L1224 867 L1224 742 L1100 742 L1100 867 Z M1349 867 L1473 867 L1473 742 L1349 742 L1349 867 Z M-22 618 L103 618 L103 493 L-22 493 L-22 618 Z M476 618 L601 618 L601 493 L476 493 L476 618 Z M726 618 L850 618 L850 493 L726 493 L726 618 Z M975 618 L1100 618 L1100 493 L975 493 L975 618 Z M1224 618 L1349 618 L1349 493 L1224 493 L1224 618 Z M227 618 L352 618 L352 493 L227 493 L227 618 Z M1349 369 L1473 369 L1473 244 L1349 244 L1349 369 Z M1100 369 L1224 369 L1224 244 L1100 244 L1100 369 Z M850 369 L975 369 L975 244 L850 244 L850 369 Z M601 369 L726 369 L726 244 L601 244 L601 369 Z M352 369 L476 369 L476 244 L352 244 L352 369 Z M103 369 L227 369 L227 244 L103 244 L103 369 Z M-22 119 L103 119 L103 -5 L-22 -5 L-22 119 Z M227 119 L352 119 L352 -5 L227 -5 L227 119 Z M476 119 L601 119 L601 -5 L476 -5 L476 119 Z M726 119 L850 119 L850 -5 L726 -5 L726 119 Z M975 119 L1100 119 L1100 -5 L975 -5 L975 119 Z M1224 119 L1349 119 L1349 -5 L1224 -5 L1224 119 Z M1349 -130 L1473 -130 L1473 -255 L1349 -255 L1349 -130 Z M1100 -130 L1224 -130 L1224 -255 L1100 -255 L1100 -130 Z M850 -130 L975 -130 L975 -255 L850 -255 L850 -130 Z M601 -130 L726 -130 L726 -255 L601 -255 L601 -130 Z M352 -130 L476 -130 L476 -255 L352 -255 L352 -130 Z M103 -130 L227 -130 L227 -255 L103 -255 L103 -130 Z M-22 -379 L103 -379 L103 -504 L-22 -504 L-22 -379 Z M227 -379 L352 -379 L352 -504 L227 -504 L227 -379 Z M476 -379 L601 -379 L601 -504 L476 -504 L476 -379 Z M726 -379 L850 -379 L850 -504 L726 -504 L726 -379 Z M975 -379 L1100 -379 L1100 -504 L975 -504 L975 -379 Z M1224 -379 L1349 -379 L1349 -504 L1224 -504 L1224 -379 Z " />
<glyph glyph-name="dkshade" unicode="&#x2593;" horiz-adv-x="1493" d="M1494 1490 L1494 1116 L1370 1116 L1370 992 L1494 992 L1494 618 L1370 618 L1370 493 L1494 493 L1494 119 L1370 119 L1370 -5 L1494 -5 L1494 -379 L1370 -379 L1370 -504 L1494 -504 L1494 -628 L-1 -628 L-1 -255 L124 -255 L124 -130 L-1 -130 L-1 244 L124 244 L124 369 L-1 369 L-1 742 L124 742 L124 867 L-1 867 L-1 1241 L124 1241 L124 1366 L-1 1366 L-1 1739 L124 1739 L124 1864 L248 1864 L248 1739 L373 1739 L373 1864 L497 1864 L497 1739 L622 1739 L622 1864 L747 1864 L747 1739 L871 1739 L871 1864 L996 1864 L996 1739 L1121 1739 L1121 1864 L1245 1864 L1245 1739 L1370 1739 L1370 1864 L1494 1864 L1494 1615 L1370 1615 L1370 1490 L1494 1490 Z M124 1615 L124 1490 L248 1490 L248 1615 L124 1615 Z M373 1615 L373 1490 L497 1490 L497 1615 L373 1615 Z M622 1615 L622 1490 L747 1490 L747 1615 L622 1615 Z M871 1615 L871 1490 L996 1490 L996 1615 L871 1615 Z M1121 1615 L1121 1490 L1245 1490 L1245 1615 L1121 1615 Z M1370 1366 L1245 1366 L1245 1241 L1370 1241 L1370 1366 Z M1121 1366 L996 1366 L996 1241 L1121 1241 L1121 1366 Z M871 1366 L747 1366 L747 1241 L871 1241 L871 1366 Z M622 1366 L497 1366 L497 1241 L622 1241 L622 1366 Z M373 1366 L248 1366 L248 1241 L373 1241 L373 1366 Z M124 1116 L124 992 L248 992 L248 1116 L124 1116 Z M373 1116 L373 992 L497 992 L497 1116 L373 1116 Z M622 1116 L622 992 L747 992 L747 1116 L622 1116 Z M871 1116 L871 992 L996 992 L996 1116 L871 1116 Z M1121 1116 L1121 992 L1245 992 L1245 1116 L1121 1116 Z M373 867 L248 867 L248 742 L373 742 L373 867 Z M497 867 L497 742 L622 742 L622 867 L497 867 Z M747 867 L747 742 L871 742 L871 867 L747 867 Z M996 867 L996 742 L1121 742 L1121 867 L996 867 Z M1245 867 L1245 742 L1370 742 L1370 867 L1245 867 Z M124 618 L124 493 L248 493 L248 618 L124 618 Z M622 618 L622 493 L747 493 L747 618 L622 618 Z M497 493 L497 618 L373 618 L373 493 L497 493 Z M871 618 L871 493 L996 493 L996 618 L871 618 Z M1121 618 L1121 493 L1245 493 L1245 618 L1121 618 Z M1370 244 L1370 369 L1245 369 L1245 244 L1370 244 Z M1121 244 L1121 369 L996 369 L996 244 L1121 244 Z M871 244 L871 369 L747 369 L747 244 L871 244 Z M622 244 L622 369 L497 369 L497 244 L622 244 Z M373 244 L373 369 L248 369 L248 244 L373 244 Z M124 119 L124 -5 L248 -5 L248 119 L124 119 Z M373 119 L373 -5 L497 -5 L497 119 L373 119 Z M622 119 L622 -5 L747 -5 L747 119 L622 119 Z M871 119 L871 -5 L996 -5 L996 119 L871 119 Z M1121 119 L1121 -5 L1245 -5 L1245 119 L1121 119 Z M1370 -255 L1370 -130 L1245 -130 L1245 -255 L1370 -255 Z M1121 -255 L1121 -130 L996 -130 L996 -255 L1121 -255 Z M871 -255 L871 -130 L747 -130 L747 -255 L871 -255 Z M622 -255 L622 -130 L497 -130 L497 -255 L622 -255 Z M373 -255 L373 -130 L248 -130 L248 -255 L373 -255 Z M124 -379 L124 -504 L248 -504 L248 -379 L124 -379 Z M373 -379 L373 -504 L497 -504 L497 -379 L373 -379 Z M622 -379 L622 -504 L747 -504 L747 -379 L622 -379 Z M871 -379 L871 -504 L996 -504 L996 -379 L871 -379 Z M1121 -379 L1121 -504 L1245 -504 L1245 -379 L1121 -379 Z " />
<glyph glyph-name="filledbox" unicode="&#x25a0;" horiz-adv-x="1237" d="M0 944 L944 944 L944 0 L0 0 L0 944 Z " />
<glyph glyph-name="filledrect" unicode="&#x25ac;" horiz-adv-x="2048" d="M0 703 L2047 703 L2047 317 L0 317 L0 703 Z " />
<glyph glyph-name="triagup" unicode="&#x25b2;" horiz-adv-x="2027" d="M0 0 L710 1419 L1420 0 L0 0 Z " />
<glyph glyph-name="triagrt" unicode="&#x25ba;" horiz-adv-x="2027" d="M0 1417 L1451 693 L0 -31 L0 1417 Z " />
<glyph glyph-name="triagdn" unicode="&#x25bc;" horiz-adv-x="2027" d="M1420 1388 L710 -31 L0 1388 L1420 1388 Z " />
<glyph glyph-name="triaglf" unicode="&#x25c4;" horiz-adv-x="2027" d="M1739 1417 L1739 -31 L288 693 L1739 1417 Z " />
<glyph glyph-name="circle" unicode="&#x25cb;" horiz-adv-x="1237" d="M441 1018 Q551 1018 657 961 Q763 904 822 798 Q881 692 881 578 Q881 395 752 266 Q623 137 441 137 Q258 137 129 266 Q0 395 0 578 Q0 693 59 798.5 Q118 904 224 961 Q330 1018 441 1018 Z M441 942 Q348 942 261 895 Q174 848 125 760 Q76 672 76 578 Q76 427 183 320 Q290 213 441 213 Q592 213 698.5 320 Q805 427 805 578 Q805 672 756 760 Q707 848 620 895 Q533 942 441 942 Z " />
<glyph glyph-name="invbullet" unicode="&#x25d8;" horiz-adv-x="1237" d="M0 0 L0 980 L980 980 L980 0 L0 0 Z M490 692 Q406 692 347 633 Q288 574 288 490 Q288 407 347.5 347.5 Q407 288 490 288 Q574 288 633 347.5 Q692 407 692 490 Q692 574 633 633 Q574 692 490 692 Z " />
<glyph glyph-name="invcircle" unicode="&#x25d9;" horiz-adv-x="1237" d="M0 0 L0 1155 L1155 1155 L1155 0 L0 0 Z M577 1018 Q466 1018 360.5 961 Q255 904 196 798 Q137 692 137 577 Q137 395 266 266 Q395 137 577 137 Q760 137 889 266 Q1018 395 1018 577 Q1018 692 959 798 Q900 904 794.5 961 Q689 1018 577 1018 Z M578 942 Q669 942 756.5 895 Q844 848 893 760.5 Q942 673 942 577 Q942 426 835.5 319.5 Q729 213 578 213 Q426 213 319.5 319.5 Q213 426 213 577 Q213 673 262 760.5 Q311 848 398.5 895 Q486 942 578 942 Z " />
<glyph glyph-name="smileface" unicode="&#x263a;" horiz-adv-x="2091" d="M1046 1156 Q1206 1156 1359 1073.5 Q1512 991 1598 837.5 Q1684 684 1684 518 Q1684 353 1599.5 201.5 Q1515 50 1363 -34.5 Q1211 -119 1046 -119 Q880 -119 728.5 -34.5 Q577 50 492.5 201.5 Q408 353 408 518 Q408 684 493.5 837.5 Q579 991 732 1073.5 Q885 1156 1046 1156 Z M1046 1063 Q909 1063 778.5 992.5 Q648 922 574.5 791 Q501 660 501 518 Q501 377 573 247.5 Q645 118 775 46 Q905 -26 1046 -26 Q1187 -26 1317 46 Q1447 118 1519 247.5 Q1591 377 1591 518 Q1591 660 1517.5 791 Q1444 922 1313.5 992.5 Q1183 1063 1046 1063 Z M801 731 Q835 731 858.5 707.5 Q882 684 882 650 Q882 617 858.5 593 Q835 569 801 569 Q768 569 744 593 Q720 617 720 650 Q720 684 744 707.5 Q768 731 801 731 Z M1290 731 Q1324 731 1347.5 707.5 Q1371 684 1371 650 Q1371 617 1347.5 593 Q1324 569 1290 569 Q1257 569 1233 593 Q1209 617 1209 650 Q1209 684 1232.5 707.5 Q1256 731 1290 731 Z M752 313 L814 349 Q893 205 1046 205 Q1199 205 1277 349 L1340 313 Q1290 218 1216.5 168 Q1143 118 1046 118 Q948 118 875 168 Q802 218 752 313 Z " />
<glyph glyph-name="invsmileface" unicode="&#x263b;" horiz-adv-x="2155" d="M1078 1156 Q1238 1156 1391 1073.5 Q1544 991 1630 837.5 Q1716 684 1716 518 Q1716 353 1631.5 201.5 Q1547 50 1395 -34.5 Q1243 -119 1078 -119 Q912 -119 760.5 -34.5 Q609 50 524.5 201.5 Q440 353 440 518 Q440 684 525.5 837.5 Q611 991 764 1073.5 Q917 1156 1078 1156 Z M833 731 Q800 731 776 707.5 Q752 684 752 650 Q752 617 776 593 Q800 569 833 569 Q867 569 890.5 593 Q914 617 914 650 Q914 684 890.5 707.5 Q867 731 833 731 Z M1322 731 Q1288 731 1264.5 707.5 Q1241 684 1241 650 Q1241 617 1265 593 Q1289 569 1322 569 Q1356 569 1379.5 593 Q1403 617 1403 650 Q1403 684 1379.5 707.5 Q1356 731 1322 731 Z M784 313 Q834 218 907 168 Q980 118 1078 118 Q1175 118 1248.5 168 Q1322 218 1372 313 L1309 349 Q1231 205 1078 205 Q925 205 846 349 L784 313 Z " />
<glyph glyph-name="sun" unicode="&#x263c;" horiz-adv-x="1877" d="M886 1621 L962 1621 L962 1284 Q1064 1277 1143.5 1245.5 Q1223 1214 1311 1143 L1601 1427 L1653 1374 L1367 1088 Q1440 993 1470 919 Q1508 823 1510 730 L1846 730 L1846 661 L1511 661 Q1492 472 1368 314 L1653 23 L1596 -27 L1313 255 Q1215 183 1142 154.5 Q1069 126 962 114 L962 -223 L886 -223 L886 114 Q774 129 697.5 160 Q621 191 541 252 L247 -26 L196 25 L481 311 Q415 395 381 477 Q347 559 336 665 L0 665 L0 734 L336 734 Q345 840 378 919.5 Q411 999 480 1083 L196 1370 L244 1427 L536 1145 Q637 1215 715.5 1245.5 Q794 1276 886 1284 L886 1621 Z M921 1211 Q792 1211 669 1145 Q546 1079 477.5 955.5 Q409 832 409 699 Q409 566 476.5 444 Q544 322 666 254 Q788 186 921 186 Q1054 186 1176 254 Q1298 322 1366 444 Q1434 566 1434 699 Q1434 832 1365 955.5 Q1296 1079 1173 1145 Q1050 1211 921 1211 Z " />
<glyph glyph-name="female" unicode="&#x2640;" horiz-adv-x="1536" d="M796 461 L796 59 L1255 59 L1255 0 L796 0 L796 -439 L737 -439 L737 0 L277 0 L277 59 L737 59 L737 461 Q634 461 511.5 526.5 Q389 592 316.5 717.5 Q244 843 244 983 Q244 1119 313.5 1244 Q383 1369 507 1438 Q631 1507 768 1507 Q904 1507 1028.5 1437.5 Q1153 1368 1222 1243.5 Q1291 1119 1291 983 Q1291 774 1147.5 622.5 Q1004 471 796 461 Z M767 1451 Q649 1451 536.5 1390.5 Q424 1330 361 1217 Q298 1104 298 982 Q298 787 435.5 649.5 Q573 512 767 512 Q962 512 1099.5 649.5 Q1237 787 1237 982 Q1237 1104 1174 1217 Q1111 1330 998.5 1390.5 Q886 1451 767 1451 Z " />
<glyph glyph-name="male" unicode="&#x2642;" horiz-adv-x="1536" d="M1216 1620 L1252 1604 L1415 938 L1358 923 L1216 1504 L858 736 Q1006 661 1082 534 Q1158 407 1158 262 Q1158 126 1089 1.5 Q1020 -123 895.5 -192.5 Q771 -262 634 -262 Q498 -262 373.5 -192.5 Q249 -123 180 1.5 Q111 126 111 262 Q111 479 264.5 632 Q418 785 637 785 Q715 785 803 758 L1163 1529 L626 1264 L602 1317 L1216 1620 Z M634 731 Q516 731 403.5 670.5 Q291 610 228 497 Q165 384 165 262 Q165 67 302.5 -70.5 Q440 -208 634 -208 Q829 -208 966.5 -70.5 Q1104 67 1104 262 Q1104 384 1041 497 Q978 610 865.5 670.5 Q753 731 634 731 Z " />
<glyph glyph-name="spade" unicode="&#x2660;" horiz-adv-x="1088" d="M487 1231 Q513 1123 567 1038 Q621 953 759.5 827.5 Q898 702 935 634.5 Q972 567 972 498 Q972 403 908 339 Q844 275 754 275 Q598 275 499 465 Q500 318 537.5 231.5 Q575 145 657 95.5 Q739 46 876 37 L883 0 L91 0 L98 37 Q282 37 383.5 144.5 Q485 252 481 465 Q436 370 369.5 322.5 Q303 275 220 275 Q130 275 65 340 Q0 405 0 494 Q0 568 32 627 Q77 710 189 801 Q329 916 406 1030 Q462 1113 487 1231 Z " />
<glyph glyph-name="club" unicode="&#x2663;" horiz-adv-x="1344" d="M1098 0 L250 0 L258 34 Q423 69 477 103 Q558 154 609.5 254 Q661 354 661 464 L660 511 Q599 387 511.5 330 Q424 273 333 273 Q217 273 136 354 Q55 435 55 553 Q55 669 129 748.5 Q203 828 297 828 Q357 828 460 777 Q418 846 405.5 882 Q393 918 393 959 Q393 1074 472 1152.5 Q551 1231 670 1231 Q787 1231 867.5 1152.5 Q948 1074 948 963 Q948 875 879 777 Q963 817 980 822 Q1007 830 1041 830 Q1141 830 1214.5 751.5 Q1288 673 1288 557 Q1288 437 1207.5 355.5 Q1127 274 1014 274 Q952 274 885.5 304.5 Q819 335 769 386 Q734 423 682 511 Q686 352 730.5 259.5 Q775 167 867 106 Q929 65 1090 34 L1098 0 Z " />
<glyph glyph-name="heart" unicode="&#x2665;" horiz-adv-x="1216" d="M547 -24 Q516 94 458.5 197.5 Q401 301 236 519 Q115 679 87 722 Q41 792 20.5 850.5 Q0 909 0 969 Q0 1080 74 1155 Q148 1230 258 1230 Q367 1230 448 1152 Q509 1094 547 979 Q583 1106 660 1168.5 Q737 1231 830 1231 Q939 1231 1014.5 1157 Q1090 1083 1090 981 Q1090 890 1046.5 793 Q1003 696 876 536 Q712 329 645 210 Q578 91 547 -24 Z " />
<glyph glyph-name="diamond" unicode="&#x2666;" horiz-adv-x="1045" d="M457 1231 Q546 1080 686 893.5 Q826 707 918 604 Q844 526 676 302 Q540 120 458 -24 Q415 57 280 245 Q187 374 0 604 Q101 719 260 932 Q378 1090 457 1231 Z " />
<glyph glyph-name="musicalnote" unicode="&#x266a;" horiz-adv-x="1024" d="M486 1363 L524 1363 Q696 1363 751 1349 Q830 1329 890 1272 Q935 1230 961 1153.5 Q987 1077 987 975 L987 872 L888 872 L888 915 Q888 983 859.5 1030.5 Q831 1078 775 1103 Q702 1135 613 1135 L585 1135 L585 300 Q585 179 553 111.5 Q521 44 443 3.5 Q365 -37 273 -37 Q164 -37 100.5 24.5 Q37 86 37 186 Q37 291 113 362.5 Q189 434 312 434 Q390 434 486 388 L486 1363 Z " />
<glyph glyph-name="musicalnotedbl" unicode="&#x266b;" horiz-adv-x="1536" d="M534 1271 L1330 1519 L1330 411 Q1330 287 1298.5 224 Q1267 161 1191.5 120 Q1116 79 1021 79 Q912 79 847 141.5 Q782 204 782 303 Q782 403 859 475.5 Q936 548 1058 548 Q1098 548 1128.5 541 Q1159 534 1228 505 L1228 1229 L633 1044 L633 208 Q633 87 601 19.5 Q569 -48 491 -88 Q413 -128 321 -128 Q212 -128 148.5 -66.5 Q85 -5 85 94 Q85 199 161 270.5 Q237 342 360 342 Q438 342 534 296 L534 1271 Z " />
<glyph glyph-name="IJ" unicode="&#x132;" horiz-adv-x="1307" d="M160 0 L160 1466 L319 1466 L319 0 L160 0 Z M513 416 L656 440 Q662 272 708 210 Q754 148 835 148 Q892 148 935.5 179.5 Q979 211 994 259 Q1015 324 1015 456 L1015 1466 L1174 1466 L1174 467 Q1174 197 1085.5 86 Q997 -25 836 -25 Q679 -25 602 75 Q513 189 513 416 Z " />
<glyph glyph-name="ij" unicode="&#x133;" horiz-adv-x="746" d="M108 1259 L108 1466 L255 1466 L255 1259 L108 1259 Z M108 0 L108 1062 L255 1062 L255 0 L108 0 Z M479 1257 L479 1466 L626 1466 L626 1257 L479 1257 Z M292 -412 L320 -259 Q364 -273 389 -273 Q436 -273 457.5 -236 Q479 -199 479 -54 L479 1062 L626 1062 L626 -58 Q626 -275 570.5 -353 Q515 -431 408 -431 Q348 -431 292 -412 Z " />
<glyph glyph-name="napostrophe" unicode="&#x149;" horiz-adv-x="1173" d="M92 1260 L92 1465 L260 1465 L260 1260 Q260 1141 225 1073.5 Q190 1006 123 970 L82 1047 Q127 1071 150 1118.5 Q173 1166 175 1260 L92 1260 Z M356 0 L356 1062 L489 1062 L489 911 Q537 999 606.5 1042.5 Q676 1086 766 1086 Q836 1086 895.5 1058.5 Q955 1031 991.5 986.5 Q1028 942 1046 871 Q1064 800 1064 653 L1064 0 L916 0 L916 646 Q916 763 896 817 Q876 871 833.5 900.5 Q791 930 735 930 Q629 930 566 851 Q503 772 503 580 L503 0 L356 0 Z " />
<glyph glyph-name="minute" unicode="&#x2032;" horiz-adv-x="322" d="M109 947 L71 1221 L71 1466 L239 1466 L239 1221 L200 947 L109 947 Z " />
<glyph glyph-name="second" unicode="&#x2033;" horiz-adv-x="596" d="M117 947 L76 1226 L76 1466 L244 1466 L244 1226 L207 947 L117 947 Z M388 947 L349 1226 L349 1466 L517 1466 L517 1226 L477 947 L388 947 Z " />
<glyph glyph-name="afii61248" unicode="&#x2105;" horiz-adv-x="1553" d="M491 1012 L607 993 Q594 861 526.5 786.5 Q459 712 359 712 Q241 712 169 813 Q97 914 97 1111 Q97 1295 171.5 1393 Q246 1491 363 1491 Q559 1491 598 1249 L483 1225 Q459 1376 365 1376 Q300 1376 259 1307 Q218 1238 218 1106 Q218 971 255.5 899.5 Q293 828 361 828 Q473 828 491 1012 Z M232 -57 L1135 1491 L1263 1491 L361 -57 L232 -57 Z M909 373 Q909 565 986 663.5 Q1063 762 1182 762 Q1297 762 1376 666 Q1455 570 1455 373 Q1455 176 1376.5 79.5 Q1298 -17 1182 -17 Q1067 -17 988 79 Q909 175 909 373 Z M1030 373 Q1030 241 1073 170 Q1116 99 1182 99 Q1250 99 1292 171 Q1334 243 1334 373 Q1334 504 1291 575.5 Q1248 647 1182 647 Q1114 647 1072 574 Q1030 501 1030 373 Z " />
<glyph glyph-name="afii61289" unicode="&#x2113;" horiz-adv-x="715" d="M28 422 L205 657 L205 1112 Q205 1334 265 1412.5 Q325 1491 436 1491 Q543 1491 601 1421 Q659 1351 659 1256 Q659 1160 598 1026 Q537 892 374 665 L374 250 Q374 167 387 142.5 Q400 118 430 118 Q482 118 629 225 L629 63 Q525 -24 404 -24 Q307 -24 256 35 Q205 94 205 217 L205 442 L126 344 L28 422 Z M374 899 Q465 1056 492 1122.5 Q519 1189 519 1251 Q519 1311 496.5 1341 Q474 1371 443 1371 Q401 1371 387.5 1320.5 Q374 1270 374 1126 L374 899 Z " />
<glyph glyph-name="H22073" unicode="&#x25a1;" horiz-adv-x="1237" d="M146 944 L1090 944 L1090 0 L146 0 L146 944 Z M222 868 L222 76 L1014 76 L1014 868 L222 868 Z " />
<glyph glyph-name="H18543" unicode="&#x25aa;" horiz-adv-x="726" d="M594 909 L594 445 L131 445 L131 908 L594 909 Z " />
<glyph glyph-name="H18551" unicode="&#x25ab;" horiz-adv-x="726" d="M594 909 L594 445 L131 445 L131 908 L594 909 Z M518 833 L207 832 L207 521 L518 521 L518 833 Z " />
<glyph glyph-name="H18533" unicode="&#x25cf;" horiz-adv-x="1237" d="M619 1018 Q729 1018 835 961 Q941 904 1000 798 Q1059 692 1059 578 Q1059 395 930 266 Q801 137 619 137 Q436 137 307 266 Q178 395 178 578 Q178 693 237 798.5 Q296 904 402 961 Q508 1018 619 1018 Z " />
<glyph glyph-name="openbullet" unicode="&#x25e6;" horiz-adv-x="726" d="M363 928 Q467 928 540.5 854.5 Q614 781 614 677 Q614 573 540.5 499.5 Q467 426 363 426 Q259 426 185.5 499.5 Q112 573 112 677 Q112 781 185 854.5 Q258 928 363 928 Z M363 852 Q290 852 239 800.5 Q188 749 188 677 Q188 604 239.5 553 Q291 502 363 502 Q435 502 486.5 553 Q538 604 538 677 Q538 749 487 800.5 Q436 852 363 852 Z " />
<glyph glyph-name="Amacron" unicode="&#x100;" horiz-adv-x="1120" d="M-2 0 L460 1466 L631 1466 L1123 0 L941 0 L801 444 L299 444 L167 0 L-2 0 Z M345 602 L752 602 L627 1008 Q569 1195 542 1312 Q519 1171 477 1032 L345 602 Z M297 1567 L297 1715 L809 1715 L809 1567 L297 1567 Z " />
<glyph glyph-name="amacron" unicode="&#x101;" horiz-adv-x="934" d="M676 131 Q602 54 522 15 Q442 -24 356 -24 Q220 -24 139 58 Q58 140 58 279 Q58 371 96 442 Q134 513 200 553 Q266 593 400 612 Q580 638 664 674 L665 720 Q665 829 626 873 Q571 937 457 937 Q354 937 303 894.5 Q252 852 228 735 L83 759 Q114 930 208.5 1008 Q303 1086 479 1086 Q616 1086 694 1034.5 Q772 983 792.5 907 Q813 831 813 685 L813 445 Q813 193 822.5 127.5 Q832 62 860 0 L706 0 Q683 55 676 131 Z M664 533 Q583 493 423 465 Q330 449 293 428.5 Q256 408 235.5 370.5 Q215 333 215 284 Q215 208 262 162.5 Q309 117 392 117 Q471 117 535.5 158 Q600 199 632 267.5 Q664 336 664 467 L664 533 Z M194 1196 L194 1344 L706 1344 L706 1196 L194 1196 Z " />
<glyph glyph-name="Ccircumflex" unicode="&#x108;" horiz-adv-x="1212" d="M983 514 L1143 465 Q1090 218 957.5 96.5 Q825 -25 635 -25 Q468 -25 349.5 56.5 Q231 138 155.5 318 Q80 498 80 743 Q80 985 155.5 1152.5 Q231 1320 360 1405.5 Q489 1491 648 1491 Q822 1491 947 1382.5 Q1072 1274 1122 1064 L966 1019 Q886 1325 645 1325 Q525 1325 437 1263.5 Q349 1202 296.5 1072 Q244 942 244 743 Q244 442 350 291.5 Q456 141 632 141 Q762 141 856.5 233.5 Q951 326 983 514 Z M643 1737 L551 1567 L382 1567 L559 1847 L717 1847 L901 1567 L734 1567 L643 1737 Z " />
<glyph glyph-name="ccircumflex" unicode="&#x109;" horiz-adv-x="840" d="M679 389 L824 366 Q799 176 698.5 76 Q598 -24 457 -24 Q286 -24 175.5 116.5 Q65 257 65 532 Q65 809 176.5 947.5 Q288 1086 463 1086 Q598 1086 690.5 1002 Q783 918 809 750 L666 723 Q645 831 593 884.5 Q541 938 468 938 Q359 938 287.5 841.5 Q216 745 216 535 Q216 318 284.5 221 Q353 124 460 124 Q544 124 603.5 188.5 Q663 253 679 389 Z M482 1364 L390 1194 L221 1194 L398 1474 L556 1474 L740 1194 L573 1194 L482 1364 Z " />
<glyph glyph-name="Cdot" unicode="&#x10a;" horiz-adv-x="1212" d="M983 514 L1143 465 Q1090 218 957.5 96.5 Q825 -25 635 -25 Q468 -25 349.5 56.5 Q231 138 155.5 318 Q80 498 80 743 Q80 985 155.5 1152.5 Q231 1320 360 1405.5 Q489 1491 648 1491 Q822 1491 947 1382.5 Q1072 1274 1122 1064 L966 1019 Q886 1325 645 1325 Q525 1325 437 1263.5 Q349 1202 296.5 1072 Q244 942 244 743 Q244 442 350 291.5 Q456 141 632 141 Q762 141 856.5 233.5 Q951 326 983 514 Z M530 1567 L530 1791 L713 1791 L713 1567 L530 1567 Z " />
<glyph glyph-name="cdot" unicode="&#x10b;" horiz-adv-x="840" d="M679 389 L824 366 Q799 176 698.5 76 Q598 -24 457 -24 Q286 -24 175.5 116.5 Q65 257 65 532 Q65 809 176.5 947.5 Q288 1086 463 1086 Q598 1086 690.5 1002 Q783 918 809 750 L666 723 Q645 831 593 884.5 Q541 938 468 938 Q359 938 287.5 841.5 Q216 745 216 535 Q216 318 284.5 221 Q353 124 460 124 Q544 124 603.5 188.5 Q663 253 679 389 Z M362 1194 L362 1418 L545 1418 L545 1194 L362 1194 Z " />
<glyph glyph-name="Emacron" unicode="&#x112;" horiz-adv-x="1120" d="M133 0 L133 1466 L1002 1466 L1002 1293 L292 1293 L292 844 L957 844 L957 672 L292 672 L292 173 L1030 173 L1030 0 L133 0 Z M324 1568 L324 1716 L836 1716 L836 1568 L324 1568 Z " />
<glyph glyph-name="emacron" unicode="&#x113;" horiz-adv-x="934" d="M704 342 L856 319 Q818 149 718.5 62.5 Q619 -24 472 -24 Q287 -24 172.5 116.5 Q58 257 58 522 Q58 797 173.5 941.5 Q289 1086 466 1086 Q635 1086 748 944 Q861 802 861 533 L860 485 L210 485 Q219 306 293 215 Q367 124 473 124 Q639 124 704 342 Z M219 633 L705 633 Q695 771 646 839 Q575 938 465 938 Q366 938 296 855.5 Q226 773 219 633 Z M198 1196 L198 1344 L710 1344 L710 1196 L198 1196 Z " />
<glyph glyph-name="Ebreve" unicode="&#x114;" horiz-adv-x="1120" d="M133 0 L133 1466 L1002 1466 L1002 1293 L292 1293 L292 844 L957 844 L957 672 L292 672 L292 173 L1030 173 L1030 0 L133 0 Z M705 1825 L806 1825 Q793 1696 728 1631 Q663 1566 563 1566 Q463 1566 398.5 1631 Q334 1696 321 1825 L422 1825 Q445 1690 559 1690 Q623 1690 658 1722 Q693 1754 705 1825 Z " />
<glyph glyph-name="ebreve" unicode="&#x115;" horiz-adv-x="934" d="M704 342 L856 319 Q818 149 718.5 62.5 Q619 -24 472 -24 Q287 -24 172.5 116.5 Q58 257 58 522 Q58 797 173.5 941.5 Q289 1086 466 1086 Q635 1086 748 944 Q861 802 861 533 L860 485 L210 485 Q219 306 293 215 Q367 124 473 124 Q639 124 704 342 Z M219 633 L705 633 Q695 771 646 839 Q575 938 465 938 Q366 938 296 855.5 Q226 773 219 633 Z M584 1452 L685 1452 Q672 1323 607 1258 Q542 1193 442 1193 Q342 1193 277.5 1258 Q213 1323 200 1452 L301 1452 Q324 1317 438 1317 Q502 1317 537 1349 Q572 1381 584 1452 Z " />
<glyph glyph-name="Edot" unicode="&#x116;" horiz-adv-x="1120" d="M133 0 L133 1466 L1002 1466 L1002 1293 L292 1293 L292 844 L957 844 L957 672 L292 672 L292 173 L1030 173 L1030 0 L133 0 Z M500 1567 L500 1791 L683 1791 L683 1567 L500 1567 Z " />
<glyph glyph-name="edot" unicode="&#x117;" horiz-adv-x="934" d="M704 342 L856 319 Q818 149 718.5 62.5 Q619 -24 472 -24 Q287 -24 172.5 116.5 Q58 257 58 522 Q58 797 173.5 941.5 Q289 1086 466 1086 Q635 1086 748 944 Q861 802 861 533 L860 485 L210 485 Q219 306 293 215 Q367 124 473 124 Q639 124 704 342 Z M219 633 L705 633 Q695 771 646 839 Q575 938 465 938 Q366 938 296 855.5 Q226 773 219 633 Z M374 1194 L374 1418 L557 1418 L557 1194 L374 1194 Z " />
<glyph glyph-name="Gcircumflex" unicode="&#x11c;" horiz-adv-x="1307" d="M696 575 L696 747 L1205 748 L1205 204 Q1088 90 963 32.5 Q838 -25 706 -25 Q530 -25 392 63 Q254 151 173.5 320 Q93 489 93 726 Q93 966 174 1144 Q255 1322 386 1406.5 Q517 1491 696 1491 Q828 1491 927 1442 Q1026 1393 1090 1303 Q1154 1213 1186 1056 L1043 1008 Q1014 1132 970 1193.5 Q926 1255 854 1290 Q782 1325 692 1325 Q561 1325 466.5 1261.5 Q372 1198 314.5 1064 Q257 930 257 737 Q257 443 380 296.5 Q503 150 700 150 Q794 150 892.5 195 Q991 240 1049 302 L1049 575 L696 575 Z M693 1737 L601 1567 L432 1567 L609 1847 L767 1847 L951 1567 L784 1567 L693 1737 Z " />
<glyph glyph-name="gcircumflex" unicode="&#x11d;" horiz-adv-x="934" d="M80 -88 L224 -114 Q234 -199 284 -240.5 Q334 -282 423 -282 Q520 -282 577.5 -235.5 Q635 -189 656 -97 Q669 -41 669 139 Q621 70 561 35 Q501 0 428 0 Q272 0 169 132 Q51 284 51 539 Q51 710 103 838 Q155 966 239.5 1026 Q324 1086 429 1086 Q506 1086 569.5 1048 Q633 1010 682 934 L682 1062 L818 1062 L818 144 Q818 -101 778 -205.5 Q738 -310 647 -370.5 Q556 -431 428 -431 Q259 -431 168 -340 Q77 -249 80 -88 Z M203 550 Q203 341 272 245 Q341 149 441 149 Q541 149 611 243 Q681 337 681 542 Q681 742 609 839.5 Q537 937 434 937 Q342 937 272.5 839.5 Q203 742 203 550 Z M461 1364 L369 1194 L200 1194 L377 1474 L535 1474 L719 1194 L552 1194 L461 1364 Z " />
<glyph glyph-name="Gdot" unicode="&#x120;" horiz-adv-x="1307" d="M696 575 L696 747 L1205 748 L1205 204 Q1088 90 963 32.5 Q838 -25 706 -25 Q530 -25 392 63 Q254 151 173.5 320 Q93 489 93 726 Q93 966 174 1144 Q255 1322 386 1406.5 Q517 1491 696 1491 Q828 1491 927 1442 Q1026 1393 1090 1303 Q1154 1213 1186 1056 L1043 1008 Q1014 1132 970 1193.5 Q926 1255 854 1290 Q782 1325 692 1325 Q561 1325 466.5 1261.5 Q372 1198 314.5 1064 Q257 930 257 737 Q257 443 380 296.5 Q503 150 700 150 Q794 150 892.5 195 Q991 240 1049 302 L1049 575 L696 575 Z M590 1567 L590 1791 L773 1791 L773 1567 L590 1567 Z " />
<glyph glyph-name="gdot" unicode="&#x121;" horiz-adv-x="934" d="M80 -88 L224 -114 Q234 -199 284 -240.5 Q334 -282 423 -282 Q520 -282 577.5 -235.5 Q635 -189 656 -97 Q669 -41 669 139 Q621 70 561 35 Q501 0 428 0 Q272 0 169 132 Q51 284 51 539 Q51 710 103 838 Q155 966 239.5 1026 Q324 1086 429 1086 Q506 1086 569.5 1048 Q633 1010 682 934 L682 1062 L818 1062 L818 144 Q818 -101 778 -205.5 Q738 -310 647 -370.5 Q556 -431 428 -431 Q259 -431 168 -340 Q77 -249 80 -88 Z M203 550 Q203 341 272 245 Q341 149 441 149 Q541 149 611 243 Q681 337 681 542 Q681 742 609 839.5 Q537 937 434 937 Q342 937 272.5 839.5 Q203 742 203 550 Z M353 1194 L353 1418 L536 1418 L536 1194 L353 1194 Z " />
<glyph glyph-name="Gcedilla" unicode="&#x122;" horiz-adv-x="1307" d="M696 575 L696 747 L1205 748 L1205 204 Q1088 90 963 32.5 Q838 -25 706 -25 Q530 -25 392 63 Q254 151 173.5 320 Q93 489 93 726 Q93 966 174 1144 Q255 1322 386 1406.5 Q517 1491 696 1491 Q828 1491 927 1442 Q1026 1393 1090 1303 Q1154 1213 1186 1056 L1043 1008 Q1014 1132 970 1193.5 Q926 1255 854 1290 Q782 1325 692 1325 Q561 1325 466.5 1261.5 Q372 1198 314.5 1064 Q257 930 257 737 Q257 443 380 296.5 Q503 150 700 150 Q794 150 892.5 195 Q991 240 1049 302 L1049 575 L696 575 Z M577 -154 L620 23 L730 23 L702 -84 Q770 -94 806.5 -135 Q843 -176 843 -234 Q843 -312 780.5 -366.5 Q718 -421 610 -421 Q539 -421 488 -409 L497 -292 Q550 -296 578 -296 Q645 -296 675.5 -275 Q706 -254 706 -221 Q706 -190 678.5 -172.5 Q651 -155 577 -154 Z " />
<glyph glyph-name="gcedilla" unicode="&#x123;" horiz-adv-x="934" d="M80 -88 L224 -114 Q234 -199 284 -240.5 Q334 -282 423 -282 Q520 -282 577.5 -235.5 Q635 -189 656 -97 Q669 -41 669 139 Q621 70 561 35 Q501 0 428 0 Q272 0 169 132 Q51 284 51 539 Q51 710 103 838 Q155 966 239.5 1026 Q324 1086 429 1086 Q506 1086 569.5 1048 Q633 1010 682 934 L682 1062 L818 1062 L818 144 Q818 -101 778 -205.5 Q738 -310 647 -370.5 Q556 -431 428 -431 Q259 -431 168 -340 Q77 -249 80 -88 Z M203 550 Q203 341 272 245 Q341 149 441 149 Q541 149 611 243 Q681 337 681 542 Q681 742 609 839.5 Q537 937 434 937 Q342 937 272.5 839.5 Q203 742 203 550 Z M495 1379 L495 1195 L344 1195 L344 1379 Q344 1540 467 1606 L504 1537 Q426 1494 420 1379 L495 1379 Z " />
<glyph glyph-name="Hcircumflex" unicode="&#x124;" horiz-adv-x="1212" d="M129 0 L129 1466 L288 1466 L288 864 L913 864 L913 1466 L1072 1466 L1072 0 L913 0 L913 691 L288 691 L288 0 L129 0 Z M599 1737 L507 1567 L338 1567 L515 1847 L673 1847 L857 1567 L690 1567 L599 1737 Z " />
<glyph glyph-name="hcircumflex" unicode="&#x125;" horiz-adv-x="934" d="M108 0 L108 1466 L255 1466 L255 940 Q307 1013 372.5 1049.5 Q438 1086 517 1086 Q656 1086 736.5 997.5 Q817 909 817 673 L817 0 L670 0 L670 673 Q670 811 621 871 Q572 931 486 931 Q390 931 322.5 854 Q255 777 255 581 L255 0 L108 0 Z M482 1737 L390 1567 L221 1567 L398 1847 L556 1847 L740 1567 L573 1567 L482 1737 Z " />
<glyph glyph-name="Hbar" unicode="&#x126;" horiz-adv-x="1212" d="M1079 1127 L1079 0 L920 0 L920 692 L295 692 L295 0 L135 0 L135 1127 L24 1127 L24 1275 L135 1275 L135 1466 L295 1466 L295 1275 L920 1275 L920 1466 L1079 1466 L1079 1275 L1192 1275 L1192 1127 L1079 1127 Z M920 1127 L295 1127 L295 864 L920 864 L920 1127 Z " />
<glyph glyph-name="hbar" unicode="&#x127;" horiz-adv-x="934" d="M108 0 L108 1187 L-52 1187 L-52 1335 L108 1335 L108 1466 L255 1466 L255 1335 L460 1335 L460 1187 L255 1187 L255 940 Q307 1013 372.5 1049.5 Q438 1086 517 1086 Q656 1086 736.5 997.5 Q817 909 817 673 L817 0 L670 0 L670 673 Q670 811 621 871 Q572 931 486 931 Q390 931 322.5 854 Q255 777 255 581 L255 0 L108 0 Z " />
<glyph glyph-name="Itilde" unicode="&#x128;" horiz-adv-x="467" d="M160 0 L160 1466 L319 1466 L319 0 L160 0 Z M-33 1568 Q-34 1675 15 1736 Q63 1796 133 1796 Q185 1796 272 1742 Q320 1712 349 1712 Q376 1712 389.5 1729.5 Q403 1747 409 1799 L516 1799 Q513 1684 467.5 1627.5 Q422 1571 354 1571 Q304 1571 219 1627 Q164 1663 139 1663 Q112 1663 94 1639.5 Q76 1616 76 1568 L-33 1568 Z " />
<glyph glyph-name="itilde" unicode="&#x129;" horiz-adv-x="467" d="M166 0 L166 1062 L313 1062 L313 0 L166 0 Z M-42 1195 Q-43 1302 6 1363 Q54 1423 124 1423 Q176 1423 263 1369 Q311 1339 340 1339 Q367 1339 380.5 1356.5 Q394 1374 400 1426 L507 1426 Q504 1311 458.5 1254.5 Q413 1198 345 1198 Q295 1198 210 1254 Q155 1290 130 1290 Q103 1290 85 1266.5 Q67 1243 67 1195 L-42 1195 Z " />
<glyph glyph-name="Imacron" unicode="&#x12a;" horiz-adv-x="467" d="M160 0 L160 1466 L319 1466 L319 0 L160 0 Z M-24 1568 L-24 1716 L488 1716 L488 1568 L-24 1568 Z " />
<glyph glyph-name="imacron" unicode="&#x12b;" horiz-adv-x="467" d="M166 0 L166 1062 L313 1062 L313 0 L166 0 Z M-23 1195 L-23 1343 L489 1343 L489 1195 L-23 1195 Z " />
<glyph glyph-name="Ibreve" unicode="&#x12c;" horiz-adv-x="467" d="M160 0 L160 1466 L319 1466 L319 0 L160 0 Z M382 1825 L483 1825 Q470 1696 405 1631 Q340 1566 240 1566 Q140 1566 75.5 1631 Q11 1696 -2 1825 L99 1825 Q122 1690 236 1690 Q300 1690 335 1722 Q370 1754 382 1825 Z " />
<glyph glyph-name="ibreve" unicode="&#x12d;" horiz-adv-x="467" d="M166 0 L166 1062 L313 1062 L313 0 L166 0 Z M380 1464 L481 1464 Q468 1335 403 1270 Q338 1205 238 1205 Q138 1205 73.5 1270 Q9 1335 -4 1464 L97 1464 Q120 1329 234 1329 Q298 1329 333 1361 Q368 1393 380 1464 Z " />
<glyph glyph-name="Iogonek" unicode="&#x12e;" horiz-adv-x="467" d="M160 0 L160 1466 L319 1466 L319 0 L160 0 Z M187 24 L288 24 Q257 -65 257 -141 Q257 -210 291 -251 Q325 -292 375 -292 Q437 -292 512 -246 L512 -365 Q416 -425 333 -425 Q254 -425 203.5 -367 Q153 -309 153 -202 Q153 -117 187 24 Z " />
<glyph glyph-name="iogonek" unicode="&#x12f;" horiz-adv-x="373" d="M108 1259 L108 1466 L255 1466 L255 1259 L108 1259 Z M108 0 L108 1062 L255 1062 L255 0 L108 0 Z M134 24 L235 24 Q204 -65 204 -141 Q204 -210 238 -251 Q272 -292 322 -292 Q384 -292 459 -246 L459 -365 Q363 -425 280 -425 Q201 -425 150.5 -367 Q100 -309 100 -202 Q100 -117 134 24 Z " />
<glyph glyph-name="Jcircumflex" unicode="&#x134;" horiz-adv-x="840" d="M45 416 L188 440 Q194 272 240 210 Q286 148 367 148 Q424 148 467.5 179.5 Q511 211 526 259 Q547 324 547 456 L547 1466 L706 1466 L706 467 Q706 197 617.5 86 Q529 -25 368 -25 Q211 -25 134 75 Q45 189 45 416 Z M635 1737 L543 1567 L374 1567 L551 1847 L709 1847 L893 1567 L726 1567 L635 1737 Z " />
<glyph glyph-name="jcircumflex" unicode="&#x135;" horiz-adv-x="373" d="M-80 -412 L-52 -259 Q-8 -273 17 -273 Q64 -273 85.5 -236 Q107 -199 107 -54 L107 1062 L254 1062 L254 -58 Q254 -275 198.5 -353 Q143 -431 36 -431 Q-24 -431 -80 -412 Z M189 1364 L97 1194 L-72 1194 L105 1474 L263 1474 L447 1194 L280 1194 L189 1364 Z " />
<glyph glyph-name="Kcedilla" unicode="&#x136;" horiz-adv-x="1120" d="M124 0 L124 1466 L283 1466 L283 739 L880 1466 L1096 1466 L591 872 L1118 0 L908 0 L480 742 L283 508 L283 0 L124 0 Z M520 -154 L532 -80 Q611 -80 653 -86 Q714 -95 750 -135.5 Q786 -176 786 -234 Q786 -312 723.5 -366.5 Q661 -421 553 -421 Q482 -421 431 -409 L440 -292 Q493 -296 521 -296 Q588 -296 618.5 -275 Q649 -254 649 -221 Q649 -190 621.5 -172.5 Q594 -155 520 -154 Z " />
<glyph glyph-name="kcedilla" unicode="&#x137;" horiz-adv-x="840" d="M107 0 L107 1466 L254 1466 L254 630 L604 1062 L795 1062 L462 668 L828 0 L647 0 L358 543 L254 421 L254 0 L107 0 Z M314 -154 L326 -80 Q405 -80 447 -86 Q508 -95 544 -135.5 Q580 -176 580 -234 Q580 -312 517.5 -366.5 Q455 -421 347 -421 Q276 -421 225 -409 L234 -292 Q287 -296 315 -296 Q382 -296 412.5 -275 Q443 -254 443 -221 Q443 -190 415.5 -172.5 Q388 -155 314 -154 Z " />
<glyph glyph-name="kgreenlandic" unicode="&#x138;" horiz-adv-x="836" d="M109 0 L109 1061 L256 1061 L256 645 L608 1061 L805 1061 L414 621 L838 0 L649 0 L309 500 L256 438 L256 0 L109 0 Z " />
<glyph glyph-name="Lcedilla" unicode="&#x13b;" horiz-adv-x="934" d="M120 0 L120 1466 L279 1466 L279 173 L871 173 L871 0 L120 0 Z M406 -154 L418 -80 Q497 -80 539 -86 Q600 -95 636 -135.5 Q672 -176 672 -234 Q672 -312 609.5 -366.5 Q547 -421 439 -421 Q368 -421 317 -409 L326 -292 Q379 -296 407 -296 Q474 -296 504.5 -275 Q535 -254 535 -221 Q535 -190 507.5 -172.5 Q480 -155 406 -154 Z " />
<glyph glyph-name="lcedilla" unicode="&#x13c;" horiz-adv-x="373" d="M9 0 L9 1466 L156 1466 L156 0 L9 0 Z M5 -154 L17 -80 Q96 -80 138 -86 Q199 -95 235 -135.5 Q271 -176 271 -234 Q271 -312 208.5 -366.5 Q146 -421 38 -421 Q-33 -421 -84 -409 L-75 -292 Q-22 -296 6 -296 Q73 -296 103.5 -275 Q134 -254 134 -221 Q134 -190 106.5 -172.5 Q79 -155 5 -154 Z " />
<glyph glyph-name="Ncedilla" unicode="&#x145;" horiz-adv-x="1212" d="M125 0 L125 1466 L288 1466 L920 315 L920 1466 L1072 1466 L1072 0 L909 0 L278 1152 L278 0 L125 0 Z M519 -154 L531 -80 Q610 -80 652 -86 Q713 -95 749 -135.5 Q785 -176 785 -234 Q785 -312 722.5 -366.5 Q660 -421 552 -421 Q481 -421 430 -409 L439 -292 Q492 -296 520 -296 Q587 -296 617.5 -275 Q648 -254 648 -221 Q648 -190 620.5 -172.5 Q593 -155 519 -154 Z " />
<glyph glyph-name="ncedilla" unicode="&#x146;" horiz-adv-x="934" d="M108 0 L108 1062 L241 1062 L241 911 Q289 999 358.5 1042.5 Q428 1086 518 1086 Q588 1086 647.5 1058.5 Q707 1031 743.5 986.5 Q780 942 798 871 Q816 800 816 653 L816 0 L668 0 L668 646 Q668 763 648 817 Q628 871 585.5 900.5 Q543 930 487 930 Q381 930 318 851 Q255 772 255 580 L255 0 L108 0 Z M374 -154 L386 -80 Q465 -80 507 -86 Q568 -95 604 -135.5 Q640 -176 640 -234 Q640 -312 577.5 -366.5 Q515 -421 407 -421 Q336 -421 285 -409 L294 -292 Q347 -296 375 -296 Q442 -296 472.5 -275 Q503 -254 503 -221 Q503 -190 475.5 -172.5 Q448 -155 374 -154 Z " />
<glyph glyph-name="Eng" unicode="&#x14a;" horiz-adv-x="1212" d="M133 0 L133 1466 L293 1466 L293 1378 Q383 1466 547 1466 Q841 1466 983.5 1293 Q1126 1120 1126 743 Q1126 384 999 184.5 Q872 -15 647 -15 Q604 -15 487 8 L487 174 Q555 166 642 151 Q813 166 888 301.5 Q963 437 963 745 Q963 1055 859.5 1174.5 Q756 1294 545 1294 Q390 1294 293 1194 L293 0 L133 0 Z " />
<glyph glyph-name="eng" unicode="&#x14b;" horiz-adv-x="934" d="M492 -412 L520 -258 Q572 -272 592 -272 Q637 -272 657 -236 Q677 -200 675 -91 L675 524 Q676 732 660 796 Q644 860 603 895 Q562 930 492 930 Q409 930 335.5 862 Q262 794 262 580 L262 0 L115 0 L115 1061 L248 1061 L248 911 Q345 1085 524 1085 Q631 1085 706.5 1026.5 Q782 968 802.5 884.5 Q823 801 823 653 L823 -54 Q825 -260 774.5 -344 Q724 -428 612 -428 Q537 -428 492 -412 Z " />
<glyph glyph-name="Omacron" unicode="&#x14c;" horiz-adv-x="1307" d="M85 714 Q85 1089 250 1290.5 Q415 1492 661 1492 Q820 1492 951 1402 Q1082 1312 1158.5 1140.5 Q1235 969 1235 732 Q1235 406 1087 201 Q924 -25 660 -25 Q394 -25 232 207 Q85 417 85 714 Z M249 711 Q249 440 368.5 290.5 Q488 141 659 141 Q834 141 952.5 292 Q1071 443 1071 736 Q1071 925 1010 1074 Q963 1188 868.5 1256.5 Q774 1325 662 1325 Q482 1325 365.5 1175 Q249 1025 249 711 Z M390 1568 L390 1716 L902 1716 L902 1568 L390 1568 Z " />
<glyph glyph-name="omacron" unicode="&#x14d;" horiz-adv-x="934" d="M53 531 Q53 806 168.5 946 Q284 1086 461 1086 Q635 1086 752 946 Q869 806 869 542 Q869 256 754 116 Q639 -24 461 -24 Q286 -24 169.5 116.5 Q53 257 53 531 Z M204 531 Q204 325 279 224.5 Q354 124 465 124 Q569 124 643.5 225.5 Q718 327 718 531 Q718 736 643 836.5 Q568 937 457 937 Q352 937 278 836 Q204 735 204 531 Z M207 1195 L207 1343 L719 1343 L719 1195 L207 1195 Z " />
<glyph glyph-name="Obreve" unicode="&#x14e;" horiz-adv-x="1307" d="M85 714 Q85 1089 250 1290.5 Q415 1492 661 1492 Q820 1492 951 1402 Q1082 1312 1158.5 1140.5 Q1235 969 1235 732 Q1235 406 1087 201 Q924 -25 660 -25 Q394 -25 232 207 Q85 417 85 714 Z M249 711 Q249 440 368.5 290.5 Q488 141 659 141 Q834 141 952.5 292 Q1071 443 1071 736 Q1071 925 1010 1074 Q963 1188 868.5 1256.5 Q774 1325 662 1325 Q482 1325 365.5 1175 Q249 1025 249 711 Z M784 1825 L885 1825 Q872 1696 807 1631 Q742 1566 642 1566 Q542 1566 477.5 1631 Q413 1696 400 1825 L501 1825 Q524 1690 638 1690 Q702 1690 737 1722 Q772 1754 784 1825 Z " />
<glyph glyph-name="obreve" unicode="&#x14f;" horiz-adv-x="934" d="M53 531 Q53 806 168.5 946 Q284 1086 461 1086 Q635 1086 752 946 Q869 806 869 542 Q869 256 754 116 Q639 -24 461 -24 Q286 -24 169.5 116.5 Q53 257 53 531 Z M204 531 Q204 325 279 224.5 Q354 124 465 124 Q569 124 643.5 225.5 Q718 327 718 531 Q718 736 643 836.5 Q568 937 457 937 Q352 937 278 836 Q204 735 204 531 Z M606 1452 L707 1452 Q694 1323 629 1258 Q564 1193 464 1193 Q364 1193 299.5 1258 Q235 1323 222 1452 L323 1452 Q346 1317 460 1317 Q524 1317 559 1349 Q594 1381 606 1452 Z " />
<glyph glyph-name="Rcedilla" unicode="&#x156;" horiz-adv-x="1212" d="M129 0 L129 1466 L662 1466 Q829 1466 908.5 1425 Q988 1384 1039 1288.5 Q1090 1193 1090 1067 Q1090 901 1003.5 798 Q917 695 752 667 Q819 627 854 586 Q925 502 979 399 L1189 0 L989 0 L829 305 Q736 484 688.5 546 Q641 608 596.5 629.5 Q552 651 472 651 L288 651 L288 0 L129 0 Z M288 819 L630 819 Q742 819 800 846 Q858 873 892 931 Q926 989 926 1066 Q926 1177 861 1240.5 Q796 1304 668 1304 L288 1304 L288 819 Z M462 -154 L474 -80 Q553 -80 595 -86 Q656 -95 692 -135.5 Q728 -176 728 -234 Q728 -312 665.5 -366.5 Q603 -421 495 -421 Q424 -421 373 -409 L382 -292 Q435 -296 463 -296 Q530 -296 560.5 -275 Q591 -254 591 -221 Q591 -190 563.5 -172.5 Q536 -155 462 -154 Z " />
<glyph glyph-name="rcedilla" unicode="&#x157;" horiz-adv-x="559" d="M108 0 L108 1062 L241 1062 L241 901 Q292 1013 334.5 1049.5 Q377 1086 430 1086 Q504 1086 581 1028 L531 861 Q476 900 424 900 Q377 900 338 867 Q299 834 283 775 Q255 672 255 556 L255 0 L108 0 Z M262 -154 L274 -80 Q353 -80 395 -86 Q456 -95 492 -135.5 Q528 -176 528 -234 Q528 -312 465.5 -366.5 Q403 -421 295 -421 Q224 -421 173 -409 L182 -292 Q235 -296 263 -296 Q330 -296 360.5 -275 Q391 -254 391 -221 Q391 -190 363.5 -172.5 Q336 -155 262 -154 Z " />
<glyph glyph-name="Scircumflex" unicode="&#x15c;" horiz-adv-x="1120" d="M76 471 L226 487 Q238 366 280.5 298.5 Q323 231 402 190 Q481 149 580 149 Q722 149 800.5 218.5 Q879 288 879 399 Q879 464 850.5 512.5 Q822 561 764.5 592 Q707 623 516 679 Q346 729 274 780 Q202 831 162 909.5 Q122 988 122 1087 Q122 1265 237 1378 Q352 1491 547 1491 Q681 1491 781.5 1438 Q882 1385 937.5 1286 Q993 1187 997 1053 L844 1039 Q832 1182 758.5 1251 Q685 1320 552 1320 Q417 1320 346 1259.5 Q275 1199 275 1103 Q275 1014 327 965 Q379 916 561 866 Q739 817 811 781 Q921 725 977 633.5 Q1033 542 1033 415 Q1033 289 974 185.5 Q915 82 813.5 28 Q712 -26 569 -26 Q346 -26 213.5 108 Q81 242 76 471 Z M563 1737 L471 1567 L302 1567 L479 1847 L637 1847 L821 1567 L654 1567 L563 1737 Z " />
<glyph glyph-name="scircumflex" unicode="&#x15d;" horiz-adv-x="840" d="M52 317 L198 345 Q211 233 269 178.5 Q327 124 423 124 Q519 124 571.5 171.5 Q624 219 624 292 Q624 355 579 390 Q548 414 429 450 Q257 503 199 540 Q141 577 109 639 Q77 701 77 780 Q77 916 164 1001 Q251 1086 405 1086 Q502 1086 575.5 1051 Q649 1016 688 957 Q727 898 742 788 L598 764 Q578 938 409 938 Q313 938 266 899.5 Q219 861 219 801 Q219 742 264 708 Q291 688 424 644 Q607 585 661 550.5 Q715 516 745 456.5 Q775 397 775 315 Q775 163 678.5 69 Q582 -25 415 -25 Q102 -25 52 317 Z M432 1364 L340 1194 L171 1194 L348 1474 L506 1474 L690 1194 L523 1194 L432 1364 Z " />
<glyph glyph-name="Tbar" unicode="&#x166;" horiz-adv-x="1026" d="M438 0 L438 803 L260 803 L260 951 L438 951 L438 1293 L42 1293 L42 1466 L995 1466 L995 1293 L597 1293 L597 951 L772 951 L772 803 L597 803 L597 0 L438 0 Z " />
<glyph glyph-name="tbar" unicode="&#x167;" horiz-adv-x="468" d="M48 1062 L156 1062 L156 1325 L303 1433 L303 1062 L452 1062 L452 922 L303 922 L303 751 L496 751 L496 603 L303 603 L303 301 Q303 215 316 190 Q335 154 387 154 Q412 154 452 161 L472 2 Q411 -14 362 -14 Q285 -14 238 16.5 Q191 47 173.5 100 Q156 153 156 311 L156 603 L-16 603 L-16 751 L156 751 L156 922 L48 922 L48 1062 Z " />
<glyph glyph-name="Utilde" unicode="&#x168;" horiz-adv-x="1212" d="M915 1466 L1075 1466 L1075 619 Q1075 406 1033.5 269.5 Q992 133 882.5 54 Q773 -25 604 -25 Q366 -25 247.5 117 Q129 259 129 619 L129 1466 L288 1466 L288 620 Q288 421 319 332 Q350 243 420.5 196.5 Q491 150 592 150 Q762 150 838.5 246 Q915 342 915 620 L915 1466 Z M323 1568 Q322 1675 371 1736 Q419 1796 489 1796 Q541 1796 628 1742 Q676 1712 705 1712 Q732 1712 745.5 1729.5 Q759 1747 765 1799 L872 1799 Q869 1684 823.5 1627.5 Q778 1571 710 1571 Q660 1571 575 1627 Q520 1663 495 1663 Q468 1663 450 1639.5 Q432 1616 432 1568 L323 1568 Z " />
<glyph glyph-name="utilde" unicode="&#x169;" horiz-adv-x="934" d="M679 0 L679 156 Q628 66 559 21 Q490 -24 403 -24 Q300 -24 227 31.5 Q154 87 129.5 172 Q105 257 105 404 L105 1062 L252 1062 L252 473 Q252 309 268.5 253.5 Q285 198 329.5 164.5 Q374 131 431 131 Q537 131 605 218 Q663 293 663 493 L663 1062 L811 1062 L811 0 L679 0 Z M187 1195 Q186 1302 235 1363 Q283 1423 353 1423 Q405 1423 492 1369 Q540 1339 569 1339 Q596 1339 609.5 1356.5 Q623 1374 629 1426 L736 1426 Q733 1311 687.5 1254.5 Q642 1198 574 1198 Q524 1198 439 1254 Q384 1290 359 1290 Q332 1290 314 1266.5 Q296 1243 296 1195 L187 1195 Z " />
<glyph glyph-name="Umacron" unicode="&#x16a;" horiz-adv-x="1212" d="M915 1466 L1075 1466 L1075 619 Q1075 406 1033.5 269.5 Q992 133 882.5 54 Q773 -25 604 -25 Q366 -25 247.5 117 Q129 259 129 619 L129 1466 L288 1466 L288 620 Q288 421 319 332 Q350 243 420.5 196.5 Q491 150 592 150 Q762 150 838.5 246 Q915 342 915 620 L915 1466 Z M348 1564 L348 1712 L860 1712 L860 1564 L348 1564 Z " />
<glyph glyph-name="umacron" unicode="&#x16b;" horiz-adv-x="934" d="M679 0 L679 156 Q628 66 559 21 Q490 -24 403 -24 Q300 -24 227 31.5 Q154 87 129.5 172 Q105 257 105 404 L105 1062 L252 1062 L252 473 Q252 309 268.5 253.5 Q285 198 329.5 164.5 Q374 131 431 131 Q537 131 605 218 Q663 293 663 493 L663 1062 L811 1062 L811 0 L679 0 Z M199 1195 L199 1343 L711 1343 L711 1195 L199 1195 Z " />
<glyph glyph-name="Ubreve" unicode="&#x16c;" horiz-adv-x="1212" d="M915 1466 L1075 1466 L1075 619 Q1075 406 1033.5 269.5 Q992 133 882.5 54 Q773 -25 604 -25 Q366 -25 247.5 117 Q129 259 129 619 L129 1466 L288 1466 L288 620 Q288 421 319 332 Q350 243 420.5 196.5 Q491 150 592 150 Q762 150 838.5 246 Q915 342 915 620 L915 1466 Z M743 1825 L844 1825 Q831 1696 766 1631 Q701 1566 601 1566 Q501 1566 436.5 1631 Q372 1696 359 1825 L460 1825 Q483 1690 597 1690 Q661 1690 696 1722 Q731 1754 743 1825 Z " />
<glyph glyph-name="ubreve" unicode="&#x16d;" horiz-adv-x="934" d="M679 0 L679 156 Q628 66 559 21 Q490 -24 403 -24 Q300 -24 227 31.5 Q154 87 129.5 172 Q105 257 105 404 L105 1062 L252 1062 L252 473 Q252 309 268.5 253.5 Q285 198 329.5 164.5 Q374 131 431 131 Q537 131 605 218 Q663 293 663 493 L663 1062 L811 1062 L811 0 L679 0 Z M604 1452 L705 1452 Q692 1323 627 1258 Q562 1193 462 1193 Q362 1193 297.5 1258 Q233 1323 220 1452 L321 1452 Q344 1317 458 1317 Q522 1317 557 1349 Q592 1381 604 1452 Z " />
<glyph glyph-name="Uogonek" unicode="&#x172;" horiz-adv-x="1212" d="M915 1466 L1075 1466 L1075 619 Q1075 406 1033.5 269.5 Q992 133 882.5 54 Q773 -25 604 -25 Q366 -25 247.5 117 Q129 259 129 619 L129 1466 L288 1466 L288 620 Q288 421 319 332 Q350 243 420.5 196.5 Q491 150 592 150 Q762 150 838.5 246 Q915 342 915 620 L915 1466 Z M571 24 L672 24 Q641 -65 641 -141 Q641 -210 675 -251 Q709 -292 759 -292 Q821 -292 896 -246 L896 -365 Q800 -425 717 -425 Q638 -425 587.5 -367 Q537 -309 537 -202 Q537 -117 571 24 Z " />
<glyph glyph-name="uogonek" unicode="&#x173;" horiz-adv-x="934" d="M679 0 L679 156 Q628 66 559 21 Q490 -24 403 -24 Q300 -24 227 31.5 Q154 87 129.5 172 Q105 257 105 404 L105 1062 L252 1062 L252 473 Q252 309 268.5 253.5 Q285 198 329.5 164.5 Q374 131 431 131 Q537 131 605 218 Q663 293 663 493 L663 1062 L811 1062 L811 0 L679 0 Z M704 24 L805 24 Q774 -65 774 -141 Q774 -210 808 -251 Q842 -292 892 -292 Q954 -292 1029 -246 L1029 -365 Q933 -425 850 -425 Q771 -425 720.5 -367 Q670 -309 670 -202 Q670 -117 704 24 Z " />
<glyph glyph-name="Wcircumflex" unicode="&#x174;" horiz-adv-x="1585" d="M342 0 L23 1466 L186 1466 L369 505 Q398 357 420 205 L474 476 L703 1466 L895 1466 L1067 724 Q1130 453 1161 205 Q1184 348 1220 524 L1409 1466 L1569 1466 L1239 0 L1086 0 L832 1117 L794 1289 Q777 1193 759 1117 L504 0 L342 0 Z M800 1737 L708 1567 L539 1567 L716 1847 L874 1847 L1058 1567 L891 1567 L800 1737 Z " />
<glyph glyph-name="wcircumflex" unicode="&#x175;" horiz-adv-x="1212" d="M268 0 L2 1062 L155 1062 L293 449 L344 221 L390 440 L528 1062 L680 1062 L810 446 L854 243 L904 448 L1053 1062 L1197 1062 L924 0 L771 0 L632 636 L599 817 L423 0 L268 0 Z M623 1364 L531 1194 L362 1194 L539 1474 L697 1474 L881 1194 L714 1194 L623 1364 Z " />
<glyph glyph-name="Ycircumflex" unicode="&#x176;" horiz-adv-x="1120" d="M468 0 L468 621 L5 1466 L199 1466 L435 1024 Q505 893 558 776 Q611 891 689 1035 L922 1466 L1107 1466 L627 621 L627 0 L468 0 Z M547 1737 L455 1567 L286 1567 L463 1847 L621 1847 L805 1567 L638 1567 L547 1737 Z " />
<glyph glyph-name="ycircumflex" unicode="&#x177;" horiz-adv-x="840" d="M104 -409 L88 -240 Q137 -256 172 -256 Q219 -256 249.5 -237 Q280 -218 300 -178 Q307 -164 358 -2 L27 1062 L186 1062 L368 447 Q402 332 431 201 Q456 325 491 443 L677 1062 L825 1062 L494 -18 Q429 -228 391.5 -298.5 Q354 -369 306.5 -400 Q259 -431 199 -431 Q157 -431 104 -409 Z M442 1364 L350 1194 L181 1194 L358 1474 L516 1474 L700 1194 L533 1194 L442 1364 Z " />
<glyph glyph-name="longs" unicode="&#x17f;" horiz-adv-x="373" d="M112 0 L112 1175 Q112 1362 178.5 1426.5 Q245 1491 356 1491 Q417 1491 490 1473 L468 1316 Q427 1326 384 1326 Q316 1326 287 1290.5 Q258 1255 258 1160 L258 0 L112 0 Z " />
<glyph glyph-name="Aringacute" unicode="&#x1fa;" horiz-adv-x="1120" d="M-2 0 L460 1466 L631 1466 L1123 0 L941 0 L801 444 L299 444 L167 0 L-2 0 Z M345 602 L752 602 L627 1008 Q569 1195 542 1312 Q519 1171 477 1032 L345 602 Z M414 1709 Q414 1784 458.5 1836 Q503 1888 562 1888 Q620 1888 664.5 1836 Q709 1784 709 1705 Q709 1625 665 1573.5 Q621 1522 562 1522 Q503 1522 458.5 1574 Q414 1626 414 1709 Z M477 1708 Q477 1659 503 1628 Q529 1597 563 1597 Q597 1597 623.5 1628 Q650 1659 650 1706 Q650 1753 624 1784 Q598 1815 564 1815 Q529 1815 503 1784 Q477 1753 477 1708 Z M478 1944 L587 2224 L780 2224 L600 1944 L478 1944 Z " />
<glyph glyph-name="aringacute" unicode="&#x1fb;" horiz-adv-x="934" d="M676 131 Q602 54 522 15 Q442 -24 356 -24 Q220 -24 139 58 Q58 140 58 279 Q58 371 96 442 Q134 513 200 553 Q266 593 400 612 Q580 638 664 674 L665 720 Q665 829 626 873 Q571 937 457 937 Q354 937 303 894.5 Q252 852 228 735 L83 759 Q114 930 208.5 1008 Q303 1086 479 1086 Q616 1086 694 1034.5 Q772 983 792.5 907 Q813 831 813 685 L813 445 Q813 193 822.5 127.5 Q832 62 860 0 L706 0 Q683 55 676 131 Z M664 533 Q583 493 423 465 Q330 449 293 428.5 Q256 408 235.5 370.5 Q215 333 215 284 Q215 208 262 162.5 Q309 117 392 117 Q471 117 535.5 158 Q600 199 632 267.5 Q664 336 664 467 L664 533 Z M305 1382 Q305 1457 349.5 1509 Q394 1561 453 1561 Q511 1561 555.5 1509 Q600 1457 600 1378 Q600 1298 556 1246.5 Q512 1195 453 1195 Q394 1195 349.5 1247 Q305 1299 305 1382 Z M368 1381 Q368 1332 394 1301 Q420 1270 454 1270 Q488 1270 514.5 1301 Q541 1332 541 1379 Q541 1426 515 1457 Q489 1488 455 1488 Q420 1488 394 1457 Q368 1426 368 1381 Z M382 1642 L491 1922 L684 1922 L504 1642 L382 1642 Z " />
<glyph glyph-name="AEacute" unicode="&#x1fc;" horiz-adv-x="1679" d="M1 0 L579 1466 L1566 1466 L1566 1293 L961 1293 L961 842 L1523 842 L1523 670 L961 670 L961 173 L1588 173 L1588 0 L802 0 L802 423 L337 423 L173 0 L1 0 Z M405 595 L802 595 L802 1293 L682 1293 L405 595 Z M902 1567 L1011 1847 L1204 1847 L1024 1567 L902 1567 Z " />
<glyph glyph-name="aeacute" unicode="&#x1fd;" horiz-adv-x="1493" d="M1419 325 Q1377 152 1277.5 64 Q1178 -24 1035 -24 Q934 -24 855 23 Q776 70 711 174 Q547 -24 349 -24 Q216 -24 134.5 61 Q53 146 53 279 Q53 369 94 442.5 Q135 516 204.5 555 Q274 594 438 620 Q561 640 645 669 L646 710 Q646 839 601.5 888 Q557 937 453 937 Q344 937 293.5 895 Q243 853 220 733 L77 754 Q111 932 202.5 1009 Q294 1086 457 1086 Q578 1086 649 1050 Q720 1014 755 943 Q863 1086 1034 1086 Q1146 1086 1230 1027 Q1314 968 1368 839 Q1422 710 1422 545 L1421 485 L792 485 Q793 337 821.5 272 Q850 207 911.5 165.5 Q973 124 1044 124 Q1124 124 1183.5 182 Q1243 240 1265 349 L1419 325 Z M792 633 L1271 633 Q1259 793 1195 865 Q1131 937 1036 937 Q934 937 867 859 Q800 781 792 633 Z M647 533 Q582 498 384 460 Q294 443 259 410 Q209 362 209 286 Q209 211 254.5 164.5 Q300 118 378 118 Q473 118 544 175 Q615 232 636 321 Q648 371 647 533 Z M552 1194 L661 1474 L854 1474 L674 1194 L552 1194 Z " />
<glyph glyph-name="Oslashacute" unicode="&#x1fe;" horiz-adv-x="1307" d="M1029 1332 L1166 1520 L1248 1436 L1103 1238 Q1177 1104 1204.5 994 Q1232 884 1232 734 Q1232 494 1154 322.5 Q1076 151 944.5 63 Q813 -25 655 -25 Q553 -25 469.5 8.5 Q386 42 291 129 L153 -59 L72 25 L216 222 Q135 375 108.5 479 Q82 583 82 727 Q82 970 160.5 1144 Q239 1318 368 1404.5 Q497 1491 660 1491 Q763 1491 847.5 1456.5 Q932 1422 1029 1332 Z M930 1197 Q853 1273 794.5 1299 Q736 1325 660 1325 Q481 1325 363.5 1175.5 Q246 1026 246 730 Q246 619 261 541.5 Q276 464 319 362 L930 1197 Z M998 1094 L388 262 Q453 196 516.5 168.5 Q580 141 655 141 Q830 141 948.5 292 Q1067 443 1067 729 Q1067 935 998 1094 Z M521 1567 L630 1847 L823 1847 L643 1567 L521 1567 Z " />
<glyph glyph-name="oslashacute" unicode="&#x1ff;" horiz-adv-x="1026" d="M761 999 L842 1127 L921 1057 L833 919 Q886 830 905 756 Q929 659 929 531 Q929 254 813 115 Q697 -24 514 -24 Q389 -24 289 56 L203 -79 L126 -8 L215 133 Q162 207 143 281 Q113 392 113 516 Q113 802 228 944 Q343 1086 518 1086 Q581 1086 637 1066.5 Q693 1047 761 999 Z M678 867 Q603 937 521 937 Q415 937 339.5 836 Q264 735 264 535 Q264 382 307 280 L678 867 Z M739 770 L372 187 Q435 124 516 124 Q628 124 703 224.5 Q778 325 778 534 Q778 607 770 656 Q762 705 739 770 Z M393 1194 L502 1474 L695 1474 L515 1194 L393 1194 Z " />
<glyph glyph-name="anoteleia" unicode="&#x387;" horiz-adv-x="682" d="M348 637 L348 842 L516 842 L516 637 L348 637 Z " />
<glyph glyph-name="Wgrave" unicode="&#x1e80;" horiz-adv-x="1585" d="M342 0 L23 1466 L186 1466 L369 505 Q398 357 420 205 L474 476 L703 1466 L895 1466 L1067 724 Q1130 453 1161 205 Q1184 348 1220 524 L1409 1466 L1569 1466 L1239 0 L1086 0 L832 1117 L794 1289 Q777 1193 759 1117 L504 0 L342 0 Z M930 1567 L811 1567 L622 1847 L820 1847 L930 1567 Z " />
<glyph glyph-name="wgrave" unicode="&#x1e81;" horiz-adv-x="1212" d="M268 0 L2 1062 L155 1062 L293 449 L344 221 L390 440 L528 1062 L680 1062 L810 446 L854 243 L904 448 L1053 1062 L1197 1062 L924 0 L771 0 L632 636 L599 817 L423 0 L268 0 Z M708 1194 L589 1194 L400 1474 L598 1474 L708 1194 Z " />
<glyph glyph-name="Wacute" unicode="&#x1e82;" horiz-adv-x="1585" d="M342 0 L23 1466 L186 1466 L369 505 Q398 357 420 205 L474 476 L703 1466 L895 1466 L1067 724 Q1130 453 1161 205 Q1184 348 1220 524 L1409 1466 L1569 1466 L1239 0 L1086 0 L832 1117 L794 1289 Q777 1193 759 1117 L504 0 L342 0 Z M669 1567 L778 1847 L971 1847 L791 1567 L669 1567 Z " />
<glyph glyph-name="wacute" unicode="&#x1e83;" horiz-adv-x="1212" d="M268 0 L2 1062 L155 1062 L293 449 L344 221 L390 440 L528 1062 L680 1062 L810 446 L854 243 L904 448 L1053 1062 L1197 1062 L924 0 L771 0 L632 636 L599 817 L423 0 L268 0 Z M521 1194 L630 1474 L823 1474 L643 1194 L521 1194 Z " />
<glyph glyph-name="Wdieresis" unicode="&#x1e84;" horiz-adv-x="1585" d="M342 0 L23 1466 L186 1466 L369 505 Q398 357 420 205 L474 476 L703 1466 L895 1466 L1067 724 Q1130 453 1161 205 Q1184 348 1220 524 L1409 1466 L1569 1466 L1239 0 L1086 0 L832 1117 L794 1289 Q777 1193 759 1117 L504 0 L342 0 Z M558 1643 L558 1848 L712 1848 L712 1643 L558 1643 Z M864 1643 L864 1848 L1018 1848 L1018 1643 L864 1643 Z " />
<glyph glyph-name="wdieresis" unicode="&#x1e85;" horiz-adv-x="1212" d="M268 0 L2 1062 L155 1062 L293 449 L344 221 L390 440 L528 1062 L680 1062 L810 446 L854 243 L904 448 L1053 1062 L1197 1062 L924 0 L771 0 L632 636 L599 817 L423 0 L268 0 Z M364 1270 L364 1475 L518 1475 L518 1270 L364 1270 Z M670 1270 L670 1475 L824 1475 L824 1270 L670 1270 Z " />
<glyph glyph-name="Ygrave" unicode="&#x1ef2;" horiz-adv-x="1120" d="M468 0 L468 621 L5 1466 L199 1466 L435 1024 Q505 893 558 776 Q611 891 689 1035 L922 1466 L1107 1466 L627 621 L627 0 L468 0 Z M686 1567 L567 1567 L378 1847 L576 1847 L686 1567 Z " />
<glyph glyph-name="ygrave" unicode="&#x1ef3;" horiz-adv-x="840" d="M104 -409 L88 -240 Q137 -256 172 -256 Q219 -256 249.5 -237 Q280 -218 300 -178 Q307 -164 358 -2 L27 1062 L186 1062 L368 447 Q402 332 431 201 Q456 325 491 443 L677 1062 L825 1062 L494 -18 Q429 -228 391.5 -298.5 Q354 -369 306.5 -400 Q259 -431 199 -431 Q157 -431 104 -409 Z M546 1194 L427 1194 L238 1474 L436 1474 L546 1194 Z " />
<glyph glyph-name="quotereversed" unicode="&#x201b;" horiz-adv-x="373" d="M260 1257 L183 1257 Q186 1165 209 1121.5 Q232 1078 274 1057 L237 986 Q169 1024 135.5 1092 Q102 1160 102 1301 L102 1466 L260 1466 L260 1257 Z " />
<glyph glyph-name="radicalex" unicode="&#x203e;" horiz-adv-x="934" d="M-42 1869 L976 1869 L976 1795 L-42 1795 L-42 1869 Z " />
<glyph glyph-name="afii08941" unicode="&#x20a4;" horiz-adv-x="934" d="M208 517 L-2 517 L-2 665 L191 665 L163 799 L-2 799 L-2 947 L132 947 Q118 1019 118 1073 Q118 1264 224.5 1377.5 Q331 1491 490 1491 Q634 1491 732.5 1394 Q831 1297 854 1112 L707 1085 Q694 1208 631.5 1275.5 Q569 1343 488 1343 Q400 1343 338 1274 Q276 1205 276 1098 Q276 1029 291 947 L510 947 L510 799 L319 799 L347 665 L510 665 L510 517 L364 517 Q364 486 329.5 388.5 Q295 291 218 191 Q283 213 336 213 Q404 213 489 188 Q629 147 680 147 Q740 147 837 203 L885 38 Q762 -26 688 -26 Q654 -26 618 -18 Q594 -12 511 19 Q425 51 398 57 Q361 66 327 66 Q195 66 77 -28 L20 145 Q106 202 157 302.5 Q208 403 208 517 Z " />
<glyph glyph-name="estimated" unicode="&#x212e;" horiz-adv-x="1229" d="M321 531 L321 160 Q441 39 619 39 Q873 39 1014 285 L1086 242 Q969 74 855 20 Q741 -34 619 -34 Q387 -34 238.5 124.5 Q90 283 90 531 Q90 780 238.5 938 Q387 1096 619 1096 Q833 1096 985 953.5 Q1137 811 1148 531 L321 531 Z M917 605 L917 902 Q794 1023 617 1023 Q442 1023 321 901 L321 605 L917 605 Z " />
<glyph glyph-name="oneeighth" unicode="&#x215b;" horiz-adv-x="1401" d="M270 733 L270 1287 Q186 1206 86 1174 L86 1297 Q137 1317 199.5 1370.5 Q262 1424 300 1484 L389 1484 L389 733 L270 733 Z M203 -57 L1106 1491 L1234 1491 L332 -57 L203 -57 Z M1031 375 Q929 422 929 536 Q929 615 977.5 672 Q1026 729 1135 729 Q1240 729 1296.5 675 Q1353 621 1353 534 Q1353 421 1242 375 Q1373 335 1373 190 Q1373 87 1308.5 23 Q1244 -41 1140 -41 Q1030 -41 968 24 Q906 89 906 186 Q906 334 1031 375 Z M1137 622 Q1093 622 1069 593 Q1045 564 1045 526 Q1045 475 1072 450.5 Q1099 426 1140 426 Q1179 426 1207.5 450.5 Q1236 475 1236 522 Q1236 571 1208 596.5 Q1180 622 1137 622 Z M1137 319 Q1083 319 1053 284 Q1023 249 1023 198 Q1023 71 1140 71 Q1198 71 1228 108.5 Q1258 146 1258 192 Q1258 250 1223.5 284.5 Q1189 319 1137 319 Z " />
<glyph glyph-name="threeeighths" unicode="&#x215c;" horiz-adv-x="1401" d="M86 929 L206 944 Q223 882 254 857 Q285 832 332 832 Q387 832 423.5 869.5 Q460 907 460 965 Q460 1018 429 1046.5 Q398 1075 331 1075 L304 1073 L286 1072 L304 1182 Q365 1181 398.5 1209 Q432 1237 432 1284 Q432 1324 405.5 1348.5 Q379 1373 334 1373 Q289 1373 262.5 1351.5 Q236 1330 217 1271 L100 1294 Q135 1403 186.5 1443.5 Q238 1484 336 1484 Q446 1484 503 1433.5 Q560 1383 560 1298 Q560 1239 530 1197 Q500 1155 447 1137 Q589 1094 589 946 Q589 847 521 781 Q453 715 342 715 Q122 715 86 929 Z M203 -57 L1106 1491 L1234 1491 L332 -57 L203 -57 Z M1019 375 Q917 422 917 536 Q917 615 965.5 672 Q1014 729 1123 729 Q1228 729 1284.5 675 Q1341 621 1341 534 Q1341 421 1230 375 Q1361 335 1361 190 Q1361 87 1296.5 23 Q1232 -41 1128 -41 Q1018 -41 956 24 Q894 89 894 186 Q894 334 1019 375 Z M1125 622 Q1081 622 1057 593 Q1033 564 1033 526 Q1033 475 1060 450.5 Q1087 426 1128 426 Q1167 426 1195.5 450.5 Q1224 475 1224 522 Q1224 571 1196 596.5 Q1168 622 1125 622 Z M1125 319 Q1071 319 1041 284 Q1011 249 1011 198 Q1011 71 1128 71 Q1186 71 1216 108.5 Q1246 146 1246 192 Q1246 250 1211.5 284.5 Q1177 319 1125 319 Z " />
<glyph glyph-name="fiveeighths" unicode="&#x215d;" horiz-adv-x="1401" d="M73 926 L186 944 Q207 840 300 840 Q361 840 396 882 Q431 924 431 985 Q431 1043 398.5 1085.5 Q366 1128 315 1128 Q263 1128 206 1065 L96 1090 L157 1466 L524 1466 L524 1346 L233 1346 L206 1188 Q266 1239 337 1239 Q429 1239 488.5 1165 Q548 1091 548 985 Q548 866 476 790.5 Q404 715 302 715 Q209 715 149.5 772.5 Q90 830 73 926 Z M203 -57 L1106 1491 L1234 1491 L332 -57 L203 -57 Z M1007 371 Q905 418 905 532 Q905 611 953.5 668 Q1002 725 1111 725 Q1216 725 1272.5 671 Q1329 617 1329 530 Q1329 417 1218 371 Q1349 331 1349 186 Q1349 83 1284.5 19 Q1220 -45 1116 -45 Q1006 -45 944 20 Q882 85 882 182 Q882 330 1007 371 Z M1113 618 Q1069 618 1045 589 Q1021 560 1021 522 Q1021 471 1048 446.5 Q1075 422 1116 422 Q1155 422 1183.5 446.5 Q1212 471 1212 518 Q1212 567 1184 592.5 Q1156 618 1113 618 Z M1113 315 Q1059 315 1029 280 Q999 245 999 194 Q999 67 1116 67 Q1174 67 1204 104.5 Q1234 142 1234 188 Q1234 246 1199.5 280.5 Q1165 315 1113 315 Z " />
<glyph glyph-name="seveneighths" unicode="&#x215e;" horiz-adv-x="1401" d="M188 733 Q206 1050 393 1346 L94 1346 L94 1466 L522 1466 L522 1386 Q329 1097 305 733 L188 733 Z M203 -57 L1106 1491 L1234 1491 L332 -57 L203 -57 Z M1007 375 Q905 422 905 536 Q905 615 953.5 672 Q1002 729 1111 729 Q1216 729 1272.5 675 Q1329 621 1329 534 Q1329 421 1218 375 Q1349 335 1349 190 Q1349 87 1284.5 23 Q1220 -41 1116 -41 Q1006 -41 944 24 Q882 89 882 186 Q882 334 1007 375 Z M1113 622 Q1069 622 1045 593 Q1021 564 1021 526 Q1021 475 1048 450.5 Q1075 426 1116 426 Q1155 426 1183.5 450.5 Q1212 475 1212 522 Q1212 571 1184 596.5 Q1156 622 1113 622 Z M1113 319 Q1059 319 1029 284 Q999 249 999 198 Q999 71 1116 71 Q1174 71 1204 108.5 Q1234 146 1234 192 Q1234 250 1199.5 284.5 Q1165 319 1113 319 Z " />
<glyph glyph-name="tonos" unicode="&#x384;" horiz-adv-x="559" d="M182 1194 L291 1474 L484 1474 L304 1194 L182 1194 Z " />
<glyph glyph-name="dieresistonos" unicode="&#x385;" horiz-adv-x="559" d="M176 1198 L285 1475 L436 1475 L272 1198 L176 1198 Z M436 1198 L436 1389 L578 1389 L578 1198 L436 1198 Z M-18 1198 L-18 1389 L123 1389 L123 1198 L-18 1198 Z " />
<glyph glyph-name="Alphatonos" unicode="&#x386;" horiz-adv-x="1120" d="M-2 0 L460 1466 L631 1466 L1123 0 L941 0 L801 444 L299 444 L167 0 L-2 0 Z M345 602 L752 602 L627 1008 Q569 1195 542 1312 Q519 1171 477 1032 L345 602 Z M14 1194 L123 1474 L316 1474 L136 1194 L14 1194 Z " />
<glyph glyph-name="Epsilontonos" unicode="&#x388;" horiz-adv-x="1365" d="M377 0 L377 1466 L1246 1466 L1246 1293 L536 1293 L536 844 L1201 844 L1201 672 L536 672 L536 173 L1274 173 L1274 0 L377 0 Z M30 1194 L139 1474 L332 1474 L152 1194 L30 1194 Z " />
<glyph glyph-name="Etatonos" unicode="&#x389;" horiz-adv-x="1469" d="M397 0 L397 1466 L556 1466 L556 864 L1181 864 L1181 1466 L1340 1466 L1340 0 L1181 0 L1181 691 L556 691 L556 0 L397 0 Z M34 1194 L143 1474 L336 1474 L156 1194 L34 1194 Z " />
<glyph glyph-name="Iotatonos" unicode="&#x38a;" horiz-adv-x="711" d="M392 0 L392 1466 L551 1466 L551 0 L392 0 Z M34 1194 L143 1474 L336 1474 L156 1194 L34 1194 Z " />
<glyph glyph-name="Omicrontonos" unicode="&#x38c;" horiz-adv-x="1437" d="M201 714 Q201 1089 366 1290.5 Q531 1492 777 1492 Q936 1492 1067 1402 Q1198 1312 1274.5 1140.5 Q1351 969 1351 732 Q1351 406 1203 201 Q1040 -25 776 -25 Q510 -25 348 207 Q201 417 201 714 Z M365 711 Q365 440 484.5 290.5 Q604 141 775 141 Q950 141 1068.5 292 Q1187 443 1187 736 Q1187 925 1126 1074 Q1079 1188 984.5 1256.5 Q890 1325 778 1325 Q598 1325 481.5 1175 Q365 1025 365 711 Z M30 1194 L139 1474 L332 1474 L152 1194 L30 1194 Z " />
<glyph glyph-name="Upsilontonos" unicode="&#x38e;" horiz-adv-x="1480" d="M836 0 L836 621 L373 1466 L567 1466 L803 1024 Q873 893 926 776 Q979 891 1057 1035 L1290 1466 L1475 1466 L995 621 L995 0 L836 0 Z M34 1194 L143 1474 L336 1474 L156 1194 L34 1194 Z " />
<glyph glyph-name="Omegatonos" unicode="&#x38f;" horiz-adv-x="1392" d="M204 0 L204 172 L466 172 Q218 426 218 793 Q218 1103 366.5 1297 Q515 1491 755 1491 Q1007 1491 1148.5 1286.5 Q1290 1082 1290 793 Q1290 428 1040 172 L1302 172 L1302 0 L833 0 L833 162 Q1126 329 1126 762 Q1126 1012 1021 1168.5 Q916 1325 755 1325 Q591 1325 486.5 1171 Q382 1017 382 772 Q382 334 671 162 L671 0 L204 0 Z M26 1194 L135 1474 L328 1474 L148 1194 L26 1194 Z " />
<glyph glyph-name="iotadieresistonos" unicode="&#x390;" horiz-adv-x="467" d="M166 0 L166 1062 L313 1062 L313 0 L166 0 Z M128 1198 L237 1475 L388 1475 L224 1198 L128 1198 Z M388 1198 L388 1389 L530 1389 L530 1198 L388 1198 Z M-66 1198 L-66 1389 L75 1389 L75 1198 L-66 1198 Z " />
<glyph glyph-name="Alpha" unicode="&#x391;" horiz-adv-x="1120" d="M-2 0 L460 1466 L631 1466 L1123 0 L941 0 L801 444 L299 444 L167 0 L-2 0 Z M345 602 L752 602 L627 1008 Q569 1195 542 1312 Q519 1171 477 1032 L345 602 Z " />
<glyph glyph-name="Beta" unicode="&#x392;" horiz-adv-x="1120" d="M124 0 L124 1466 L575 1466 Q712 1466 792 1423.5 Q872 1381 923 1291 Q974 1201 974 1092 Q974 991 930 910 Q886 829 806 780 Q911 742 971.5 650.5 Q1032 559 1032 425 Q1032 292 977.5 191.5 Q923 91 832 45.5 Q741 0 582 0 L124 0 Z M283 850 L543 850 Q645 850 688 864 Q750 885 783.5 934.5 Q817 984 817 1069 Q817 1148 786.5 1200.5 Q756 1253 705.5 1273 Q655 1293 524 1293 L283 1293 L283 850 Z M283 173 L582 173 Q681 173 728 191 Q796 217 831.5 276.5 Q867 336 867 426 Q867 509 833 566.5 Q799 624 741.5 650.5 Q684 677 561 677 L283 677 L283 173 Z " />
<glyph glyph-name="Delta" unicode="&#x394;" horiz-adv-x="1145" d="M1135 0 L10 0 L473 1466 L643 1466 L1135 0 Z M489 1032 L231 172 L899 172 L639 1008 Q585 1185 555 1313 Q534 1180 489 1032 Z " />
<glyph glyph-name="Epsilon" unicode="&#x395;" horiz-adv-x="1120" d="M133 0 L133 1466 L1002 1466 L1002 1293 L292 1293 L292 844 L957 844 L957 672 L292 672 L292 173 L1030 173 L1030 0 L133 0 Z " />
<glyph glyph-name="Zeta" unicode="&#x396;" horiz-adv-x="1026" d="M36 0 L36 180 L652 1119 Q716 1217 777 1293 L105 1293 L105 1466 L966 1466 L966 1293 L292 276 L219 173 L986 173 L986 0 L36 0 Z " />
<glyph glyph-name="Eta" unicode="&#x397;" horiz-adv-x="1212" d="M129 0 L129 1466 L288 1466 L288 864 L913 864 L913 1466 L1072 1466 L1072 0 L913 0 L913 691 L288 691 L288 0 L129 0 Z " />
<glyph glyph-name="Iota" unicode="&#x399;" horiz-adv-x="467" d="M160 0 L160 1466 L319 1466 L319 0 L160 0 Z " />
<glyph glyph-name="Kappa" unicode="&#x39a;" horiz-adv-x="1120" d="M124 0 L124 1466 L283 1466 L283 739 L880 1466 L1096 1466 L591 872 L1118 0 L908 0 L480 742 L283 508 L283 0 L124 0 Z " />
<glyph glyph-name="Lambda" unicode="&#x39b;" horiz-adv-x="1120" d="M481 1466 L643 1466 L1110 0 L938 0 L625 1065 Q590 1177 561 1305 Q531 1175 498 1065 L172 0 L10 0 L481 1466 Z " />
<glyph glyph-name="Mu" unicode="&#x39c;" horiz-adv-x="1399" d="M125 0 L125 1466 L364 1466 L649 428 L706 211 Q727 292 770 446 L1058 1466 L1272 1466 L1272 0 L1119 0 L1119 1227 L769 0 L626 0 L278 1248 L278 0 L125 0 Z " />
<glyph glyph-name="Nu" unicode="&#x39d;" horiz-adv-x="1212" d="M125 0 L125 1466 L288 1466 L920 315 L920 1466 L1072 1466 L1072 0 L909 0 L278 1152 L278 0 L125 0 Z " />
<glyph glyph-name="Xi" unicode="&#x39e;" horiz-adv-x="1092" d="M113 1294 L113 1466 L981 1466 L981 1294 L113 1294 Z M188 647 L188 819 L903 819 L903 647 L188 647 Z M90 0 L90 172 L1004 172 L1004 0 L90 0 Z " />
<glyph glyph-name="Omicron" unicode="&#x39f;" horiz-adv-x="1307" d="M85 714 Q85 1089 250 1290.5 Q415 1492 661 1492 Q820 1492 951 1402 Q1082 1312 1158.5 1140.5 Q1235 969 1235 732 Q1235 406 1087 201 Q924 -25 660 -25 Q394 -25 232 207 Q85 417 85 714 Z M249 711 Q249 440 368.5 290.5 Q488 141 659 141 Q834 141 952.5 292 Q1071 443 1071 736 Q1071 925 1010 1074 Q963 1188 868.5 1256.5 Q774 1325 662 1325 Q482 1325 365.5 1175 Q249 1025 249 711 Z " />
<glyph glyph-name="Pi" unicode="&#x3a0;" horiz-adv-x="1212" d="M295 0 L135 0 L135 1466 L1079 1466 L1079 0 L920 0 L920 1294 L295 1294 L295 0 Z " />
<glyph glyph-name="Rho" unicode="&#x3a1;" horiz-adv-x="1120" d="M130 0 L130 1466 L583 1466 Q743 1466 819 1438 Q923 1400 985 1297 Q1047 1194 1047 1044 Q1047 846 946 721 Q845 596 597 596 L289 596 L289 0 L130 0 Z M289 769 L600 769 Q747 769 815 835.5 Q883 902 883 1036 Q883 1123 849.5 1185 Q816 1247 768.5 1270 Q721 1293 597 1293 L289 1293 L289 769 Z " />
<glyph glyph-name="Sigma" unicode="&#x3a3;" horiz-adv-x="1012" d="M80 1466 L897 1466 L897 1294 L252 1294 L662 762 L252 172 L932 172 L932 0 L80 0 L80 201 L473 762 L80 1272 L80 1466 Z " />
<glyph glyph-name="Tau" unicode="&#x3a4;" horiz-adv-x="1026" d="M438 0 L438 1293 L42 1293 L42 1466 L995 1466 L995 1293 L597 1293 L597 0 L438 0 Z " />
<glyph glyph-name="Upsilon" unicode="&#x3a5;" horiz-adv-x="1120" d="M468 0 L468 621 L5 1466 L199 1466 L435 1024 Q505 893 558 776 Q611 891 689 1035 L922 1466 L1107 1466 L627 621 L627 0 L468 0 Z " />
<glyph glyph-name="Chi" unicode="&#x3a7;" horiz-adv-x="1120" d="M8 0 L473 764 L63 1466 L252 1466 L471 1090 Q538 974 567 910 Q606 988 662 1077 L905 1466 L1077 1466 L655 775 L1110 0 L914 0 L611 523 Q586 567 559 621 Q518 541 501 511 L199 0 L8 0 Z " />
<glyph glyph-name="Psi" unicode="&#x3a8;" horiz-adv-x="1352" d="M78 1016 L78 1466 L238 1466 L238 1053 Q238 848 338 734.5 Q438 621 596 621 L596 1466 L756 1466 L756 621 Q1112 621 1112 1073 L1112 1466 L1272 1466 L1272 1032 Q1272 757 1140 605 Q1008 453 756 453 L756 0 L596 0 L596 453 Q362 453 220 608.5 Q78 764 78 1016 Z " />
<glyph glyph-name="Ohm001" unicode="&#x3a9;" horiz-adv-x="1274" d="M88 0 L88 172 L350 172 Q102 426 102 793 Q102 1103 250.5 1297 Q399 1491 639 1491 Q891 1491 1032.5 1286.5 Q1174 1082 1174 793 Q1174 428 924 172 L1186 172 L1186 0 L717 0 L717 162 Q1010 329 1010 762 Q1010 1012 905 1168.5 Q800 1325 639 1325 Q475 1325 370.5 1171 Q266 1017 266 772 Q266 334 555 162 L555 0 L88 0 Z " />
<glyph glyph-name="Iotadieresis" unicode="&#x3aa;" horiz-adv-x="467" d="M160 0 L160 1466 L319 1466 L319 0 L160 0 Z M2 1642 L2 1847 L156 1847 L156 1642 L2 1642 Z M308 1642 L308 1847 L462 1847 L462 1642 L308 1642 Z " />
<glyph glyph-name="Upsilondieresis" unicode="&#x3ab;" horiz-adv-x="1120" d="M468 0 L468 621 L5 1466 L199 1466 L435 1024 Q505 893 558 776 Q611 891 689 1035 L922 1466 L1107 1466 L627 621 L627 0 L468 0 Z M319 1642 L319 1847 L473 1847 L473 1642 L319 1642 Z M625 1642 L625 1847 L779 1847 L779 1642 L625 1642 Z " />
<glyph glyph-name="alphatonos" unicode="&#x3ac;" horiz-adv-x="1013" d="M751 192 Q639 -28 446 -28 Q322 -28 230.5 47 Q139 122 97.5 248 Q56 374 56 510 Q56 770 162.5 925 Q269 1080 451 1080 Q652 1080 747 883 L783 1063 L943 1063 Q885 805 885 549 Q885 248 954 0 L789 0 Q763 112 751 192 Z M479 942 Q353 942 290.5 828.5 Q228 715 228 531 Q228 334 293.5 222 Q359 110 479 110 Q731 110 731 532 Q731 735 663.5 838.5 Q596 942 479 942 Z M364 1194 L473 1474 L666 1474 L486 1194 L364 1194 Z " />
<glyph glyph-name="epsilontonos" unicode="&#x3ad;" horiz-adv-x="729" d="M420 618 L451 618 L451 473 L424 473 Q203 473 203 297 Q203 222 248.5 173.5 Q294 125 360 125 Q471 125 573 256 L680 145 Q608 56 533 16.5 Q458 -23 346 -23 Q212 -23 131.5 66 Q51 155 51 289 Q51 475 195 549 Q74 629 74 784 Q74 912 151.5 998.5 Q229 1085 362 1085 Q530 1085 649 942 L543 838 Q441 930 354 930 Q290 930 252.5 887.5 Q215 845 215 784 Q215 618 420 618 Z M245 1194 L354 1474 L547 1474 L367 1194 L245 1194 Z " />
<glyph glyph-name="etatonos" unicode="&#x3ae;" horiz-adv-x="934" d="M248 1061 L248 911 Q345 1085 524 1085 Q632 1085 707 1026 Q782 967 802.5 884 Q823 801 823 653 L823 -408 L676 -408 L676 645 Q676 829 618.5 879.5 Q561 930 492 930 Q409 930 335.5 862 Q262 794 262 580 L262 0 L115 0 L115 1061 L248 1061 Z M358 1194 L467 1474 L660 1474 L480 1194 L358 1194 Z " />
<glyph glyph-name="iotatonos" unicode="&#x3af;" horiz-adv-x="467" d="M166 0 L166 1062 L313 1062 L313 0 L166 0 Z M129 1194 L238 1474 L431 1474 L251 1194 L129 1194 Z " />
<glyph glyph-name="upsilondieresistonos" unicode="&#x3b0;" horiz-adv-x="934" d="M113 414 L113 1061 L260 1061 L260 406 Q260 280 318 202.5 Q376 125 465 125 Q557 125 615.5 204.5 Q674 284 674 424 L674 1061 L821 1061 L821 410 Q821 211 724 94 Q627 -23 463 -23 Q300 -23 206.5 92 Q113 207 113 414 Z M367 1198 L476 1475 L627 1475 L463 1198 L367 1198 Z M627 1198 L627 1389 L769 1389 L769 1198 L627 1198 Z M173 1198 L173 1389 L314 1389 L314 1198 L173 1198 Z " />
</font>
</svg>
